<?xml version="1.0" encoding="UTF-8" standalone="no"?>
<!-- Created with Inkscape (http://www.inkscape.org/) -->

<svg
   width="257.22189mm"
   height="128.67245mm"
   viewBox="0 0 257.22189 128.67245"
   version="1.1"
   id="svg1"
   xml:space="preserve"
   xmlns="http://www.w3.org/2000/svg"
   xmlns:svg="http://www.w3.org/2000/svg"><defs
     id="defs1" /><g
     id="layer1"
     transform="translate(1100.111,197.96316)"><path
       style="fill:#1087d6;fill-opacity:1"
       d="m -1081.1793,-69.381146 c -0.4366,-0.07197 -0.9069,-0.240756 -1.0451,-0.375079 -0.1383,-0.134323 -0.4775,-0.244224 -0.7538,-0.244224 -0.7741,0 -5.6736,-2.281075 -6.2709,-2.919538 -0.073,-0.07778 -0.4895,-0.408796 -0.9261,-0.735598 -0.4365,-0.326801 -1.1423,-0.858478 -1.5683,-1.181503 -1.9248,-1.459555 -6.2924,-6.136677 -6.8726,-7.359852 -0.1314,-0.27693 -0.3303,-0.503509 -0.442,-0.503509 -0.1118,0 -0.2816,-0.357188 -0.3775,-0.79375 -0.096,-0.436563 -0.2839,-0.79375 -0.4179,-0.79375 -0.4892,0 -0.2309,-1.404139 0.3518,-1.912262 0.6101,-0.532045 3.3487,-0.497685 4.0322,0.05059 0.147,0.117888 0.7726,0.297696 1.3903,0.399571 0.6177,0.101876 1.1834,0.282777 1.2571,0.402003 0.074,0.119226 0.7291,0.298632 1.4566,0.398681 0.7274,0.100049 1.3226,0.289797 1.3226,0.421662 0,0.131866 0.272,0.239756 0.6045,0.239756 0.3325,0 1.2552,0.227201 2.0505,0.504892 4.1631,1.453541 7.4397,0.804006 10.0804,-1.998231 1.0785,-1.144516 2.345,-3.083897 2.3475,-3.594633 9e-4,-0.184792 0.196,-0.693174 0.4335,-1.129737 0.512,-0.94078 0.6508,-6.464946 0.1773,-7.055331 -0.1557,-0.194151 -0.3717,-0.641513 -0.4801,-0.994137 -0.2209,-0.718564 -0.2563,-0.768272 -1.6655,-2.335435 -0.5561,-0.61847 -1.153,-1.12448 -1.3265,-1.12448 -0.1734,0 -0.3153,-0.1096 -0.3153,-0.24356 0,-0.13396 -0.3572,-0.32201 -0.7938,-0.4179 -0.4365,-0.0959 -0.7937,-0.27042 -0.7937,-0.38786 0,-0.11743 -0.5656,-0.29771 -1.2568,-0.40061 -0.6912,-0.1029 -1.3758,-0.28 -1.5214,-0.39354 -0.1455,-0.11355 -0.8598,-0.29259 -1.5875,-0.39788 -0.7276,-0.10528 -1.4419,-0.26913 -1.5875,-0.3641 -0.1455,-0.095 -0.9194,-0.31355 -1.7197,-0.48572 -0.8004,-0.17218 -2.0282,-0.43785 -2.7284,-0.59038 -6.5158,-1.41936 -7.0154,-4.02586 -1.2404,-6.47139 0.5093,-0.21568 1.4851,-0.63888 2.1683,-0.94044 0.6832,-0.30156 1.4799,-0.54829 1.7703,-0.54829 0.2905,0 0.5948,-0.10791 0.6763,-0.23979 0.082,-0.13189 0.7731,-0.32382 1.537,-0.4265 0.7638,-0.10269 1.5558,-0.32221 1.76,-0.48781 0.5217,-0.4231 10.562,-0.4138 11.4281,0.0106 0.3498,0.17143 1.0825,0.38518 1.6282,0.47501 0.5457,0.0898 0.9922,0.27699 0.9922,0.41592 0,0.13892 0.2084,0.25663 0.463,0.26157 0.8628,0.0167 3.9785,1.79925 5.3579,3.06521 0.3638,0.3339 0.9888,0.90422 1.389,1.26736 0.4002,0.36315 0.7276,0.73117 0.7276,0.81783 0,0.0866 0.2756,0.41976 0.6125,0.74023 0.6662,0.63394 2.5625,3.66255 2.5625,4.09278 0,0.14623 0.1779,0.60691 0.3953,1.02372 0.2174,0.41682 0.3959,1.00193 0.3968,1.30025 9e-4,0.29831 0.1452,0.6859 0.3206,0.86129 0.4283,0.42833 0.6224,7.944053 0.2507,9.70882 -0.1533,0.727604 -0.4047,1.913325 -0.5588,2.634934 -0.154,0.72161 -0.3981,1.430031 -0.5423,1.574271 -0.1443,0.144239 -0.2663,0.4468 -0.2713,0.672358 -0.01,0.225557 -0.239,0.886354 -0.5201,1.468437 -0.2812,0.582083 -0.5072,1.236927 -0.5023,1.455208 0,0.218282 0.1476,0.09922 0.317,-0.264583 0.1695,-0.363802 0.4591,-0.818791 0.6436,-1.011086 0.1845,-0.192296 0.3354,-0.519717 0.3354,-0.727604 0,-0.207887 0.096,-0.377977 0.2137,-0.377977 0.2056,0 1.1092,-1.817944 1.1092,-2.231731 0,-0.111011 0.1697,-0.577019 0.3772,-1.035574 1.3046,-2.884319 1.4089,-13.044613 0.1429,-13.930623 -0.1039,-0.0728 -0.2772,-0.54901 -0.3851,-1.05833 -0.1078,-0.50932 -0.3116,-1.06966 -0.4529,-1.24518 -0.6063,-0.75346 0.1436,-0.79268 1.2233,-0.064 0.6357,0.42899 1.3171,0.78073 1.5142,0.78162 0.1972,9e-4 0.6994,0.17941 1.116,0.39669 1.6195,0.84462 5.6353,1.00273 28.1349,1.1077 l 22.2778,0.10393 0.8661,1.11326 c 0.4764,0.61229 1.0182,1.20846 1.204,1.32483 0.1858,0.116386 0.3379,0.384277 0.3379,0.595327 0,0.211051 0.111,0.383728 0.2467,0.383728 0.13574,0 0.33038,0.267891 0.43256,0.595313 0.10218,0.327422 0.27275,0.654843 0.37904,0.727604 0.1063,0.07276 0.27558,0.396135 0.37619,0.718611 0.18293,0.586319 0.18293,0.586319 -21.08899,0.661458 l -21.2718,0.07514 -0.9681,0.997001 c -1.367,1.407791 -1.3868,3.042369 -0.054,4.493103 l 0.9113,0.992188 h 21.6878 c 24.42545,0 23.56396,0.07566 24.24182,-2.129007 0.10977,-0.357015 0.31031,-0.787905 0.44566,-0.957533 0.27459,-0.344154 -0.32666,-2.803944 -1.05634,-4.321573 -1.2101,-2.516866 -5.28334,-6.95795 -8.25094,-8.99606 -0.3179,-0.21829 -0.8232,-0.60524 -1.1229,-0.8599 -0.2997,-0.25466 -0.6954,-0.46302 -0.8793,-0.46302 -0.1839,0 -0.374,-0.0956 -0.4225,-0.21239 -0.1212,-0.29168 -3.2617,-2.16886 -3.6286,-2.16886 -0.1628,0 -0.2961,-0.11906 -0.2961,-0.26458 0,-0.14553 -0.2154,-0.26459 -0.4786,-0.26459 -0.2632,0 -0.7097,-0.17481 -0.9922,-0.38846 -0.7182,-0.54324 0.4637,-0.55865 2.0569,-0.0268 0.6235,0.20816 1.5815,0.45978 2.1288,0.55916 0.5473,0.0994 1.0604,0.28627 1.1401,0.41529 0.08,0.12903 0.4058,0.23863 0.7247,0.24357 0.3188,0.005 1.0559,0.23902 1.638,0.52019 0.5821,0.28116 1.2088,0.51525 1.3927,0.52019 0.1838,0.005 0.541,0.11847 0.7937,0.25229 0.2527,0.13382 1.6501,0.80578 3.10527,1.49323 2.5741,1.21602 5.68606,2.94362 5.95313,3.30486 0.0728,0.0984 0.40018,0.26254 0.7276,0.36472 0.32743,0.10218 0.59532,0.29682 0.59532,0.43254 0,0.13571 0.18233,0.24675 0.40518,0.24675 0.22284,0 0.47371,0.1786 0.55747,0.39688 0.0838,0.21828 0.26344,0.39687 0.39928,0.39687 0.31858,0 1.78771,1.03015 2.49282,1.74794 0.30111,0.306535 0.6735,0.604191 0.82754,0.66147 0.41851,0.155623 2.8752,2.287512 4.55406,3.95197 1.49171,1.478911 1.67719,1.689829 3.59634,4.089674 0.58186,0.727605 1.11746,1.382448 1.19022,1.455209 0.3809,0.380892 1.32292,1.864802 1.32292,2.083904 0,0.139287 0.11118,0.292936 0.24706,0.341443 0.37344,0.133313 2.92794,5.175329 2.92794,5.779115 0,0.289733 0.11177,0.526788 0.24837,0.526788 0.13661,0 0.32872,0.535781 0.42692,1.190625 0.0982,0.654843 0.28035,1.190625 0.40478,1.190625 0.12443,0 0.1555,0.184333 0.0691,0.40963 -0.1421,0.370296 -1.11653,-0.800093 -3.0646,-3.680896 -0.18341,-0.271228 -0.71767,-0.926072 -1.18724,-1.455209 -0.46956,-0.529137 -0.85651,-1.045694 -0.85989,-1.147905 -0.007,-0.205221 -2.35533,-2.569524 -2.96925,-2.989162 -2.14474,-1.466024 -3.50727,-2.313783 -4.47859,-2.786569 -0.63649,-0.30981 -1.33976,-0.657637 -1.56282,-0.772947 -1.53082,-0.791365 -2.02379,-0.630038 -2.18302,0.714406 -0.14715,1.242453 -0.91103,2.972332 -1.31402,2.975729 -0.10914,9.2e-4 -0.19844,0.120735 -0.19844,0.266256 0,0.328332 -0.9733,1.322917 -1.29461,1.322917 -0.12995,0 -0.30481,0.178594 -0.38857,0.396875 -0.0838,0.218281 -0.33463,0.396875 -0.55747,0.396875 -0.22285,0 -0.40518,0.116794 -0.40518,0.259542 0,0.142749 -0.32743,0.33776 -0.72761,0.433358 -0.40018,0.0956 -0.89467,0.306226 -1.09887,0.468062 -0.26382,0.209093 -7.88244,0.337067 -26.32604,0.442212 -25.4269,0.144956 -29.5507,0.284253 -30.9042,1.043906 -0.2483,0.139363 -0.9329,0.330374 -1.5213,0.424469 -0.5884,0.0941 -1.0699,0.265468 -1.0699,0.380827 0,0.11536 -0.3572,0.288197 -0.7937,0.384082 -0.4366,0.09589 -0.7938,0.283939 -0.7938,0.417898 0,0.133958 -0.1649,0.24356 -0.3664,0.24356 -0.4193,0 -4.3924,2.940268 -5.7703,4.270221 -1.6534,1.596024 -4.8729,3.931863 -5.4192,3.931863 -0.1927,0 -0.3503,0.09615 -0.3503,0.213665 0,0.117515 -0.5061,0.431367 -1.1245,0.697447 -0.6185,0.266081 -1.624,0.705713 -2.2345,0.97696 -0.6104,0.271248 -1.3308,0.493178 -1.6007,0.493178 -0.2699,0 -0.6219,0.131134 -0.7822,0.29141 -0.3062,0.306222 -6.21,0.560278 -7.6196,0.327893 z m 190.36873,-1.609306 c -0.50874,-0.06136 -1.04452,-0.205882 -1.19062,-0.321156 -0.14611,-0.115274 -0.8312,-0.291435 -1.52242,-0.391469 -0.69122,-0.100034 -1.25677,-0.293646 -1.25677,-0.430251 0,-0.136604 -0.17907,-0.248371 -0.39793,-0.248371 -0.55747,0 -4.02321,-1.86123 -4.80357,-2.579688 -0.35563,-0.327422 -0.70013,-0.595312 -0.76555,-0.595312 -0.1127,0 -1.21978,-1.121733 -2.83035,-2.867816 -0.40018,-0.433854 -0.7276,-0.918582 -0.7276,-1.077172 0,-0.15859 -0.11679,-0.288346 -0.25954,-0.288346 -0.14275,0 -0.33425,-0.297656 -0.42556,-0.661458 -0.0913,-0.363802 -0.27217,-0.661458 -0.40192,-0.661458 -0.12974,0 -0.23994,-0.148828 -0.24487,-0.330729 -0.005,-0.181901 -0.23903,-0.80698 -0.52019,-1.389063 -0.28117,-0.582083 -0.51525,-1.302411 -0.52019,-1.600729 -0.005,-0.298318 -0.13339,-0.666801 -0.28544,-0.818853 -0.76336,-0.76336 -0.74168,-9.78212 0.0293,-12.1976 0.69596,-2.180396 1.43038,-4.202197 1.75441,-4.829697 0.55983,-1.08418 0.39169,-1.22468 -0.31665,-0.26459 -0.3638,0.49311 -0.66145,1.0421 -0.66145,1.21998 0,0.17788 -0.0893,0.36311 -0.19844,0.41162 -0.37667,0.16741 -1.70189,3.188682 -2.18569,4.982994 -0.68525,2.541431 -0.85512,9.125414 -0.25598,9.921875 0.10946,0.145521 0.28548,0.800365 0.39115,1.455208 0.10566,0.654844 0.2813,1.309688 0.39031,1.455209 0.109,0.145521 0.28357,0.620578 0.38793,1.055683 0.10437,0.435105 0.29309,0.854966 0.41939,0.933025 0.12631,0.07806 0.13417,0.296408 0.0175,0.48522 -0.17314,0.280146 -0.28009,0.27823 -0.58135,-0.01041 -0.57034,-0.546438 -1.77215,-1.27289 -2.10582,-1.27289 -0.16503,0 -0.67523,-0.175302 -1.13379,-0.389561 -1.61601,-0.755074 -4.9195,-0.990629 -16.57644,-1.181982 -7.37606,-0.12108 -12.07045,-0.301456 -12.56771,-0.482898 -0.43656,-0.159294 -1.59617,-0.366865 -2.57691,-0.46127 -0.98073,-0.09441 -1.84236,-0.267449 -1.91473,-0.384544 -0.0724,-0.117095 -0.78612,-0.294679 -1.58611,-0.394631 -0.8,-0.09995 -1.52297,-0.292462 -1.60661,-0.427798 -0.0837,-0.135337 -0.40093,-0.246066 -0.70509,-0.246066 -0.66814,0 -6.36919,-1.870948 -6.56744,-2.155275 -0.0771,-0.110607 -0.64267,-0.281448 -1.25677,-0.379647 -0.6141,-0.0982 -1.11655,-0.269481 -1.11655,-0.380628 0,-0.111146 -0.32623,-0.283963 -0.72495,-0.384036 -0.39873,-0.100074 -0.8111,-0.32134 -0.9164,-0.491704 -0.10529,-0.170364 -0.73374,-0.309752 -1.39656,-0.309752 -0.99392,0 -1.12996,-0.05497 -0.77621,-0.313638 0.36719,-0.268494 0.29206,-0.339316 -0.52199,-0.492032 -0.52301,-0.09812 -0.89703,-0.265593 -0.83117,-0.37217 0.12747,-0.206247 -1.95985,-1.335702 -2.46847,-1.335702 -0.16596,0 -0.30175,-0.106155 -0.30175,-0.2359 0,-0.129745 -0.31204,-0.314217 -0.69342,-0.409938 -0.38138,-0.09572 -0.8535,-0.316987 -1.04915,-0.491703 -0.82664,-0.738181 -1.10622,-0.923906 -1.65119,-1.096873 -0.31625,-0.100372 -0.57499,-0.293534 -0.57499,-0.429249 0,-0.135714 -0.13125,-0.246753 -0.29166,-0.246753 -0.36761,0 -7.48236,-4.255967 -7.60174,-4.547284 -0.0485,-0.11837 -0.24836,-0.21522 -0.44413,-0.21522 -0.19576,0 -0.51828,-0.14883 -0.71672,-0.33073 -0.38556,-0.35342 -0.42403,-0.37807 -3.24888,-2.08184 -1.01864,-0.61438 -1.89177,-1.21586 -1.94027,-1.33662 -0.0485,-0.12076 -0.24836,-0.21956 -0.44413,-0.21956 -0.19576,0 -0.51828,-0.14883 -0.71672,-0.33073 -0.53793,-0.49309 -1.30821,-0.97329 -2.1244,-1.32438 -0.40018,-0.17214 -0.7276,-0.40594 -0.7276,-0.51956 0,-0.11362 -0.17009,-0.20658 -0.37798,-0.20658 -0.20788,0 -0.54033,-0.14883 -0.73877,-0.33073 -0.5485,-0.50278 -1.3181,-0.96883 -2.1244,-1.28647 -0.40018,-0.15766 -0.7276,-0.38116 -0.7276,-0.49666 0,-0.11551 -0.32623,-0.2919 -0.72495,-0.39197 -0.39873,-0.10008 -0.78568,-0.26216 -0.8599,-0.3602 -0.20726,-0.27376 -7.28167,-3.74855 -7.63177,-3.74855 -0.1696,0 -0.3084,-0.11906 -0.3084,-0.26458 0,-0.14553 -0.2083,-0.26532 -0.463,-0.26622 -0.2547,-8.9e-4 -0.7824,-0.16827 -1.1728,-0.37194 -0.3904,-0.20367 -1.075,-0.45052 -1.5214,-0.54856 -0.4463,-0.098 -0.8115,-0.27738 -0.8115,-0.39855 0,-0.12117 -0.4757,-0.30066 -1.057,-0.39888 -0.5813,-0.0982 -1.1158,-0.27377 -1.1877,-0.39013 -0.072,-0.11636 -0.5634,-0.29274 -1.0923,-0.39196 -0.5288,-0.0992 -1.1552,-0.27729 -1.392,-0.39574 -0.8217,-0.41115 -5.1112,-1.42772 -8.5002,-2.01447 -6.8339,-1.18319 -15.8185,-1.18691 -24.1958,-0.01 -1.5933,0.22383 -2.9326,0.37129 -2.9762,0.32768 -0.1998,-0.19983 3.4679,-1.75579 4.1387,-1.75579 0.2991,0 0.5437,-0.11367 0.5437,-0.25259 0,-0.13893 0.4465,-0.33305 0.9922,-0.43138 0.5457,-0.0983 1.1113,-0.26857 1.2568,-0.37831 0.2556,-0.19279 1.1797,-0.43933 3.9687,-1.0588 0.7276,-0.16161 1.6887,-0.40537 2.1357,-0.54168 3.3467,-1.02047 17.2837,-1.08049 19.6925,-0.0848 0.2182,0.0902 1.1707,0.31975 2.1166,0.51006 3.3268,0.66934 4.3706,0.91333 4.8948,1.14417 0.2911,0.12817 1.4222,0.50316 2.5136,0.83331 1.0914,0.33015 2.0974,0.70231 2.2357,0.82703 0.1382,0.12471 0.4179,0.22675 0.6215,0.22675 0.2035,0 0.74525,0.16242 1.20381,0.36094 0.45855,0.19852 1.36952,0.57677 2.02436,0.84056 0.65484,0.26379 1.69011,0.69668 2.30059,0.96197 0.61048,0.2653 1.23556,0.48237 1.38906,0.48237 0.1535,0 0.2791,0.1096 0.2791,0.24356 0,0.13395 0.35719,0.32201 0.79375,0.41789 0.43656,0.0959 0.79375,0.27448 0.79375,0.39688 0,0.12239 0.35719,0.30099 0.79375,0.39687 0.43656,0.0959 0.79375,0.27448 0.79375,0.39688 0,0.12239 0.35719,0.30099 0.79375,0.39687 0.43656,0.0959 0.79375,0.27448 0.79375,0.39688 0,0.12239 0.35719,0.30099 0.79375,0.39687 0.43656,0.0959 0.79375,0.27104 0.79375,0.38922 0,0.11818 0.32623,0.29675 0.72495,0.39683 0.39873,0.10007 0.78568,0.26192 0.8599,0.35965 0.0742,0.0977 0.73025,0.46567 1.45786,0.81762 0.7276,0.35194 1.38278,0.70902 1.45595,0.7935 0.12337,0.14245 1.40016,0.85888 3.30655,1.85537 0.43656,0.22819 0.83344,0.50419 0.88194,0.61333 0.0485,0.10914 0.21153,0.19844 0.36227,0.19844 0.26728,0 3.38747,1.79993 3.65058,2.10589 0.0728,0.0846 0.42995,0.29623 0.79375,0.47025 0.3638,0.17403 1.25677,0.67951 1.98437,1.12329 0.72761,0.44378 1.65034,0.95016 2.05053,1.12527 0.40018,0.17512 0.7276,0.41136 0.7276,0.52498 0,0.11361 0.17009,0.20657 0.37798,0.20657 0.20788,0 0.53742,0.14883 0.7323,0.33073 0.19488,0.1819 0.91776,0.6259 1.6064,0.98666 0.68864,0.36077 1.25207,0.73826 1.25207,0.83888 0,0.10061 0.35719,0.26139 0.79375,0.35727 0.43656,0.09588 0.79375,0.271037 0.79375,0.38922 0,0.118183 0.32623,0.296756 0.72495,0.39683 0.39873,0.100073 0.78568,0.261881 0.8599,0.359572 0.20452,0.269206 4.10785,2.161675 4.45858,2.161675 0.16861,0 0.30657,0.119063 0.30657,0.264583 0,0.145521 0.12559,0.264584 0.2791,0.264584 0.27169,0 2.35544,0.853806 3.16917,1.298554 0.22306,0.121912 0.7886,0.30579 1.25677,0.408617 0.46816,0.102826 0.85121,0.29656 0.85121,0.430518 0,0.133958 0.26789,0.244294 0.59531,0.245191 0.32742,8.96e-4 0.91301,0.167381 1.30129,0.369965 0.38829,0.202584 1.19196,0.450441 1.78594,0.550793 0.59398,0.100352 1.07996,0.26545 1.07996,0.366884 0,0.177243 1.40032,0.523827 4.49792,1.113252 0.80036,0.152297 1.69333,0.382073 1.98437,0.510614 1.33636,0.59021 13.29849,1.478531 15.74271,1.169069 2.50957,-0.317735 3.95929,-2.891527 2.71198,-4.814753 -1.19,-1.834845 -0.90582,-1.764325 -7.87097,-1.953196 -6.35567,-0.172343 -9.33023,-0.447965 -11.18299,-1.036214 -3.10826,-0.986868 -5.59424,-1.971956 -5.88302,-2.331188 -0.0728,-0.09051 -0.60854,-0.40269 -1.19063,-0.69373 -2.58427,-1.29214 -6.74687,-6.53686 -6.74687,-8.50081 0,-0.28682 -0.14132,-0.66281 -0.31405,-0.83553 -0.40449,-0.4045 -0.44949,-6.09835 -0.0551,-6.96886 0.15653,-0.34547 0.56076,-1.46157 0.89829,-2.48022 0.33752,-1.01865 0.68639,-1.91161 0.77525,-1.98437 0.0889,-0.0728 0.3071,-0.42995 0.48498,-0.79375 0.98737,-2.01935 6.44336,-7.9375 7.31764,-7.9375 0.059,0 0.73994,-0.41672 1.51331,-0.92605 0.77337,-0.50932 1.55767,-0.92604 1.74289,-0.92604 0.18522,0 0.33676,-0.1096 0.33676,-0.24356 0,-0.13396 0.35719,-0.32201 0.79375,-0.4179 0.43656,-0.0959 0.79375,-0.27448 0.79375,-0.39687 0,-0.1224 0.38304,-0.30667 0.85121,-0.4095 0.46817,-0.10282 1.03371,-0.2839 1.25677,-0.40239 0.74899,-0.39788 4.05945,-1.30478 4.76283,-1.30478 0.38295,0 0.80938,-0.10705 0.94763,-0.23789 0.34213,-0.3238 4.08781,-0.66929 4.08781,-0.37705 0,0.12789 -0.32742,0.52733 -0.7276,0.88764 -0.98794,0.88952 -2.71198,3.05721 -2.71198,3.40985 0,0.15741 -0.098,0.2862 -0.21766,0.2862 -0.27833,0 -2.16359,3.74821 -2.16359,4.30159 0,0.22925 -0.14032,0.46359 -0.31182,0.52075 -0.21261,0.0709 -0.31784,1.03071 -0.33073,3.01675 -0.0241,3.70945 0.39749,4.64457 3.10204,6.88074 0.19958,0.16502 0.76964,0.38713 1.2668,0.49357 0.49715,0.10645 1.04634,0.30812 1.22042,0.44816 0.66991,0.53893 6.24675,-0.16794 8.36582,-1.06038 0.40966,-0.17252 0.90206,-0.31368 1.09424,-0.31368 0.19217,0 0.69044,-0.17786 1.10725,-0.39524 0.41682,-0.21739 1.01872,-0.39598 1.33755,-0.39688 0.31883,-8.9e-4 0.64762,-0.11153 0.73064,-0.24586 0.083,-0.13432 0.51478,-0.32414 0.95948,-0.42181 0.44469,-0.0977 1.12794,-0.34422 1.51832,-0.54789 0.39038,-0.20367 0.91814,-0.37104 1.1728,-0.37194 0.25466,-8.9e-4 0.46302,-0.10778 0.46302,-0.23753 0,-0.12974 0.32742,-0.31245 0.7276,-0.40601 0.40019,-0.0936 1.0848,-0.33577 1.52136,-0.53824 0.43656,-0.20248 1.27,-0.56361 1.85208,-0.80251 0.58208,-0.23891 1.29646,-0.53889 1.5875,-0.66662 0.29104,-0.12773 1.08818,-0.47687 1.77142,-0.77585 0.68324,-0.29899 1.42738,-0.54362 1.65365,-0.54362 0.22626,0 0.41139,-0.11906 0.41139,-0.26458 0,-0.14552 0.14883,-0.26862 0.33073,-0.27356 0.1819,-0.005 0.80698,-0.23903 1.38906,-0.52019 0.58208,-0.28117 1.25967,-0.51525 1.50574,-0.52019 0.24607,-0.005 0.51533,-0.11888 0.59835,-0.25321 0.083,-0.13432 0.53262,-0.32805 0.99912,-0.43051 0.46649,-0.10246 1.03067,-0.28179 1.25373,-0.3985 0.22306,-0.11672 1.29853,-0.46816 2.38994,-0.78098 1.0914,-0.31282 2.34156,-0.67503 2.77812,-0.8049 6.11379,-1.8188 15.22303,-1.70793 23.54792,0.2866 0.7276,0.17433 1.44198,0.40852 1.5875,0.52044 0.14552,0.11191 0.67739,0.2919 1.18194,0.39996 0.50455,0.10807 1.09986,0.29624 1.32292,0.41815 0.22305,0.12191 1.00087,0.46823 1.72847,0.7696 1.83613,0.76051 5.95658,2.8847 6.21751,3.20527 0.0729,0.0895 0.40038,0.24638 0.7278,0.34856 0.32743,0.10218 0.59532,0.29682 0.59532,0.43254 0,0.13571 0.18233,0.24675 0.40518,0.24675 0.22284,0 0.47371,0.1786 0.55747,0.39688 0.0838,0.21828 0.29993,0.39687 0.48038,0.39687 0.18044,0 0.61419,0.23592 0.96388,0.52426 1.07754,0.88852 1.13889,0.93594 2.07552,1.6042 1.33352,0.95143 2.12347,1.6022 3.1171,2.5679 0.48662,0.47294 0.9273,0.85989 0.97928,0.85989 0.052,0 0.85169,0.71342 1.77712,1.58538 1.05827,0.99712 1.51782,1.58617 1.23849,1.5875 -0.24427,0.001 -0.60146,-0.14671 -0.79375,-0.32861 -0.1923,-0.1819 -0.94494,-0.61879 -1.67255,-0.97088 -0.7276,-0.35208 -1.38245,-0.71208 -1.45521,-0.79999 -0.14624,-0.17671 -7.56535,-3.82953 -9.65729,-4.7548 -0.7276,-0.32182 -1.51662,-0.68858 -1.75336,-0.81501 -0.23675,-0.12644 -0.86183,-0.31082 -1.38907,-0.40973 -0.52723,-0.0989 -0.95861,-0.27213 -0.95861,-0.38493 0,-0.1128 -0.53578,-0.28544 -1.19063,-0.38364 -0.65484,-0.0982 -1.19062,-0.29031 -1.19062,-0.42692 0,-0.1366 -0.30148,-0.24837 -0.66996,-0.24837 -0.36847,0 -1.07434,-0.16896 -1.56859,-0.37547 -0.49425,-0.20651 -1.59175,-0.45933 -2.4389,-0.56182 -0.84714,-0.10248 -1.65932,-0.2794 -1.80484,-0.39314 -0.97662,-0.76335 -15.59132,-0.75866 -17.06563,0.005 -0.21828,0.11314 -1.05172,0.2904 -1.85208,0.39392 -0.80036,0.10351 -1.99099,0.34445 -2.64583,0.5354 -0.65485,0.19096 -1.905,0.54787 -2.77813,0.79314 -2.07267,0.58223 -3.85458,1.177 -4.42818,1.47804 -0.25269,0.13262 -0.60987,0.24517 -0.79375,0.25011 -0.18387,0.005 -0.81057,0.23902 -1.39265,0.52019 -0.58209,0.28116 -1.20878,0.51525 -1.39265,0.52018 -0.18388,0.005 -0.54107,0.12387 -0.79375,0.26428 -0.59382,0.32998 -2.90512,1.3322 -3.07229,1.3322 -0.0706,0 -0.90006,0.35719 -1.84325,0.79375 -0.9432,0.43656 -1.84447,0.79375 -2.00284,0.79375 -0.15836,0 -0.28793,0.1096 -0.28793,0.24356 0,0.13396 -0.36521,0.32378 -0.81157,0.42181 -0.44637,0.098 -1.13098,0.34489 -1.52136,0.54856 -0.39038,0.20367 -0.91814,0.37105 -1.1728,0.37194 -0.25466,9e-4 -0.46302,0.11023 -0.46302,0.24296 0,0.13273 -0.47563,0.32168 -1.05695,0.4199 -0.58132,0.0982 -1.11987,0.28039 -1.19679,0.40484 -0.0769,0.12445 -0.67285,0.3062 -1.3243,0.4039 -0.65145,0.0977 -1.18446,0.26964 -1.18446,0.38212 0,0.11247 -0.56555,0.2893 -1.25677,0.39294 -0.69123,0.10365 -1.44694,0.29021 -1.67936,0.41459 -1.55849,0.83399 -9.87646,0.86301 -11.52925,0.0402 -0.26597,-0.1324 -0.95983,-0.46085 -1.54191,-0.72988 -1.82984,-0.84573 -4.60257,-3.25769 -4.62185,-4.02048 -0.005,-0.1819 -0.10511,-0.33073 -0.22336,-0.33073 -0.3056,0 -1.3725,-2.53172 -1.3725,-3.2569 0,-0.33331 -0.12896,-0.73497 -0.28657,-0.89258 -0.32581,-0.32581 -0.19356,-3.53444 0.21884,-5.30937 0.30725,-1.32244 0.20218,-1.36431 -0.99597,-0.39688 -5.9876,4.83463 -7.58415,10.92407 -4.09568,15.6215 1.74773,2.3534 5.48838,4.94717 7.9375,5.50386 0.43657,0.0992 0.91282,0.26874 1.05834,0.37669 0.63127,0.46829 6.90458,1.05368 11.29161,1.05368 10.22743,0 16.5678,-1.38249 19.97884,-4.35628 0.17281,-0.15066 0.76257,-0.63111 1.31059,-1.06768 0.54802,-0.43656 1.17723,-1.00211 1.39825,-1.25677 0.22102,-0.25466 0.50014,-0.46302 0.62027,-0.46302 0.12013,0 0.48062,-0.28233 0.80109,-0.6274 0.77942,-0.83925 3.03463,-2.5476 3.3631,-2.5476 0.14426,0 0.26229,-0.10741 0.26229,-0.2387 0,-0.13128 0.32742,-0.37405 0.7276,-0.53948 0.40019,-0.16543 1.26339,-0.59256 1.91823,-0.94919 0.65485,-0.35663 1.38907,-0.64964 1.6316,-0.65114 0.24253,-0.002 0.4816,-0.12461 0.53125,-0.27356 0.0496,-0.14895 0.56558,-0.34596 1.14652,-0.43779 0.58094,-0.0918 1.14121,-0.29738 1.24504,-0.45678 0.28113,-0.43157 8.27951,-0.39402 8.71445,0.0409 0.1819,0.1819 0.5748,0.33147 0.87312,0.33236 0.29832,9e-4 0.88343,0.17949 1.30025,0.39688 0.41681,0.21738 0.87798,0.39524 1.02482,0.39524 0.14684,0 1.17503,0.55034 2.28486,1.22299 6.77078,4.10358 13.80835,12.2962 12.05976,14.03907 -0.52684,0.525114 -3.73871,0.639047 -4.05863,0.143969 -0.0893,-0.138231 -0.72518,-0.334269 -1.41302,-0.435629 -0.68783,-0.10137 -1.31144,-0.28275 -1.3858,-0.40307 -0.0744,-0.12032 -0.66968,-0.29892 -1.32292,-0.39688 -0.65324,-0.098 -1.24738,-0.27465 -1.32031,-0.39265 -0.0729,-0.118 -0.63534,-0.29493 -1.24981,-0.39319 -0.61447,-0.0983 -1.24218,-0.27812 -1.39492,-0.39969 -1.27173,-1.01221 -7.81834,-1.0113 -7.81834,10e-4 0,0.13374 -0.16038,0.24316 -0.35639,0.24316 -0.19602,0 -0.60672,0.20836 -0.91268,0.46302 -0.30596,0.25466 -0.85446,0.70115 -1.21888,0.99219 -0.36442,0.29104 -0.66809,0.612494 -0.67482,0.714339 -0.007,0.101845 -0.34887,0.697158 -0.76033,1.322917 -1.39346,2.119252 -1.75959,3.509686 -1.76265,6.693993 -0.006,5.881525 2.64187,8.573162 9.78679,9.949887 0.72761,0.1402 1.56104,0.35536 1.85208,0.478135 0.29105,0.122774 1.12448,0.347672 1.85209,0.499772 5.03976,1.053522 7.27604,1.861727 7.27604,2.6296 0,0.183277 0.11906,0.333231 0.26458,0.333231 1.12872,0 -0.65496,2.73269 -2.00481,3.071481 -0.35256,0.08849 -0.64102,0.254132 -0.64102,0.368102 0,0.11397 -0.32623,0.289096 -0.72495,0.389169 -0.39873,0.100074 -0.78568,0.269847 -0.8599,0.377273 -0.18005,0.260617 -5.11439,1.898667 -6.61723,2.196721 -3.03417,0.601756 -4.03762,0.700851 -6.87917,0.679345 -1.67349,-0.01267 -3.45895,-0.07323 -3.96769,-0.134594 z m -13.41805,-32.877038 c 0.0762,-0.29124 0.0305,-0.46281 -0.10144,-0.38126 -0.13194,0.0816 -0.2399,0.31984 -0.2399,0.52953 0,0.54762 0.17978,0.46953 0.34134,-0.14827 z m -54.75732,15.202277 c 0,-0.21188 0.0992,-0.385236 0.22049,-0.385236 0.12127,0 0.22049,0.112036 0.22049,0.248968 0,0.136933 -0.0992,0.310289 -0.22049,0.385237 -0.12127,0.07495 -0.22049,-0.03709 -0.22049,-0.248969 z M -1093.8512,-118.4571 c -0.071,-0.34296 -0.2004,-0.98075 -0.2885,-1.41732 -0.088,-0.43656 -0.2596,-1.24946 -0.3812,-1.80643 -0.2666,-1.22192 -0.4057,-1.15499 3.1551,-1.51848 1.528,-0.15597 4.326,-0.45015 6.2177,-0.65372 1.8918,-0.20357 4.9874,-0.50115 6.8792,-0.66128 1.8918,-0.16013 3.8563,-0.40082 4.3656,-0.53485 0.5093,-0.13403 2.3548,-0.36674 4.1011,-0.51713 1.7462,-0.15039 4.7228,-0.4408 6.6145,-0.64535 1.8918,-0.20454 4.9279,-0.50372 6.7469,-0.66483 1.819,-0.16112 3.8431,-0.40161 4.4979,-0.53444 0.6549,-0.13283 1.9646,-0.32041 2.9105,-0.41686 0.9458,-0.0965 1.8388,-0.26741 1.9843,-0.37992 0.1455,-0.11251 0.6813,-0.29305 1.1907,-0.40121 0.5093,-0.10816 1.1608,-0.36003 1.4479,-0.55972 0.287,-0.19969 0.7335,-0.36307 0.9922,-0.36307 0.2586,0 0.4703,-0.11906 0.4703,-0.26458 0,-0.14552 0.1358,-0.26458 0.3017,-0.26458 0.3516,0 2.6771,-1.10608 2.8759,-1.36785 0.074,-0.0977 0.4612,-0.25958 0.8599,-0.35965 0.3987,-0.10008 0.725,-0.27865 0.725,-0.39683 0,-0.11818 0.3572,-0.29333 0.7937,-0.38922 0.4366,-0.0959 0.7938,-0.28394 0.7938,-0.41789 0,-0.13396 0.1283,-0.24356 0.2852,-0.24356 0.1569,0 1.1392,-0.39985 2.1828,-0.88854 3.1174,-1.4597 3.8151,-1.7573 4.1204,-1.7573 0.1599,0 0.2907,-0.11367 0.2907,-0.25259 0,-0.13893 0.4168,-0.33077 0.9261,-0.42632 0.5093,-0.0956 0.926,-0.27008 0.926,-0.38784 0,-0.11777 0.3831,-0.29825 0.8512,-0.40108 0.4682,-0.10282 1.0337,-0.2867 1.2568,-0.40861 0.2231,-0.12192 1.0009,-0.46814 1.7285,-0.76939 0.7276,-0.30125 1.5296,-0.66261 1.7823,-0.80303 0.2527,-0.14042 0.6099,-0.25934 0.7938,-0.26428 0.1838,-0.005 0.8105,-0.23903 1.3926,-0.52019 0.5821,-0.28117 1.1936,-0.51525 1.3588,-0.52019 0.1653,-0.005 0.6416,-0.18684 1.0584,-0.40422 0.4168,-0.21739 0.9592,-0.39598 1.2052,-0.39688 0.2461,-8.9e-4 0.5146,-0.11033 0.5967,-0.24319 0.082,-0.13286 0.6243,-0.32181 1.2049,-0.4199 0.5805,-0.0981 1.1227,-0.28703 1.2048,-0.41989 0.082,-0.13286 0.3507,-0.2423 0.5967,-0.24319 0.2461,-9e-4 0.7799,-0.17504 1.1862,-0.38699 0.4064,-0.21194 1.1803,-0.46486 1.7198,-0.56203 0.5396,-0.0972 1.1001,-0.26957 1.2456,-0.38309 0.1455,-0.11353 0.7124,-0.29009 1.2597,-0.39237 0.5473,-0.10228 1.0561,-0.28465 1.1306,-0.40527 0.074,-0.12061 0.6701,-0.29945 1.3233,-0.39741 0.6532,-0.098 1.2464,-0.27307 1.3181,-0.38914 0.072,-0.11607 0.6358,-0.29438 1.2536,-0.39626 0.6177,-0.10188 1.2421,-0.27708 1.3876,-0.38935 0.1455,-0.11226 0.8004,-0.33083 1.45523,-0.4857 0.65484,-0.15488 1.905,-0.47822 2.77812,-0.71854 0.87313,-0.24032 2.18282,-0.57428 2.91042,-0.74215 0.72761,-0.16786 1.44882,-0.38691 1.6027,-0.48677 0.15388,-0.0999 0.9007,-0.26393 1.65959,-0.3646 0.75889,-0.10067 1.43853,-0.27807 1.51032,-0.39423 0.0718,-0.11615 0.81326,-0.29375 1.64771,-0.39465 0.83445,-0.1009 1.63624,-0.27668 1.78176,-0.39063 0.14553,-0.11394 0.8599,-0.28601 1.5875,-0.38237 0.72761,-0.0964 1.56105,-0.28085 1.85209,-0.40998 0.29104,-0.12914 1.24354,-0.35544 2.11666,-0.50289 0.87313,-0.14746 2.54,-0.45901 3.70417,-0.69234 1.16417,-0.23333 2.95011,-0.54545 3.96875,-0.6936 1.01865,-0.14815 2.04482,-0.36888 2.28038,-0.4905 0.23557,-0.12162 1.30713,-0.30466 2.38125,-0.40676 1.07413,-0.10209 2.07202,-0.27514 2.21754,-0.38456 0.14552,-0.10941 1.21708,-0.28104 2.38125,-0.38139 1.16416,-0.10035 2.47385,-0.29682 2.91041,-0.43661 0.43657,-0.13978 1.86532,-0.37496 3.175,-0.52262 1.30969,-0.14766 3.81,-0.44733 5.55625,-0.66593 1.74625,-0.2186 4.54422,-0.51747 6.21771,-0.66416 1.67349,-0.1467 3.45943,-0.37888 3.96875,-0.51597 0.94889,-0.2554 5.05318,-0.58252 13.22917,-1.0544 2.54661,-0.14698 5.52318,-0.38565 6.61458,-0.53039 7.9693,-1.05684 65.0875,-1.17735 65.0875,-0.13733 0,0.16546 -0.56974,0.90768 -1.26608,1.64939 -0.69635,0.7417 -1.73796,1.9278 -2.31471,2.63578 -1.54557,1.89727 -2.03887,2.48261 -2.7352,3.24557 -0.34509,0.37812 -0.81849,0.98515 -1.05198,1.34895 -0.23349,0.3638 -0.57622,0.75667 -0.76161,0.87304 -0.1854,0.11637 -0.33708,0.34085 -0.33708,0.49883 0,0.15798 -0.29766,0.5631 -0.66146,0.90026 -0.3638,0.33716 -0.66146,0.6772 -0.66146,0.75565 0,0.2313 -1.89106,2.65267 -2.1469,2.74895 -0.12889,0.0485 -0.23435,0.23842 -0.23435,0.42202 0,0.1836 -0.23813,0.54932 -0.52917,0.81271 -0.29104,0.26339 -0.52916,0.6291 -0.52916,0.81271 0,0.1836 -0.10665,0.3735 -0.23699,0.42201 -0.13034,0.0485 -1.33482,1.75507 -2.67662,3.79236 -1.3418,2.03729 -2.66391,4.02677 -2.93802,4.42106 -0.2741,0.39429 -0.49837,0.84077 -0.49837,0.99219 0,0.15141 -0.11907,0.27529 -0.26459,0.27529 -0.14552,0 -0.26458,0.17009 -0.26458,0.37798 0,0.95478 -0.75626,1.20952 -3.59077,1.20952 -1.51758,0 -2.75923,-0.0752 -2.75923,-0.16721 0,-0.26672 1.14674,-2.07277 1.37779,-2.16994 0.11534,-0.0485 0.20971,-0.22982 0.20971,-0.40291 0,-0.17309 0.41672,-0.94747 0.92604,-1.72084 0.50932,-0.77336 0.92604,-1.51479 0.92604,-1.64761 0,-0.13282 0.11907,-0.24149 0.26459,-0.24149 0.14552,0 0.26458,-0.13945 0.26458,-0.30989 0,-0.17045 0.19771,-0.52836 0.43935,-0.79538 0.74054,-0.81828 0.4807,-0.8344 -12.94015,-0.80265 -12.80879,0.0303 -17.98589,0.20895 -28.24503,0.97468 -7.56405,0.56457 -19.9777,1.79236 -21.43125,2.11969 -0.36381,0.0819 -1.73302,0.2641 -3.04271,0.40484 -3.79752,0.40806 -9.40405,1.18962 -16.00729,2.23143 -3.15632,0.49798 -9.27882,1.57045 -13.62605,2.38685 -1.16416,0.21863 -2.9501,0.54802 -3.96875,0.73199 -1.01864,0.18397 -1.97528,0.41497 -2.12586,0.51334 -0.15058,0.0984 -1.04355,0.26433 -1.98437,0.3688 -0.94083,0.10447 -1.77013,0.2758 -1.84289,0.38072 -0.0728,0.10493 -0.9062,0.32066 -1.85208,0.47942 -2.44548,0.41045 -4.84988,0.94426 -5.15938,1.14545 -0.14552,0.0946 -0.95076,0.25734 -1.78943,0.36165 -0.83867,0.10431 -1.58469,0.28647 -1.65782,0.4048 -0.0731,0.11833 -0.78593,0.29673 -1.584,0.39644 -0.79807,0.0997 -1.45104,0.27547 -1.45104,0.39056 0,0.1151 -0.62508,0.29331 -1.38906,0.39602 -0.76399,0.10271 -1.50812,0.28182 -1.65362,0.39802 -0.1455,0.11621 -0.7409,0.29478 -1.3229,0.39684 -0.9981,0.17498 -1.0282,0.16174 -0.5292,-0.2325 0.291,-0.22992 0.7971,-0.42183 1.1245,-0.42645 0.3274,-0.005 0.5953,-0.12019 0.5953,-0.25679 0,-0.1366 0.53576,-0.32872 1.1906,-0.42692 0.65485,-0.0982 1.19063,-0.27362 1.19063,-0.38983 0,-0.1162 0.50602,-0.29474 1.12448,-0.39675 0.61846,-0.102 1.24354,-0.2776 1.38906,-0.39021 0.14552,-0.11262 0.76998,-0.28811 1.38768,-0.38998 0.6177,-0.10188 1.18387,-0.28357 1.25815,-0.40377 0.0743,-0.1202 0.64046,-0.30189 1.25816,-0.40377 0.6177,-0.10188 1.24216,-0.27708 1.38768,-0.38935 0.25034,-0.19313 1.18258,-0.4434 4.23333,-1.13648 0.72761,-0.1653 1.38245,-0.37949 1.45521,-0.47599 0.0728,-0.0965 0.66807,-0.2563 1.32292,-0.35513 0.65484,-0.0988 1.42875,-0.28506 1.71979,-0.41385 0.51452,-0.22767 1.63568,-0.50485 4.63021,-1.1447 0.80036,-0.17102 1.57427,-0.38662 1.71979,-0.47913 0.14552,-0.0925 0.91943,-0.25466 1.71979,-0.36035 0.80036,-0.10569 1.57427,-0.28457 1.71979,-0.3975 0.14552,-0.11293 0.91943,-0.28486 1.71979,-0.38207 0.80037,-0.0972 1.69334,-0.28388 1.98438,-0.41485 0.29104,-0.13096 1.30307,-0.3701 2.24896,-0.53142 3.8033,-0.64866 5.44285,-0.96596 5.82083,-1.12651 0.21828,-0.0927 1.28984,-0.29077 2.38125,-0.44013 1.09141,-0.14936 3.11547,-0.45772 4.49792,-0.68526 4.0139,-0.66063 7.60411,-1.16438 10.45104,-1.4664 1.45521,-0.15437 3.06255,-0.39296 3.57187,-0.53018 0.90367,-0.24348 3.46425,-0.49838 10.45104,-1.04039 1.89178,-0.14676 4.09443,-0.38003 4.8948,-0.51839 0.80036,-0.13836 3.41974,-0.32159 5.82083,-0.40718 2.40109,-0.0856 5.08,-0.27078 5.95312,-0.41154 1.38389,-0.2231 7.29332,-0.40323 30.94444,-0.94322 l 5.27986,-0.12054 0.8838,-1.24565 c 0.48609,-0.68511 0.99742,-1.28533 1.13629,-1.33384 0.13887,-0.0485 0.25249,-0.23841 0.25249,-0.42201 0,-0.18361 0.23812,-0.54932 0.52917,-0.81271 0.29104,-0.26339 0.52916,-0.62911 0.52916,-0.81271 0,-0.1836 0.0965,-0.37351 0.21449,-0.42202 0.11797,-0.0485 0.84732,-0.92163 1.62079,-1.94027 0.77347,-1.01865 1.51039,-1.89177 1.6376,-1.94028 0.12721,-0.0485 0.23405,-0.2271 0.23743,-0.39688 0.003,-0.16977 0.42009,-0.76831 0.92604,-1.33008 0.50595,-0.56177 0.9199,-1.11407 0.9199,-1.22732 0,-1.32306 -46.36076,-0.48709 -65.74896,1.18557 -7.97166,0.68773 -12.43541,1.11687 -12.43541,1.19553 0,0.0412 -1.48828,0.23331 -3.30729,0.42702 -4.60646,0.49054 -11.26283,1.41999 -16.80105,2.34597 -1.30968,0.21898 -3.27421,0.53077 -4.36562,0.69286 -1.09141,0.16209 -2.2225,0.39792 -2.51354,0.52406 -0.29104,0.12613 -1.30307,0.3485 -2.24896,0.49415 -2.54127,0.3913 -5.36861,0.94955 -5.82083,1.14931 -0.21828,0.0964 -1.05172,0.29312 -1.85209,0.43713 -2.46978,0.44437 -4.61763,0.9327 -4.89479,1.11287 -0.14552,0.0946 -0.94919,0.25715 -1.78594,0.36122 -0.83674,0.10407 -1.52135,0.28287 -1.52135,0.39733 0,0.11447 -0.71438,0.29103 -1.5875,0.39237 -0.87313,0.10134 -1.5875,0.2779 -1.5875,0.39237 0,0.11446 -0.65297,0.2897 -1.45104,0.38941 -0.79807,0.0997 -1.51522,0.28515 -1.59367,0.41208 -0.0784,0.12692 -0.67709,0.31092 -1.33034,0.40888 -0.65324,0.098 -1.24591,0.27228 -1.31704,0.38738 -0.0711,0.11509 -0.72438,0.2911 -1.45164,0.39113 -0.7273,0.10003 -1.3848,0.2829 -1.4611,0.40638 -0.076,0.12348 -0.6718,0.30443 -1.3232,0.40213 -0.6515,0.0977 -1.1845,0.27269 -1.1845,0.3889 0,0.11621 -0.506,0.29474 -1.1244,0.39675 -0.6185,0.102 -1.2436,0.27731 -1.3891,0.38958 -0.1455,0.11226 -0.6813,0.29114 -1.1906,0.39751 -0.5094,0.10637 -1.0451,0.28496 -1.1907,0.39688 -0.1455,0.11191 -0.6595,0.28798 -1.1423,0.39126 -0.4827,0.10327 -1.1971,0.35441 -1.5875,0.55808 -0.3903,0.20367 -0.9776,0.37105 -1.3051,0.37194 -0.3274,9e-4 -0.5953,0.10744 -0.5953,0.23677 0,0.12933 -0.4117,0.31237 -0.9148,0.40677 -0.5032,0.0944 -1.2473,0.34504 -1.6537,0.55698 -0.4063,0.21194 -0.874,0.38609 -1.0392,0.38698 -0.1653,9e-4 -0.6416,0.17949 -1.0584,0.39688 -0.4168,0.21738 -0.9662,0.39598 -1.2208,0.39687 -0.2547,9e-4 -0.4631,0.11123 -0.4631,0.24519 0,0.13396 -0.3652,0.32378 -0.8115,0.42181 -0.4464,0.098 -1.131,0.34489 -1.5214,0.54856 -0.3904,0.20367 -0.9181,0.37105 -1.1728,0.37194 -0.2547,9e-4 -0.463,0.12069 -0.463,0.26622 0,0.14552 -0.1256,0.26458 -0.2791,0.26458 -0.2525,0 -1.2042,0.39005 -3.5974,1.47433 -0.4585,0.20776 -1.0241,0.37775 -1.2567,0.37775 -0.2327,0 -0.4231,0.1096 -0.4231,0.24356 0,0.13396 -0.3572,0.32202 -0.7937,0.4179 -0.4366,0.0959 -0.7938,0.28394 -0.7938,0.4179 0,0.13396 -0.1488,0.24414 -0.3307,0.24485 -0.1819,7.1e-4 -1.1416,0.41743 -2.1327,0.92604 -0.9911,0.50861 -1.9734,0.92475 -2.1828,0.92475 -0.2095,0 -0.3808,0.10616 -0.3808,0.2359 0,0.12975 -0.3263,0.31778 -0.725,0.41785 -0.3987,0.10008 -0.786,0.26181 -0.8606,0.35942 -0.2518,0.32926 -2.3523,1.36808 -2.7663,1.36808 -0.2259,0 -0.4106,0.0936 -0.4106,0.20805 0,0.11443 -0.8633,0.49715 -1.9183,0.8505 -1.055,0.35335 -2.0429,0.73055 -2.1954,0.83821 -0.4231,0.29887 -3.1308,0.76545 -6.0728,1.04645 -1.4552,0.13899 -3.1816,0.36291 -3.8365,0.49759 -0.6548,0.13469 -2.3217,0.31186 -3.7041,0.3937 -1.3825,0.0818 -3.1089,0.26729 -3.8365,0.41212 -0.7276,0.14482 -2.6921,0.38386 -4.3656,0.53118 -1.6735,0.14733 -4.6501,0.43701 -6.6146,0.64374 -1.9645,0.20673 -5.0006,0.50528 -6.7469,0.66345 -1.7462,0.15817 -3.7703,0.40427 -4.4979,0.54689 -0.7276,0.14262 -2.6326,0.3691 -4.2333,0.50329 -1.6008,0.13419 -3.292,0.32279 -3.7582,0.41912 -0.7438,0.15365 -0.8635,0.0987 -0.9762,-0.44843 z m 19.0396,-7.95554 c 0.2463,-0.77603 1.3511,-1.85076 2.4958,-2.428 1.2158,-0.61306 4.4466,-1.23014 10.8479,-2.07191 1.237,-0.16265 2.3085,-0.3798 2.3813,-0.48254 0.073,-0.10274 0.5472,-0.27691 1.0544,-0.38703 1.5944,-0.34618 3.1545,-1.61024 4.0388,-3.27223 0.5201,-0.97749 0.6838,-5.58986 0.1985,-5.58986 -0.1456,0 -0.2646,-0.21012 -0.2646,-0.46694 0,-0.25681 -0.2382,-0.91123 -0.5292,-1.45425 -0.291,-0.54302 -0.5292,-1.14402 -0.5292,-1.33556 0,-0.31823 2.2973,-1.50575 2.913,-1.50575 0.1441,0 0.262,-0.11906 0.262,-0.26458 0,-0.14552 0.1256,-0.26458 0.2791,-0.26458 0.2526,0 1.2043,-0.39005 3.5974,-1.47434 0.4585,-0.20776 1.0241,-0.37775 1.2568,-0.37775 0.2326,0 0.423,-0.11906 0.423,-0.26458 0,-0.14552 0.1256,-0.26458 0.2791,-0.26458 0.2525,0 1.2042,-0.39005 3.5973,-1.47434 0.4586,-0.20776 1.0241,-0.37775 1.2568,-0.37775 0.2327,0 0.423,-0.10615 0.423,-0.2359 0,-0.12974 0.3275,-0.31245 0.7276,-0.40601 0.4002,-0.0936 1.0848,-0.33206 1.5214,-0.52999 0.4366,-0.19794 1.0914,-0.48498 1.4552,-0.63788 0.3638,-0.15289 1.2205,-0.52262 1.9037,-0.8216 0.6833,-0.29899 1.4869,-0.54362 1.786,-0.54362 0.299,0 0.5436,-0.1096 0.5436,-0.24356 0,-0.13396 0.3652,-0.32377 0.8116,-0.42181 0.4464,-0.098 1.131,-0.34489 1.5214,-0.54856 0.3903,-0.20367 0.9111,-0.37104 1.1571,-0.37194 0.2461,-8.9e-4 0.5154,-0.11153 0.5984,-0.24586 0.083,-0.13432 0.5148,-0.32414 0.9595,-0.42181 0.4447,-0.0977 1.1279,-0.34422 1.5183,-0.54789 0.3904,-0.20367 0.845,-0.37104 1.0103,-0.37194 0.1652,-8.9e-4 0.6415,-0.17949 1.0583,-0.39687 0.4168,-0.21739 0.9592,-0.39598 1.2052,-0.39688 0.2461,-8.9e-4 0.5127,-0.10719 0.5924,-0.23622 0.08,-0.12902 0.558,-0.31207 1.0628,-0.40676 0.5048,-0.0947 1.2503,-0.34559 1.6566,-0.55754 0.4063,-0.21194 1.0067,-0.38608 1.3341,-0.38698 0.3274,-8.9e-4 0.5953,-0.1134 0.5953,-0.25 0,-0.1366 0.5358,-0.32872 1.1906,-0.42692 0.6549,-0.0982 1.1906,-0.27362 1.1906,-0.38983 0,-0.1162 0.486,-0.29339 1.08,-0.39374 0.594,-0.10035 1.3976,-0.34821 1.7859,-0.55079 0.3883,-0.20259 0.9669,-0.36907 1.2857,-0.36997 0.3188,-8.9e-4 0.6469,-0.11033 0.729,-0.24319 0.082,-0.13286 0.6426,-0.3249 1.2454,-0.42675 0.6029,-0.10186 1.4914,-0.35034 1.9745,-0.55219 0.4831,-0.20185 1.1799,-0.367 1.5483,-0.367 0.3685,0 0.67,-0.0992 0.67,-0.22034 0,-0.12119 0.6251,-0.35066 1.389,-0.50994 0.764,-0.15927 2.1035,-0.48718 2.9766,-0.72868 1.74589,-0.4829 4.16933,-1.05423 6.61459,-1.5594 0.87312,-0.18039 1.76609,-0.40436 1.98437,-0.49772 0.21828,-0.0934 1.23032,-0.2995 2.24896,-0.4581 1.01865,-0.15859 2.92365,-0.46657 4.23333,-0.68439 1.30969,-0.21781 3.39329,-0.50917 4.63021,-0.64745 1.23693,-0.13829 2.92945,-0.37404 3.76117,-0.52389 0.83171,-0.14986 3.68402,-0.34777 6.33847,-0.4398 2.69103,-0.0933 4.59726,-0.25691 4.30863,-0.3698 -0.36989,-0.14467 -0.19222,-0.20777 0.62245,-0.22106 0.69679,-0.0114 1.07651,0.0843 0.97657,0.24599 -0.0973,0.15746 0.21774,0.26458 0.77814,0.26458 0.51791,0 0.94166,-0.11906 0.94166,-0.26458 0,-0.15098 0.71002,-0.25326 1.65364,-0.23821 1.1399,0.0182 1.44815,0.0853 0.99219,0.21592 -0.3638,0.10425 1.76559,0.27537 4.73199,0.38026 5.3635,0.18966 6.38051,0.36604 6.38051,1.10655 0,0.21316 0.1096,0.38756 0.24356,0.38756 0.13396,0 0.32201,0.35719 0.4179,0.79375 0.0959,0.43656 0.27448,0.79375 0.39687,0.79375 0.1224,0 0.30099,0.35719 0.39688,0.79375 0.0959,0.43656 0.27448,0.79375 0.39687,0.79375 0.1224,0 0.30099,0.35719 0.39688,0.79375 0.0959,0.43656 0.27448,0.79375 0.39687,0.79375 0.1224,0 0.30099,0.35719 0.39688,0.79375 0.0959,0.43656 0.28394,0.79375 0.4179,0.79375 0.13395,0 0.24356,0.15059 0.24356,0.33465 0,0.18406 0.23812,0.77894 0.52916,1.32196 0.86092,1.60629 1.31584,1.40376 -4.89479,2.17904 -6.72284,0.83922 -12.72062,1.69846 -16.66875,2.38796 -4.78552,0.83575 -6.65809,1.17662 -8.73125,1.58939 -1.16417,0.23179 -2.89057,0.56298 -3.83646,0.73599 -0.94588,0.173 -1.83885,0.39195 -1.98437,0.48655 -0.14552,0.0946 -0.97896,0.25812 -1.85209,0.36338 -0.87312,0.10526 -1.70656,0.28427 -1.85208,0.39781 -0.14552,0.11354 -0.95076,0.29136 -1.78943,0.39515 -0.83867,0.1038 -1.58469,0.28553 -1.65782,0.40386 -0.0731,0.11833 -0.78751,0.29692 -1.5875,0.39688 -0.79999,0.1 -1.51437,0.27854 -1.5875,0.39687 -0.0731,0.11833 -0.78593,0.29673 -1.584,0.39644 -0.79807,0.0997 -1.45104,0.26673 -1.45104,0.37115 0,0.10442 -0.62508,0.31831 -1.38906,0.47532 -2.08474,0.42842 -3.71651,0.86866 -4.22177,1.13901 -0.2483,0.13286 -0.9356,0.31897 -1.5272,0.41358 -0.5917,0.0946 -1.1354,0.26856 -1.2084,0.38656 -0.073,0.118 -0.667,0.29469 -1.3203,0.39265 -0.6532,0.098 -1.2485,0.27656 -1.3229,0.39688 -0.074,0.12032 -0.6682,0.29869 -1.3197,0.39639 -0.6514,0.0977 -1.1844,0.27269 -1.1844,0.3889 0,0.11621 -0.486,0.29339 -1.08,0.39374 -0.594,0.10036 -1.3976,0.34821 -1.7859,0.5508 -0.3883,0.20258 -0.9739,0.36907 -1.3013,0.36996 -0.3274,9e-4 -0.5953,0.10744 -0.5953,0.23677 0,0.12933 -0.4465,0.31857 -0.9922,0.42055 -0.5457,0.10198 -1.1113,0.27406 -1.2568,0.3824 -0.1455,0.10835 -1.0691,0.46239 -2.0524,0.78678 -0.9834,0.32438 -2.1145,0.76013 -2.5136,0.96833 -0.3991,0.2082 -0.9935,0.37928 -1.321,0.38017 -0.3274,9e-4 -0.5953,0.11123 -0.5953,0.24519 0,0.13396 -0.3652,0.32378 -0.8115,0.42181 -0.4464,0.098 -1.131,0.34489 -1.5214,0.54856 -0.3904,0.20367 -0.9181,0.37105 -1.1728,0.37194 -0.2547,9e-4 -0.463,0.12069 -0.463,0.26622 0,0.14552 -0.1308,0.26458 -0.2908,0.26458 -0.1599,0 -0.6659,0.16999 -1.1244,0.37775 -2.5383,1.15005 -3.3586,1.47433 -3.7297,1.47433 -0.2262,0 -0.4114,0.1096 -0.4114,0.24356 0,0.13396 -0.3572,0.32202 -0.7937,0.4179 -0.4366,0.0959 -0.7938,0.28394 -0.7938,0.4179 0,0.13396 -0.1506,0.24356 -0.3346,0.24356 -0.1841,0 -0.7789,0.23812 -1.322,0.52917 -0.543,0.29104 -1.1663,0.52916 -1.3851,0.52916 -0.2188,0 -0.3978,0.11906 -0.3978,0.26459 0,0.14552 -0.138,0.26458 -0.3066,0.26458 -0.4037,0 -4.2981,1.92681 -4.4119,2.18281 -0.049,0.10914 -0.2066,0.19844 -0.3514,0.19844 -0.1447,0 -1.1296,0.41672 -2.1885,0.92604 -1.0589,0.50932 -2.0974,0.92604 -2.3076,0.92604 -0.2103,0 -0.4955,0.10862 -0.6337,0.24137 -0.3375,0.32411 -2.9135,0.75445 -7.3951,1.23545 -9.2149,0.98899 -10.7726,1.15037 -13.7584,1.42544 -1.7462,0.16087 -3.6827,0.40711 -4.3032,0.5472 -2.0589,0.46478 -3.0387,0.35008 -2.8228,-0.33039 z m 27.6312,-6.55865 c 0,-0.14552 0.1256,-0.26458 0.2791,-0.26458 0.2418,0 1.0666,-0.33136 3.2928,-1.32292 0.2911,-0.12963 1.1245,-0.48682 1.8521,-0.79375 0.7276,-0.30693 1.561,-0.66412 1.8521,-0.79375 0.291,-0.12963 1.1245,-0.48682 1.8521,-0.79375 0.7276,-0.30693 1.561,-0.66412 1.852,-0.79375 2.2303,-0.99336 3.0515,-1.32292 3.2964,-1.32292 0.1555,0 0.4894,-0.11488 0.7421,-0.2553 0.8328,-0.46277 2.9386,-1.3322 3.2267,-1.3322 0.1554,0 0.4894,-0.11488 0.7421,-0.2553 1.0994,-0.61096 2.9876,-1.3322 3.4876,-1.3322 0.299,0 0.5437,-0.11367 0.5437,-0.25259 0,-0.13893 0.418,-0.33102 0.9289,-0.42687 0.511,-0.0959 0.9943,-0.27984 1.074,-0.40887 0.08,-0.12902 0.3463,-0.23862 0.5924,-0.24356 0.2461,-0.005 0.9236,-0.23903 1.5057,-0.52019 0.5821,-0.28117 1.3263,-0.51525 1.6537,-0.52019 0.3274,-0.005 0.5953,-0.12075 0.5953,-0.25735 0,-0.1366 0.5358,-0.32872 1.1906,-0.42692 0.6549,-0.0982 1.1906,-0.27869 1.1906,-0.40109 0,-0.12241 0.4354,-0.30424 0.9676,-0.40407 0.5322,-0.0998 1.2763,-0.34263 1.6537,-0.53953 0.3773,-0.1969 0.8808,-0.35874 1.1188,-0.35964 0.238,-8.9e-4 0.7738,-0.17949 1.1906,-0.39687 0.4168,-0.21739 1.0187,-0.39598 1.3376,-0.39688 0.3188,-8.9e-4 0.649,-0.11381 0.7337,-0.25092 0.085,-0.13712 0.6871,-0.32923 1.3386,-0.42692 0.6514,-0.0977 1.1844,-0.2727 1.1844,-0.38891 0,-0.1162 0.5061,-0.2962 1.1245,-0.39999 1.226,-0.20576 2.2398,-0.76796 1.8354,-1.01788 -0.1397,-0.0864 -0.3377,-0.6048 -0.44,-1.15211 -0.1023,-0.54731 -0.2789,-1.11417 -0.3924,-1.25969 -0.1135,-0.14552 -0.2896,-0.72572 -0.3913,-1.28934 -0.1017,-0.56362 -0.2874,-1.21846 -0.4126,-1.45521 -0.1253,-0.23675 -0.4897,-1.27433 -0.8098,-2.30575 l -0.5821,-1.8753 -0.958,0.34233 c -0.5269,0.18829 -1.2189,0.34756 -1.5377,0.35395 -0.3189,0.006 -0.6464,0.11952 -0.7279,0.25141 -0.082,0.13189 -0.7433,0.32163 -1.4706,0.42166 -0.7272,0.10003 -1.3821,0.27862 -1.4552,0.39688 -0.073,0.11825 -0.7279,0.29684 -1.4552,0.39687 -0.7273,0.10003 -1.3826,0.27941 -1.4563,0.39864 -0.074,0.11923 -0.6193,0.29878 -1.2125,0.399 -0.5932,0.10022 -1.3963,0.34797 -1.7846,0.55056 -0.3883,0.20258 -0.9668,0.36907 -1.2857,0.36996 -0.3188,9e-4 -0.6476,0.11153 -0.7306,0.24586 -0.083,0.13432 -0.5148,0.32414 -0.9595,0.42181 -0.4447,0.0977 -1.1279,0.34422 -1.5183,0.54789 -0.3904,0.20367 -0.9181,0.37105 -1.1728,0.37194 -0.2547,9e-4 -0.463,0.12069 -0.463,0.26622 0,0.14552 -0.2084,0.26862 -0.463,0.27356 -0.2547,0.005 -0.9393,0.23902 -1.5214,0.52019 -0.5821,0.28116 -1.2667,0.51525 -1.5213,0.52018 -0.2547,0.005 -0.4631,0.11514 -0.4631,0.24488 0,0.12975 -0.3274,0.31608 -0.7276,0.41407 -0.4002,0.098 -1.3229,0.45451 -2.0505,0.79225 -2.8345,1.31573 -3.8181,1.73278 -4.0865,1.73278 -0.1535,0 -0.2791,0.10742 -0.2791,0.2387 0,0.13129 -0.3274,0.36769 -0.7276,0.52535 -0.8063,0.31764 -1.5759,0.78369 -2.1244,1.28647 -0.1985,0.1819 -0.4613,0.33073 -0.584,0.33073 -0.4421,0 -4.1778,3.48335 -5.4276,5.06093 -1.1574,1.46097 -2.8746,5.32007 -3.1758,7.13685 -0.1061,0.64003 -0.3023,1.37204 -0.4361,1.6267 -0.1814,0.3455 -0.14,0.46302 0.1631,0.46302 0.2234,0 0.4061,-0.11906 0.4061,-0.26458 z m 50.12325,-18.23146 c 0.0815,-0.13189 0.77315,-0.32382 1.53697,-0.4265 0.76382,-0.10269 1.50783,-0.28068 1.65335,-0.39554 0.14552,-0.11486 0.97896,-0.33642 1.85208,-0.49235 0.87313,-0.15593 2.48047,-0.47345 3.57188,-0.7056 1.09141,-0.23216 2.81781,-0.57654 3.83646,-0.76531 1.01864,-0.18876 2.14974,-0.42196 2.51354,-0.51821 0.3638,-0.0963 1.4949,-0.29721 2.51354,-0.44659 1.01865,-0.14937 3.04271,-0.45027 4.49792,-0.66866 4.35918,-0.6542 8.29513,-1.15385 11.37708,-1.44425 1.60073,-0.15084 3.50573,-0.38974 4.23333,-0.5309 0.72761,-0.14116 2.9898,-0.37608 5.02709,-0.52205 4.22089,-0.30241 5.95312,-0.51029 5.95312,-0.71441 0,-0.0779 -0.22723,-0.63096 -0.50496,-1.22898 -0.95474,-2.0558 -1.34712,-3.01996 -1.34712,-3.31011 0,-0.15991 -0.11906,-0.29075 -0.26458,-0.29075 -0.14552,0 -0.26459,-0.13083 -0.26459,-0.29074 0,-0.7578 -0.88298,-2.05554 -1.50477,-2.2116 -0.98419,-0.24701 -16.10237,-0.15937 -19.66189,0.11399 -4.54489,0.34903 -14.23211,1.60419 -14.68963,1.90331 -0.1484,0.097 -1.13331,0.2615 -2.18868,0.36549 -1.05537,0.104 -1.97699,0.28316 -2.04806,0.39814 -0.0711,0.11498 -0.93162,0.29375 -1.91235,0.39725 -0.98074,0.10351 -1.84269,0.27241 -1.91545,0.37533 -0.0728,0.10291 -0.84667,0.32 -1.71979,0.48242 -5.28604,0.98326 -5.74724,1.18063 -5.21464,2.23138 0.1674,0.33036 0.5524,1.37456 0.8554,2.32045 0.3031,0.94588 0.6388,1.89838 0.7461,2.11667 0.1072,0.21828 0.48784,1.31769 0.84574,2.44314 0.64068,2.01465 1.61024,2.80629 2.22291,1.81498 z m 37.45386,-14.61356 c 0,-0.12535 0.29766,-0.2279 0.66146,-0.2279 0.3638,0 0.66146,0.0457 0.66146,0.10145 0,0.0558 -0.29766,0.15835 -0.66146,0.22789 -0.3638,0.0696 -0.66146,0.0239 -0.66146,-0.10144 z m -4.82556,-0.15044 c 0.32912,-0.0633 0.80537,-0.0609 1.05834,0.005 0.25296,0.0662 -0.0163,0.118 -0.5984,0.11506 -0.58209,-0.003 -0.78906,-0.0571 -0.45994,-0.1204 z m -37.51505,34.39666 c -2.5994,-1.7916 -0.8909,-5.32295 2.07513,-4.28899 1.24098,0.43261 2.42447,3.15237 1.37173,3.15237 -0.14552,0 -0.26458,0.15292 -0.26458,0.33983 0,0.97177 -2.14808,1.50961 -3.18228,0.79679 z m 26.33332,-6.13923 c -3.00216,-1.28557 -1.30101,-5.77987 1.73617,-4.58683 1.10303,0.43329 1.98532,1.82207 1.70955,2.69096 -0.46201,1.45566 -2.21777,2.42169 -3.44572,1.89587 z m -88.56922,-4.36153 c -0.2547,-0.19332 -0.4631,-0.48719 -0.4631,-0.65305 0,-0.16586 -0.119,-0.30156 -0.2645,-0.30156 -0.5017,0 -0.316,-2.64437 0.1984,-2.82542 0.2547,-0.0896 0.9625,-0.38356 1.573,-0.65315 0.6105,-0.2696 1.2355,-0.49018 1.389,-0.49018 0.1535,0 0.2791,-0.11906 0.2791,-0.26458 0,-0.14552 0.1256,-0.26458 0.2791,-0.26458 0.3293,0 3.4882,-1.35975 5.318,-2.28914 0.3863,-0.19618 0.8923,-0.3567 1.1245,-0.3567 0.2322,0 0.4222,-0.11906 0.4222,-0.26458 0,-0.14552 0.1256,-0.26458 0.2791,-0.26458 0.2525,0 1.2042,-0.39005 3.5973,-1.47434 0.4586,-0.20776 1.0241,-0.37775 1.2568,-0.37775 0.2327,0 0.423,-0.11906 0.423,-0.26458 0,-0.14552 0.1256,-0.26458 0.2791,-0.26458 0.2717,0 2.3555,-0.85381 3.1692,-1.29856 0.2231,-0.12191 0.7886,-0.30579 1.2568,-0.40862 0.4681,-0.10282 0.8512,-0.2871 0.8512,-0.40949 0,-0.1224 0.3652,-0.30275 0.8116,-0.40079 0.4463,-0.098 1.1309,-0.34489 1.5213,-0.54856 0.3904,-0.20367 0.9182,-0.37104 1.1728,-0.37194 0.2547,-8.9e-4 0.463,-0.11123 0.463,-0.24519 0,-0.13396 0.3652,-0.32377 0.8116,-0.42181 0.4464,-0.098 1.131,-0.34489 1.5214,-0.54856 0.3903,-0.20367 0.9181,-0.37104 1.1728,-0.37194 0.2546,-8.9e-4 0.463,-0.11123 0.463,-0.24519 0,-0.13396 0.3652,-0.32377 0.8116,-0.42181 0.4463,-0.098 1.1309,-0.34489 1.5213,-0.54856 0.3904,-0.20367 0.9182,-0.37104 1.1728,-0.37194 0.2547,-8.9e-4 0.463,-0.10744 0.463,-0.23677 0,-0.12932 0.4117,-0.31237 0.9149,-0.40676 0.5032,-0.0944 1.2473,-0.34504 1.6536,-0.55699 0.4064,-0.21194 0.9402,-0.38608 1.1862,-0.38698 0.2461,-8.9e-4 0.5154,-0.11153 0.5984,-0.24586 0.083,-0.13432 0.5148,-0.32414 0.9595,-0.42181 0.4447,-0.0977 1.1279,-0.34422 1.5183,-0.54789 0.3904,-0.20367 0.9777,-0.37104 1.3051,-0.37194 0.3274,-8.9e-4 0.5953,-0.1153 0.5953,-0.25422 0,-0.13893 0.4465,-0.33305 0.9922,-0.43138 0.5457,-0.0983 1.1112,-0.26432 1.2567,-0.36888 0.1456,-0.10455 1.1576,-0.46301 2.249,-0.79657 1.0914,-0.33356 2.3596,-0.76827 2.8181,-0.96603 0.4586,-0.19775 1.0105,-0.35955 1.2265,-0.35955 0.2161,0 0.7339,-0.17786 1.1507,-0.39524 0.4168,-0.21739 1.0852,-0.39598 1.4854,-0.39688 0.4002,-8.9e-4 0.7276,-0.11023 0.7276,-0.24295 0,-0.13273 0.5015,-0.32605 1.1143,-0.42959 0.6129,-0.10355 1.2975,-0.28448 1.5214,-0.40209 0.2239,-0.1176 0.8833,-0.33515 1.4654,-0.48344 2.8569,-0.72781 3.4729,-0.9038 3.8795,-1.10834 0.242,-0.1217 1.0456,-0.30163 1.7859,-0.39984 0.7403,-0.0982 1.34603,-0.27058 1.34603,-0.38307 0,-0.11248 0.71437,-0.28743 1.5875,-0.38877 0.87312,-0.10133 1.5875,-0.27194 1.5875,-0.37911 0,-0.18212 0.58102,-0.3088 5.02708,-1.09606 0.94589,-0.16749 1.95792,-0.40696 2.24896,-0.53215 0.50995,-0.21936 1.52901,-0.3932 6.08542,-1.03806 1.16416,-0.16476 2.48168,-0.40993 2.92782,-0.54482 2.53319,-0.76592 23.63454,-0.76742 26.17634,-0.002 0.43657,0.13149 2.02577,0.31514 3.53157,0.40811 3.25007,0.20067 3.67283,0.40883 3.89945,1.9201 0.0933,0.62236 0.26172,1.13157 0.3742,1.13157 0.11249,0 0.25769,0.36233 0.32269,0.80517 l 0.11817,0.80517 -2.93241,-0.169 c -1.61283,-0.093 -3.3741,-0.27998 -3.91393,-0.41562 -1.06528,-0.26766 -21.23144,-0.3524 -21.65441,-0.091 -0.14185,0.0877 -2.01243,0.32448 -4.15683,0.52625 -5.69426,0.53578 -11.16607,1.47761 -18.3187,3.15308 -0.94589,0.22157 -2.37464,0.55442 -3.175,0.73967 -0.80035,0.18525 -1.57425,0.41407 -1.71975,0.50849 -0.1456,0.0944 -0.8316,0.25654 -1.5246,0.36026 -0.6931,0.10372 -1.3252,0.29391 -1.4047,0.42264 -0.08,0.12872 -0.3788,0.23405 -0.6648,0.23405 -0.2861,0 -1.1977,0.23812 -2.0258,0.52917 -0.828,0.29104 -1.7776,0.52916 -2.11,0.52916 -0.3325,0 -0.6045,0.1086 -0.6045,0.24133 0,0.13273 -0.5015,0.32604 -1.1143,0.42959 -0.6129,0.10354 -1.2975,0.28417 -1.5214,0.4014 -0.2239,0.11723 -1.3,0.47275 -2.3914,0.79006 -1.0914,0.3173 -2.1911,0.68292 -2.4438,0.81248 -0.2527,0.12956 -0.6099,0.23629 -0.7938,0.23719 -0.1838,9e-4 -0.6537,0.16827 -1.0441,0.37194 -0.3903,0.20367 -1.083,0.45228 -1.5391,0.55247 -0.4562,0.10019 -1.1488,0.3488 -1.5392,0.55247 -0.3904,0.20367 -0.9777,0.37105 -1.3051,0.37194 -0.3274,9e-4 -0.5953,0.10744 -0.5953,0.23677 0,0.12933 -0.4117,0.31237 -0.9149,0.40677 -0.5032,0.0944 -1.2473,0.34504 -1.6536,0.55698 -0.4064,0.21194 -0.874,0.38609 -1.0393,0.38698 -0.1653,9e-4 -0.6415,0.17949 -1.0583,0.39688 -0.4168,0.21738 -0.9662,0.39598 -1.2209,0.39687 -0.2547,9e-4 -0.463,0.0943 -0.463,0.20751 0,0.11323 -0.893,0.489 -1.9844,0.83503 -1.0914,0.34604 -1.9844,0.71639 -1.9844,0.82301 0,0.10662 -0.4313,0.27478 -0.9586,0.37369 -0.5272,0.0989 -1.1523,0.28658 -1.389,0.41704 -0.2368,0.13047 -1.0258,0.48811 -1.7534,0.79478 -0.7276,0.30666 -1.6981,0.72756 -2.1567,0.93532 -0.4585,0.20776 -1.0241,0.37775 -1.2567,0.37775 -0.2327,0 -0.4231,0.11367 -0.4231,0.2526 0,0.13892 -0.4167,0.33077 -0.926,0.42632 -0.5093,0.0956 -0.926,0.27008 -0.926,0.38784 0,0.11776 -0.3653,0.29433 -0.8116,0.39236 -0.4464,0.098 -1.131,0.34489 -1.5214,0.54856 -0.3904,0.20367 -0.8586,0.37105 -1.0405,0.37194 -0.1819,9e-4 -0.3307,0.1153 -0.3307,0.25423 0,0.13892 -0.4167,0.33077 -0.9261,0.42632 -0.5093,0.0956 -0.926,0.27954 -0.926,0.40886 0,0.12933 -0.1488,0.23918 -0.3307,0.24412 -0.1819,0.005 -0.807,0.23902 -1.3891,0.52019 -0.5821,0.28116 -1.2667,0.51525 -1.5213,0.52018 -0.2547,0.005 -0.4631,0.12804 -0.4631,0.27357 0,0.14552 -0.1256,0.26458 -0.2791,0.26458 -0.3164,0 -2.4086,0.88502 -3.4659,1.46611 -0.3862,0.21228 -0.8309,0.38597 -0.9882,0.38597 -0.1572,0 -0.8664,0.35719 -1.5759,0.79375 -0.7095,0.43656 -1.5447,0.79375 -1.8561,0.79375 -0.3113,0 -0.566,0.11906 -0.566,0.26459 0,0.38331 -1.3746,0.30898 -1.9182,-0.10373 z m 114.63068,-0.79237 c -1.76709,-0.77691 -2.14818,-2.81726 -0.78148,-4.18397 1.48239,-1.48239 3.96719,-0.31633 3.94768,1.85255 -0.0153,1.69646 -1.73319,2.96145 -3.1662,2.33142 z m 27.18594,-3.66154 c -1.60625,-1.87195 0.50955,-4.96654 2.66025,-3.89092 1.33299,0.66666 2.43978,3.42147 1.37464,3.42147 -0.14552,0 -0.26458,0.1786 -0.26458,0.39688 0,0.21828 -0.17859,0.39687 -0.39688,0.39687 -0.21828,0 -0.39687,0.11906 -0.39687,0.26459 0,0.70482 -2.24813,0.26005 -2.97656,-0.58889 z m 30.68896,-0.61245 c -1.1957,-1.10871 -1.00409,-3.26638 0.35236,-3.96783 2.31307,-1.19613 4.74525,1.42138 3.27336,3.52279 -0.22653,0.32342 -0.58372,0.58804 -0.79375,0.58804 -0.21003,0 -0.38187,0.11906 -0.38187,0.26459 0,0.5535 -1.72266,0.26693 -2.4501,-0.40759 z m -160.79778,-6.95051 c 0,-0.88358 0.1034,-1.67043 0.2298,-1.74855 0.1264,-0.0781 0.3064,-0.62093 0.4,-1.20624 0.094,-0.58531 0.2878,-1.0642 0.4316,-1.0642 0.1438,0 0.2615,-0.15666 0.2615,-0.34813 0,-0.19148 0.5577,-0.90585 1.2393,-1.5875 0.6817,-0.68165 1.3961,-1.23937 1.5875,-1.23937 0.1915,0 0.3482,-0.11906 0.3482,-0.26458 0,-0.14552 0.1701,-0.26458 0.378,-0.26458 0.4774,0 1.2591,-0.76406 1.0793,-1.05499 -0.074,-0.12022 0.1049,-0.1558 0.3983,-0.0791 0.4019,0.10508 0.4947,0.0385 0.3764,-0.26995 -0.1156,-0.30107 -0.026,-0.37524 0.3372,-0.28019 0.2919,0.0763 0.6964,-0.0941 0.9879,-0.41618 0.2715,-0.3 0.5919,-0.54545 0.712,-0.54545 0.3471,0 4.054,-3.86306 4.8912,-5.09717 0.418,-0.61629 0.8199,-1.18007 0.8931,-1.25283 0.3964,-0.39416 1.3237,-1.86947 1.3237,-2.10595 0,-0.15141 0.119,-0.2753 0.2646,-0.2753 0.1455,0 0.2645,-0.12388 0.2645,-0.27529 0,-0.26025 1.0033,-1.82142 1.3534,-2.10596 0.09,-0.0728 0.2464,-0.40018 0.3486,-0.7276 0.1022,-0.32742 0.2968,-0.59531 0.4325,-0.59531 0.1357,0 0.2468,-0.17268 0.2468,-0.38373 0,-0.21105 0.1488,-0.47894 0.3307,-0.59531 0.1819,-0.11638 0.5653,-0.67185 0.8519,-1.2344 0.2867,-0.56254 0.6736,-1.08129 0.8599,-1.15278 0.1863,-0.0715 0.3387,-0.23528 0.3387,-0.36397 0,-0.67664 6.0963,-7.63971 6.6934,-7.64502 0.1161,-0.001 0.4869,-0.29953 0.8241,-0.66334 0.3371,-0.3638 0.7297,-0.66145 0.8724,-0.66145 0.1426,0 0.4749,-0.23813 0.7383,-0.52917 0.2633,-0.29104 0.6291,-0.52917 0.8127,-0.52917 0.1836,0 0.3735,-0.0905 0.422,-0.2012 0.116,-0.26473 3.9772,-2.18005 4.3948,-2.18005 0.178,0 0.3236,-0.10581 0.3236,-0.23514 0,-0.12932 0.4117,-0.31237 0.9149,-0.40676 0.5031,-0.0944 1.2473,-0.34504 1.6536,-0.55699 0.4063,-0.21194 1.0592,-0.38608 1.4508,-0.38698 0.3916,-8.9e-4 0.7804,-0.11236 0.864,-0.24769 0.084,-0.13534 0.8348,-0.32183 1.6693,-0.41443 0.8344,-0.0926 1.7553,-0.27826 2.0463,-0.41259 0.5247,-0.24215 2.5361,-0.56712 6.6146,-1.06866 1.16419,-0.14316 2.64,-0.37884 3.2796,-0.52374 4.66315,-1.05644 26.75063,-0.81725 26.75063,0.28968 0,0.27087 0.1099,0.56041 0.24423,0.64343 0.13432,0.083 0.32238,0.50676 0.41789,0.94166 0.0955,0.43489 0.27037,0.79071 0.38855,0.79071 0.11819,0 0.29143,0.32742 0.38499,0.72761 0.0936,0.40018 0.33577,1.08479 0.53825,1.52135 0.20247,0.43656 0.56433,1.27 0.80413,1.85208 0.2398,0.58209 0.59328,1.41552 0.7855,1.85209 0.19223,0.43656 0.4746,1.0914 0.62749,1.45521 0.88867,2.11451 1.42163,3.36907 1.6298,3.83645 1.03949,2.33385 1.32292,3.06765 1.32292,3.42507 0,0.22627 0.11906,0.41139 0.26458,0.41139 0.14552,0 0.26863,0.14883 0.27356,0.33073 0.005,0.1819 0.23903,0.80698 0.52019,1.38906 1.04626,2.16602 1.12126,2.1268 -3.90226,2.04076 -4.84434,-0.083 -10.36071,0.2439 -14.48628,0.85839 -5.08373,0.75721 -6.8812,1.07094 -7.15295,1.24846 -0.15058,0.0984 -1.04354,0.26271 -1.98437,0.36521 -0.94083,0.10249 -1.82966,0.27656 -1.97518,0.38683 -0.14552,0.11026 -0.91943,0.28667 -1.71979,0.39202 -0.80036,0.10535 -1.57427,0.2829 -1.71979,0.39456 -0.14552,0.11166 -0.91943,0.33256 -1.71979,0.49088 -2.32542,0.45999 -4.3441,0.95507 -4.6302,1.13556 -0.1455,0.0918 -0.8004,0.25365 -1.4552,0.35965 -0.6549,0.106 -1.3097,0.28457 -1.4552,0.39684 -0.1455,0.11226 -0.6813,0.28484 -1.1906,0.3835 -0.5094,0.0987 -1.2237,0.28013 -1.5875,0.40327 -0.3639,0.12313 -1.5545,0.48967 -2.6459,0.81453 -1.0914,0.32485 -2.3595,0.75245 -2.8181,0.9502 -0.4585,0.19775 -1.1432,0.35955 -1.5213,0.35955 -0.3782,0 -0.6877,0.11177 -0.6877,0.24837 0,0.13661 -0.5357,0.32872 -1.1906,0.42692 -0.6548,0.0982 -1.1906,0.27084 -1.1906,0.38364 0,0.1128 -0.4117,0.28233 -0.9149,0.37673 -0.5032,0.0944 -1.2473,0.34504 -1.6536,0.55698 -0.4064,0.21194 -0.9997,0.38609 -1.3185,0.38698 -0.3188,9e-4 -0.6476,0.11153 -0.7306,0.24586 -0.083,0.13432 -0.5148,0.32414 -0.9595,0.42181 -0.4447,0.0977 -1.128,0.34422 -1.5183,0.54789 -0.3904,0.20367 -0.845,0.37105 -1.0103,0.37194 -0.1653,9e-4 -0.6415,0.17949 -1.0583,0.39688 -0.4169,0.21738 -1.0258,0.39598 -1.3532,0.39687 -0.3274,9e-4 -0.5953,0.11123 -0.5953,0.24519 0,0.13396 -0.3652,0.32378 -0.8116,0.42181 -0.4464,0.098 -1.131,0.34489 -1.5213,0.54856 -0.3904,0.20367 -0.9112,0.37105 -1.1572,0.37194 -0.2461,9e-4 -0.5154,0.11153 -0.5984,0.24586 -0.083,0.13432 -0.5326,0.32806 -0.9991,0.43052 -0.4665,0.10246 -1.0307,0.28604 -1.2537,0.40795 -0.8186,0.44737 -2.8983,1.29855 -3.1728,1.29855 -0.1555,0 -0.4894,0.11489 -0.7421,0.25531 -0.2527,0.14041 -1.0548,0.5062 -1.7824,0.81287 -0.7276,0.30666 -1.6981,0.72756 -2.1566,0.93532 -0.4586,0.20776 -1.0241,0.37775 -1.2568,0.37775 -0.2326,0 -0.423,0.11906 -0.423,0.26459 0,0.14552 -0.1488,0.26862 -0.3307,0.27356 -0.1819,0.005 -0.807,0.23902 -1.3891,0.52019 -0.5821,0.28116 -1.2597,0.51525 -1.5057,0.52018 -0.2461,0.005 -0.5129,0.11485 -0.5929,0.24426 -0.08,0.1294 -0.4727,0.31743 -0.8728,0.41785 -0.4001,0.10042 -0.7978,0.29642 -0.8838,0.43556 -0.086,0.13914 -0.5932,0.32387 -1.1272,0.41051 l -0.9707,0.15754 z m 18.7413,-16.25597 c 0.049,-0.10914 0.2275,-0.19843 0.3977,-0.19843 0.1702,0 0.8957,-0.41672 1.612,-0.92605 0.7164,-0.50932 1.4502,-0.92604 1.6308,-0.92604 0.1805,0 0.3679,-0.0956 0.4164,-0.21239 0.1212,-0.29168 3.2617,-2.16886 3.6286,-2.16886 0.1628,0 0.2961,-0.1096 0.2961,-0.24356 0,-0.13396 0.3572,-0.32201 0.7937,-0.4179 0.4366,-0.0959 0.7938,-0.27448 0.7938,-0.39687 0,-0.1224 0.3572,-0.30099 0.7937,-0.39688 0.4366,-0.0959 0.7938,-0.27448 0.7938,-0.39687 0,-0.1224 0.3572,-0.30099 0.7937,-0.39688 0.4366,-0.0959 0.7938,-0.27103 0.7938,-0.38921 0,-0.11818 0.3274,-0.29143 0.7276,-0.38499 0.4002,-0.0936 1.0848,-0.33577 1.5213,-0.53824 1.6453,-0.76305 2.7344,-1.2011 2.9863,-1.2011 0.1433,0 0.6016,-0.17786 1.0184,-0.39524 0.4168,-0.21739 0.9662,-0.39598 1.2209,-0.39688 0.2546,-8.9e-4 0.463,-0.12069 0.463,-0.26621 0,-0.14552 0.1913,-0.26458 0.4252,-0.26458 0.3042,0 0.3686,-0.13169 0.2264,-0.46303 -0.1093,-0.25466 -0.3312,-0.93927 -0.4931,-1.52135 -0.1619,-0.58208 -0.3785,-1.18875 -0.4813,-1.34815 -0.1029,-0.1594 -0.2661,-0.78448 -0.3628,-1.38907 -0.097,-0.60458 -0.2796,-1.09924 -0.4066,-1.09924 -0.1269,0 -0.2307,-0.22445 -0.2307,-0.49878 0,-0.41651 -0.7567,-3.14865 -0.9478,-3.42215 -0.033,-0.0465 -0.279,0.0382 -0.5478,0.18813 -0.2689,0.14993 -1.1437,0.5818 -1.944,0.95971 -0.8004,0.3779 -1.8124,0.91701 -2.249,1.19801 -0.4365,0.28101 -0.9723,0.59284 -1.1906,0.69297 -0.2183,0.10013 -0.4564,0.25061 -0.5292,0.33439 -0.073,0.0838 -0.6365,0.49439 -1.2528,0.91245 -1.0474,0.71049 -5.0972,4.52223 -5.0972,4.79756 0,0.21861 -1.9028,2.63927 -2.1469,2.73111 -0.1289,0.0485 -0.2343,0.24837 -0.2343,0.44413 0,0.19576 -0.1488,0.51829 -0.3307,0.71673 -0.4931,0.53792 -0.9733,1.3082 -1.3244,2.12439 -0.1722,0.40018 -0.406,0.7276 -0.5196,0.7276 -0.1136,0 -0.2066,0.17009 -0.2066,0.37798 0,0.20789 -0.1488,0.53712 -0.3307,0.73164 -0.1819,0.19451 -0.5688,0.81934 -0.8599,1.38851 -0.291,0.56916 -0.6482,1.1684 -0.7937,1.33164 -0.1456,0.16323 -0.5458,0.81403 -0.8895,1.4462 l -0.6249,1.14942 1.2863,-0.89759 c 0.7075,-0.49367 1.3261,-0.98689 1.3746,-1.09603 z m 28.2222,-12.21078 c 0.8731,-0.1814 1.7661,-0.40422 1.9844,-0.49515 0.3973,-0.16551 2.3308,-0.51866 5.55623,-1.01484 0.94589,-0.14551 2.07698,-0.37239 2.51354,-0.50419 0.43656,-0.13179 1.62719,-0.30975 2.64583,-0.39547 1.01865,-0.0857 2.26881,-0.27152 2.77813,-0.41289 1.75577,-0.48736 12.66589,-1.20837 17.92558,-1.18464 1.49162,0.007 2.71202,-0.004 2.71198,-0.0237 -3e-5,-0.0197 -0.17792,-0.37693 -0.39531,-0.79375 -0.21738,-0.41681 -0.39597,-0.96621 -0.39687,-1.22087 -9e-4,-0.25466 -0.11123,-0.46302 -0.24519,-0.46302 -0.13396,0 -0.32377,-0.36521 -0.42181,-0.81157 -0.098,-0.44636 -0.34489,-1.13097 -0.54856,-1.52135 -0.20367,-0.39038 -0.37104,-0.91815 -0.37194,-1.17281 -9e-4,-0.25466 -0.11123,-0.46302 -0.24519,-0.46302 -0.13396,0 -0.32707,-0.38021 -0.42913,-0.84491 -0.35439,-1.61351 -0.0197,-1.56633 -10.23215,-1.44241 -8.84347,0.10731 -11.31598,0.26973 -18.72844,1.23029 -1.237,0.16029 -2.4871,0.39892 -2.7782,0.53029 -0.291,0.13137 -1.2435,0.35869 -2.1166,0.50515 -1.9994,0.3354 -4.6001,0.91983 -5.2917,1.18919 -0.291,0.11335 -0.6703,0.24748 -0.8427,0.29808 -0.351,0.103 -0.074,1.47209 0.595,2.93993 0.209,0.45856 0.38,1.08364 0.38,1.38907 0,0.30543 0.1058,0.55532 0.2351,0.55532 0.1293,0 0.3124,0.41169 0.4068,0.91487 0.094,0.50317 0.345,1.24731 0.557,1.65364 0.2119,0.40633 0.3861,0.98286 0.387,1.28118 0,0.90181 0.443,1.12702 1.6699,0.85417 0.6104,-0.13574 1.8242,-0.39522 2.6973,-0.57662 z"
       id="path22" /></g></svg>
