<?xml version="1.0" encoding="UTF-8" standalone="no"?>
<!-- Created with Inkscape (http://www.inkscape.org/) -->

<svg
   width="137.96497mm"
   height="51.312325mm"
   viewBox="0 0 137.96497 51.312325"
   version="1.1"
   id="svg1"
   xml:space="preserve"
   xmlns="http://www.w3.org/2000/svg"
   xmlns:svg="http://www.w3.org/2000/svg"><defs
     id="defs1" /><g
     id="layer1"
     transform="translate(-32.361398,-203.0465)"><path
       style="fill:#8b8b8b;fill-opacity:1;stroke-width:0.346935"
       d="m 32.361398,228.70267 v -25.65616 h 68.982482 68.9825 v 25.65616 25.65616 h -68.9825 -68.982482 z m 137.506012,0 V 203.50548 H 101.34388 32.820361 v 25.19719 25.1972 h 68.523519 68.52353 z M 36.124911,228.47319 v -21.57137 h 65.173079 65.17308 v 21.57137 21.57137 H 101.29799 36.124911 Z m 111.826329,1.30805 0.0235,-6.95333 2.45547,-0.0245 2.45546,-0.0245 v -1.14592 -1.14591 h -6.05834 -6.05835 v 1.14741 1.14742 h 2.47842 2.47841 v 6.97628 6.97626 h 1.10095 1.10093 z m -94.638776,1.17032 0.0236,-5.69121 2.097768,3.12101 2.097768,3.121 h 0.66154 0.661548 l 2.105722,-3.12719 2.105715,-3.12719 0.02367,5.6974 0.0236,5.69739 h 1.14672 1.146719 v -8.07778 -8.0778 H 64.499492 63.59215 l -2.684425,3.95363 c -1.47643,2.1745 -2.716178,3.91971 -2.754996,3.87825 -0.03883,-0.0414 -1.254739,-1.82058 -2.702039,-3.95362 l -2.63146,-3.87826 h -0.911954 -0.91196 v 8.0778 8.07778 h 1.146719 1.14672 z m 34.12477,4.59073 v -1.10049 l -3.740564,-0.024 -3.740572,-0.024 -0.02455,-2.31778 -0.02455,-2.31777 h 3.673301 3.673293 v -1.14741 -1.14742 h -3.67172 -3.67172 v -2.34072 -2.34073 h 3.76351 3.763517 v -1.10151 -1.10152 h -4.910925 -4.910929 v 8.0319 8.03188 h 4.910929 4.910929 z m 13.860756,-5.83581 v -6.93628 l 2.22598,0.0289 c 2.1787,0.0283 2.23684,0.0339 2.73696,0.2685 2.25769,1.05884 2.15488,4.3541 -0.16291,5.2213 -0.42796,0.16013 -0.71514,0.18432 -2.18737,0.18432 h -1.69473 v 0.53936 0.53937 l 2.9433,3.54543 2.9433,3.54543 h 1.47877 1.47877 l -0.1849,-0.20653 c -0.1017,-0.1136 -1.16883,-1.38379 -2.37141,-2.82264 -1.20258,-1.43886 -2.26871,-2.70797 -2.36916,-2.82024 -0.14288,-0.1597 -0.15468,-0.21161 -0.0541,-0.23842 2.69983,-0.72021 4.06103,-2.37178 4.06103,-4.92734 0,-2.38382 -1.37892,-4.26056 -3.62329,-4.9314 -0.4031,-0.12049 -1.12382,-0.15417 -3.95803,-0.18497 l -3.465185,-0.0377 v 8.0846 8.08461 h 1.101515 1.10152 z m 28.18047,5.83705 v -1.09925 l -1.49164,-0.0252 -1.49163,-0.0252 -0.0236,-5.80591 -0.0236,-5.80591 h 1.51526 1.51527 v -1.10152 -1.10152 h -4.13068 -4.13069 v 1.10152 1.10152 h 1.46868 1.4687 v 5.82885 5.82887 h -1.4687 -1.46868 v 1.10151 1.10152 h 4.13069 4.13068 z"
       id="path18" /></g></svg>
