<?xml version="1.0" encoding="UTF-8" standalone="no"?>
<!-- Created with Inkscape (http://www.inkscape.org/) -->

<svg
   width="146.98209mm"
   height="27.001204mm"
   viewBox="0 0 146.98209 27.001204"
   version="1.1"
   id="svg1"
   xml:space="preserve"
   xmlns="http://www.w3.org/2000/svg"
   xmlns:svg="http://www.w3.org/2000/svg"><defs
     id="defs1" /><g
     id="layer1"
     transform="translate(-27.852841,-128.21379)"><path
       style="fill:#8b8b8b;fill-opacity:1;stroke-width:0.623447"
       d="m 40.409786,154.60804 c -0.426319,-0.5305 -0.655199,-0.65405 -1.553424,-0.83853 -2.10742,-0.43285 -4.929858,-1.8592 -4.929858,-2.49135 0,-0.34213 1.011717,-2.04342 1.333397,-2.24222 0.100406,-0.062 0.383252,0.0355 0.628553,0.21692 2.038598,1.50719 5.398947,2.13006 7.740383,1.43473 1.094705,-0.32509 1.092504,-0.34312 -0.328538,-2.69525 l -1.18324,-1.95851 -0.926218,-0.0968 c -1.619229,-0.16924 -2.597711,-0.73773 -3.481996,-2.023 l -0.505098,-0.73413 -2.422148,0.0456 -2.422155,0.0456 0.01721,0.60045 c 0.02045,0.71321 0.851797,2.55954 1.548687,3.43944 0.272814,0.34446 0.495322,0.72695 0.494462,0.84998 -0.0025,0.37828 -1.294875,2.28561 -1.548512,2.28561 -0.979304,0 -3.728438,-5.08157 -3.728438,-6.89175 0,-0.19316 -0.28552,-0.58489 -0.659819,-0.90528 -0.814927,-0.69755 -0.835245,-1.1068 -0.08563,-1.7247 0.500167,-0.41228 0.626465,-0.67938 0.979748,-2.07206 0.465322,-1.83436 1.257574,-3.44529 2.378906,-4.83718 1.045726,-1.29804 1.197698,-1.30068 2.000847,-0.0347 0.8181,1.28959 0.820363,1.21458 -0.07701,2.55261 -0.812264,1.21114 -1.446578,2.72078 -1.369589,3.25957 0.04701,0.329 0.157813,0.34582 2.565298,0.38939 l 2.516164,0.0455 0.271225,-0.56876 0.271224,-0.56877 -1.65115,-2.77585 c -2.048616,-3.44406 -2.026658,-3.40136 -2.026658,-3.94144 0,-0.96886 2.169471,-2.21394 4.730112,-2.71466 0.874915,-0.17108 1.09132,-0.28961 1.533599,-0.83996 0.645386,-0.8031 0.971586,-0.80554 1.609279,-0.012 0.451102,0.56134 0.661895,0.66721 1.96581,0.98734 1.520276,0.37325 3.419755,1.22225 4.256061,1.90232 l 0.486178,0.39535 -0.711296,1.17724 c -0.821439,1.35953 -0.798031,1.3526 -1.993075,0.58933 -2.043123,-1.30493 -5.294282,-1.7648 -7.340442,-1.03829 -0.866373,0.30761 -0.847869,0.39728 0.571951,2.77186 l 1.188951,1.98845 h 0.863225 c 1.241825,0 2.472847,0.66226 3.296146,1.77326 l 0.641758,0.86601 h 2.437381 c 1.801566,0 2.456147,-0.0538 2.509322,-0.2062 0.192688,-0.55227 -0.65675,-2.57316 -1.602183,-3.81175 -0.322665,-0.42271 -0.586665,-0.83684 -0.586665,-0.92027 0,-0.27804 1.209159,-2.18606 1.441969,-2.27539 0.846838,-0.32497 3.823534,4.72487 3.834344,6.50479 0.0035,0.57818 0.316759,1.09496 0.881177,1.4537 0.761503,0.48401 0.753195,0.92499 -0.0291,1.54458 -0.585228,0.46351 -0.681089,0.64775 -0.933467,1.79405 -0.372348,1.6912 -1.202074,3.45813 -2.323643,4.94827 -1.12972,1.50097 -1.357945,1.51358 -2.228433,0.12314 -0.760564,-1.21485 -0.760219,-1.2096 -0.131336,-1.99799 1.03159,-1.29326 1.948254,-3.56034 1.606215,-3.97247 -0.131725,-0.15872 -0.798373,-0.2153 -2.536856,-0.2153 h -2.358179 l -0.355384,0.57503 -0.355389,0.57503 1.826517,3.02901 c 2.032412,3.37046 2.189007,3.88608 1.415219,4.65987 -0.695446,0.69544 -3.789029,1.88305 -4.905137,1.88305 -0.14535,0 -0.499431,0.29692 -0.786853,0.65982 -0.671951,0.8484 -1.105428,0.85765 -1.764405,0.0377 z m 1.603463,-11.41628 c 0.722619,0.57232 0.767906,0.52099 0.417223,-0.47296 l -0.238587,-0.67621 0.64745,-0.45796 c 0.844777,-0.59755 0.8207,-0.7054 -0.157489,-0.7054 -0.793174,0 -0.816554,-0.0143 -1.009648,-0.61858 -0.297484,-0.9309 -0.427398,-0.96475 -0.688329,-0.17938 -0.235881,0.70996 -0.244298,0.71587 -1.090758,0.76534 -1.026157,0.06 -1.054162,0.16035 -0.193225,0.69244 0.757364,0.46807 0.736447,0.40113 0.412385,1.31963 -0.136086,0.38571 -0.247433,0.73264 -0.247433,0.77095 0,0.0383 0.335838,-0.1614 0.746303,-0.4438 l 0.746304,-0.51348 z m 34.850845,6.77649 c -0.971206,-0.60995 -1.293554,-4.04963 -0.379529,-4.04984 0.402927,-1e-4 0.414338,0.0339 0.497591,1.48049 0.09998,1.73728 0.17246,1.89297 0.88126,1.89297 0.815295,0 0.930503,-0.22873 0.930503,-1.84748 v -1.45159 h 0.510316 0.510317 l -0.05667,1.64611 c -0.08093,2.35 -1.299303,3.33072 -2.893761,2.32934 z m 66.933316,0.0244 c -2.64939,-1.35096 -0.62259,-5.17466 2.06651,-3.8986 0.6395,0.30347 0.6565,0.34459 0.30359,0.73455 -0.23803,0.26301 -0.3069,0.26503 -0.91355,0.0267 -1.1297,-0.44377 -2.02913,0.58326 -1.53661,1.75461 0.33016,0.78523 0.89326,0.92903 1.84645,0.47152 0.29731,-0.1427 0.43088,-0.12562 0.6381,0.0816 0.74182,0.74183 -1.23742,1.42469 -2.40449,0.82959 z m -76.34899,-1.97919 c 0.04617,-2.10316 0.04617,-2.10316 0.458551,-2.10316 0.409998,0 0.412657,0.01 0.459394,1.69078 l 0.04701,1.69077 h 1.02519 c 0.983567,0 1.02519,0.0168 1.02519,0.41239 0,0.41025 -0.0079,0.41238 -1.53075,0.41238 h -1.530751 z m 3.596338,1.97945 c 0.02111,-0.71229 1.782663,-4.08853 2.155929,-4.13212 0.378865,-0.0443 2.151267,3.39035 2.132356,4.13212 -0.0085,0.33303 -0.847509,0.0962 -1.02289,-0.28867 -0.169095,-0.37112 -0.283963,-0.41239 -1.147997,-0.41239 -0.88654,0 -0.968033,0.0316 -1.063604,0.41239 -0.09761,0.3889 -1.064614,0.65379 -1.053794,0.28867 z m 2.635594,-1.67369 c 0,-0.0793 -0.102697,-0.38841 -0.228216,-0.68694 l -0.228216,-0.54276 -0.273387,0.52867 c -0.150362,0.29077 -0.239166,0.58404 -0.197342,0.65171 0.109616,0.17737 0.927161,0.22085 0.927161,0.0493 z m 7.294273,-0.30576 0.04613,-2.10316 1.087953,0.0238 c 3.736967,0.0818 3.724728,4.18251 -0.01247,4.18251 H 80.92844 Z m 2.45271,0.96974 c 0.897608,-0.72684 0.272932,-2.16565 -0.940234,-2.16565 h -0.559063 v 1.23715 1.23715 h 0.559063 c 0.307485,0 0.730593,-0.13889 0.940234,-0.30865 z m 2.410976,-0.9696 0.03385,-2.1033 1.574434,-0.0519 1.574441,-0.0519 v 0.50553 0.50553 h -1.166151 c -1.114986,0 -1.163833,0.0163 -1.113433,0.37114 0.0467,0.32879 0.160968,0.3768 1.001194,0.42062 0.883131,0.0461 0.948481,0.0773 0.948481,0.45362 0,0.384 -0.04938,0.40415 -0.989722,0.40415 -0.945732,0 -0.989723,0.0183 -0.989723,0.41239 0,0.4006 0.03298,0.41239 1.15468,0.41239 1.121682,0 1.154674,0.0118 1.154674,0.41238 0,0.41167 -0.0031,0.41239 -1.6083,0.41252 l -1.6083,1.3e-4 z m 4.208767,-1.4e-4 0.04614,-2.10316 1.402107,0.0465 c 2.038205,0.0676 2.778667,1.07135 1.719212,2.33044 -0.425191,0.50531 -0.425191,0.50531 -0.109527,0.96113 0.590292,0.85241 0.590404,0.86822 0.0062,0.86822 -0.46155,0 -0.612543,-0.10422 -0.955919,-0.65982 -0.281455,-0.4554 -0.523483,-0.65981 -0.781235,-0.65981 -0.325714,0 -0.373439,0.0843 -0.373439,0.65981 0,0.62461 -0.02668,0.65982 -0.499792,0.65982 h -0.499758 z m 2.488688,-0.38997 c 0.314685,-0.50239 0.01796,-0.80594 -0.787806,-0.80594 -0.746584,0 -0.74747,6.2e-4 -0.74747,0.58682 0,0.5863 6.11e-4,0.58678 0.684252,0.5361 0.406432,-0.0301 0.751971,-0.15883 0.851024,-0.31698 z m 2.09371,0.44495 c 0,-2.32522 -0.105287,-2.18705 1.581075,-2.07495 3.459614,0.22996 3.096101,4.12072 -0.385166,4.12251 l -1.195909,6.2e-4 z m 2.48902,0.91476 c 0.88176,-0.71401 0.30191,-2.16565 -0.865052,-2.16565 h -0.634245 v 1.23715 1.23715 h 0.559064 c 0.307484,0 0.730586,-0.13889 0.940233,-0.30865 z m 1.799773,1.08222 c 0,-0.0282 0.39208,-0.97458 0.871292,-2.10316 0.941279,-2.21679 1.528539,-2.75965 1.919349,-1.77424 0.0833,0.21015 0.48874,1.18006 0.90088,2.15535 l 0.74936,1.77325 h -0.49196 c -0.36469,0 -0.54057,-0.10669 -0.67986,-0.41238 -0.16861,-0.37005 -0.28494,-0.41239 -1.13326,-0.41239 -0.87081,0 -0.95352,0.0326 -1.04886,0.41239 -0.08597,0.34251 -1.086941,0.67513 -1.086941,0.36118 z m 2.631821,-1.82198 c -0.004,-0.10381 -0.10678,-0.41143 -0.22818,-0.6836 l -0.22075,-0.49486 -0.25194,0.5757 c -0.13856,0.31664 -0.22843,0.61356 -0.1997,0.65982 0.10819,0.17424 0.90769,0.12359 0.90057,-0.0571 z m 2.6467,-0.16951 c 0,-2.04269 0,-2.04269 0.40851,-2.12078 0.5742,-0.10977 0.58121,-0.0891 0.58121,1.71665 v 1.62205 h 1.0722 c 1.03371,0 1.0722,0.0148 1.0722,0.41239 0,0.41094 -0.006,0.41238 -1.56706,0.41238 h -1.56706 z m 3.9952,-0.0605 0.0461,-2.10316 1.52583,-0.0254 1.52581,-0.0254 v 0.47149 c 0,0.46731 -0.01,0.47193 -1.11343,0.52028 -1.629,0.0714 -1.68701,0.68139 -0.0721,0.75796 1.52953,0.0725 1.49,0.7294 -0.0516,0.85787 -0.87106,0.0726 -0.99605,0.12698 -1.04244,0.45362 -0.0504,0.35486 -0.001,0.37115 1.11344,0.37115 1.13392,0 1.16615,0.0114 1.16615,0.41238 0,0.41103 -0.005,0.41239 -1.57199,0.41239 h -1.572 z m 6.07806,0.0615 c -0.0241,-2.56984 0.64498,-3.02582 1.72812,-1.1776 0.2449,0.4179 0.48347,0.72162 0.53016,0.67493 0.0467,-0.0467 0.31656,-0.43975 0.59972,-0.87346 0.37617,-0.57618 0.63668,-0.80263 0.96727,-0.84077 l 0.45245,-0.0522 v 2.15536 c 0,2.15535 0,2.15535 -0.41239,2.15535 -0.4065,0 -0.41238,-0.0194 -0.41238,-1.35866 v -1.35867 l -0.60536,0.8989 -0.60536,0.89891 -0.34313,-0.47038 c -0.9451,-1.29561 -0.90891,-1.30002 -0.91497,0.11151 -0.006,1.27839 -0.006,1.27839 -0.48521,1.27839 h -0.47972 z m 5.26744,1.91935 c 0,-0.0673 0.38759,-1.03222 0.86132,-2.1444 1.20981,-2.84029 1.39104,-2.82606 2.66437,0.20935 0.90179,2.14968 0.88895,2.05732 0.28613,2.05732 -0.37122,0 -0.49993,-0.0915 -0.58049,-0.41239 -0.0959,-0.38219 -0.1755,-0.41238 -1.08693,-0.41238 -0.91143,0 -0.99102,0.0302 -1.08694,0.41238 -0.0976,0.38883 -1.05746,0.65217 -1.05746,0.29012 z m 2.54914,-1.67986 c 0.10555,-0.17079 -0.2302,-1.00209 -0.40474,-1.00209 -0.0967,0 -0.49487,0.72646 -0.49487,0.90292 0,0.0551 0.36437,0.17774 0.69132,0.23262 0.0627,0.0105 0.15642,-0.0496 0.20829,-0.13345 z m 2.72937,-0.30255 v -2.10467 l 1.36088,0.0582 c 2.0202,0.0863 2.88057,1.30207 1.69743,2.39857 l -0.40573,0.37601 0.40573,0.59708 c 0.51189,0.75333 0.50897,0.77954 -0.0868,0.77954 -0.39284,0 -0.58196,-0.13514 -0.93441,-0.66773 -0.58359,-0.88187 -1.10579,-0.86014 -1.18106,0.0491 -0.044,0.53178 -0.10766,0.61858 -0.45362,0.61858 -0.40243,0 -0.40243,0 -0.40243,-2.10468 z m 2.28255,-0.18462 c 0.54476,-0.34529 0.14493,-0.92501 -0.67425,-0.97758 -0.76548,-0.0491 -0.78352,-0.0393 -0.78352,0.42614 0,0.6875 0.77851,0.98199 1.45777,0.55144 z m 2.33628,0.18614 c 1.1e-4,-2.10316 1.1e-4,-2.10316 0.41238,-2.12695 l 0.41227,-0.0238 v 2.12694 c 0,2.12695 0,2.12695 -0.41239,2.12695 -0.41238,0 -0.41238,0 -0.41226,-2.10316 z m 2.14428,-0.0186 v -2.12172 l 0.43313,0.0476 c 0.49258,0.0541 0.40609,-0.0274 1.47838,1.39167 l 0.81022,1.0722 0.0481,-1.17847 c 0.0387,-0.94754 0.10334,-1.19279 0.32991,-1.25154 0.64003,-0.16597 0.69418,-0.001 0.69418,2.11385 v 2.04818 h -0.46259 c -0.3854,0 -0.61248,-0.20567 -1.36087,-1.23254 -1.11673,-1.53228 -1.18452,-1.53254 -1.1175,-0.004 0.0543,1.23754 0.0543,1.23754 -0.39935,1.23715 l -0.45362,-3.8e-4 z m 4.94861,-0.0227 v -2.1444 h 1.56706 1.56706 v 0.49486 c 0,0.49486 0,0.49486 -1.0722,0.49486 -1.03371,0 -1.0722,0.0148 -1.0722,0.41239 0,0.39458 0.0432,0.41238 1.0012,0.41238 0.94392,0 0.99818,0.0213 0.94848,0.37115 -0.0467,0.32878 -0.16097,0.37679 -1.0012,0.42061 -0.88313,0.0461 -0.94848,0.0773 -0.94848,0.45363 0,0.39041 0.0393,0.40415 1.15468,0.40415 1.12168,0 1.15468,0.0118 1.15468,0.41238 0,0.41239 0,0.41239 -1.64954,0.41239 h -1.64954 z m 10.88695,0.0956 v -2.04879 l 1.03095,-0.0799 c 1.84485,-0.14302 2.10317,-0.0918 2.10317,0.41727 0,0.43594 -0.0253,0.4472 -1.11344,0.49487 -1.62186,0.071 -1.68828,0.6812 -0.0825,0.7577 0.9652,0.0459 1.03096,0.0744 1.03096,0.44575 0,0.37134 -0.0658,0.39977 -1.03096,0.44574 -1.6058,0.0765 -1.53938,0.68666 0.0825,0.7577 1.05892,0.0464 1.11344,0.0686 1.11344,0.45363 0,0.40142 -0.0133,0.40485 -1.56706,0.40485 h -1.56706 z m 4.28879,-0.0544 c 0,-2.69487 0.27984,-2.84595 1.68889,-0.91186 1.07092,1.46997 1.11532,1.47224 1.11532,0.057 0,-0.99698 0.0421,-1.15692 0.32844,-1.2478 0.57074,-0.18115 0.63263,0.0347 0.61501,2.14468 l -0.0172,2.06117 h -0.42708 c -0.33804,0 -0.63233,-0.26652 -1.41161,-1.27839 l -0.98452,-1.27839 -0.0482,1.27839 c -0.0465,1.23474 -0.062,1.27839 -0.45362,1.27839 -0.40544,0 -0.40544,0 -0.40544,-2.10316 z m 5.93833,0.45362 v -1.64954 h -0.65981 c -0.61653,0 -0.65981,-0.031 -0.65981,-0.47347 v -0.47348 l 1.73199,0.0198 1.732,0.0198 2e-5,0.45362 c 2e-5,0.41926 -0.0499,0.45362 -0.6598,0.45362 h -0.65982 v 1.64954 c 0,1.64954 0,1.64954 -0.41238,1.64954 -0.41239,0 -0.41239,0 -0.41239,-1.64954 z m 3.17044,-0.42931 0.0461,-2.07886 1.48459,-0.0243 c 1.48458,-0.0243 1.48458,-0.0243 1.53677,0.42932 0.0522,0.45362 0.0522,0.45362 -1.11343,0.45362 -1.13337,0 -1.16564,0.0114 -1.16564,0.41238 0,0.39406 0.0439,0.41239 0.98972,0.41239 0.94574,0 0.98973,0.0183 0.98973,0.41238 0,0.39406 -0.044,0.41238 -0.98973,0.41238 -0.94573,0 -0.98972,0.0183 -0.98972,0.41239 0,0.4006 0.033,0.41238 1.15468,0.41238 1.12168,0 1.15468,0.0118 1.15468,0.41239 0,0.41102 -0.005,0.41238 -1.57199,0.41238 H 160.766 Z m 4.12384,-0.0183 0.0461,-2.09719 1.27763,0.029 c 2.13521,0.0486 2.92378,1.05236 1.83925,2.34124 l -0.42962,0.51059 0.42962,0.56326 c 0.54568,0.71542 0.54051,0.75153 -0.10647,0.74398 -0.43525,-0.005 -0.62114,-0.12921 -0.98816,-0.65982 -0.62261,-0.90014 -1.115,-0.89738 -1.115,0.006 0,0.6246 -0.0267,0.65982 -0.49979,0.65982 h -0.49979 z m 2.43142,-0.28672 c 0.4017,-0.48401 0.0499,-0.91517 -0.74683,-0.91517 -0.72566,0 -0.73118,0.004 -0.73118,0.57734 0,0.64142 1.03057,0.87697 1.47801,0.33783 z m -106.113652,0.2945 c -0.300135,-0.30014 0.02073,-0.3849 1.457092,-0.3849 1.282973,0 1.56706,0.0449 1.56706,0.24743 0,0.25868 -2.77672,0.38489 -3.024152,0.13747 z m 110.409022,-0.13747 c 0,-0.20161 0.27493,-0.24743 1.48459,-0.24743 1.20966,0 1.48458,0.0458 1.48458,0.24743 0,0.20161 -0.27492,0.24744 -1.48458,0.24744 -1.20966,0 -1.48459,-0.0458 -1.48459,-0.24744 z m -13.77363,-6.07743 c -5.68479,-1.87682 -3.17549,-9.97103 2.57306,-8.29988 3.82727,1.11262 4.18932,6.42948 0.54802,8.04793 -0.91787,0.40796 -2.3085,0.52022 -3.12108,0.25195 z m 2.51705,-1.92193 c 2.25902,-1.37734 0.95318,-5.31998 -1.60981,-4.86038 -3.07916,0.55217 -2.78437,5.18816 0.32991,5.18816 0.45036,0 0.95373,-0.12891 1.2799,-0.32778 z m -98.396404,1.48238 c -1.166426,-0.58753 -1.211398,-0.70226 -0.57439,-1.46529 l 0.45657,-0.5469 0.57439,0.33626 c 1.538216,0.9005 3.048697,0.79054 3.048697,-0.22195 0,-0.47496 -0.05525,-0.51109 -1.540014,-1.00713 -1.850839,-0.61832 -2.345588,-0.9577 -2.649699,-1.8176 -0.897473,-2.53767 2.032638,-4.16783 5.027212,-2.79686 1.040814,0.4765 1.02599,0.43602 0.447564,1.22231 -0.245823,0.33416 -0.464606,0.63459 -0.486184,0.66762 -0.02158,0.033 -0.293306,-0.097 -0.603838,-0.28889 -0.878543,-0.54297 -1.970129,-0.63533 -2.402198,-0.20326 -0.627161,0.62716 -0.302988,1.04514 1.103834,1.42328 2.230605,0.59955 3.071464,1.35405 3.050597,2.73732 -0.0336,2.22698 -2.887145,3.2533 -5.452541,1.96109 z m 8.827779,-0.21037 c 0.157253,-0.38859 0.953976,-2.28028 1.770497,-4.20375 l 1.484584,-3.49722 0.912646,-0.002 0.912645,-0.002 1.726614,4.06818 c 0.949638,2.2375 1.75136,4.13034 1.781597,4.20632 0.03024,0.076 -0.384424,0.13814 -0.921476,0.13814 h -0.976461 l -0.427044,-0.98973 -0.427043,-0.98972 h -1.724249 -1.724251 l -0.370131,0.98972 -0.370131,0.98973 h -0.966855 -0.966855 z m 5.083679,-3.17239 c -0.125999,-0.50202 -0.924916,-2.2767 -0.992012,-2.20362 -0.117603,0.1281 -0.919063,2.24025 -0.919063,2.42208 0,0.12586 0.337482,0.1798 0.999184,0.1597 0.927445,-0.0282 0.992917,-0.0554 0.911891,-0.37816 z m 7.161378,-0.32738 v -4.20633 h 3.2166 3.216595 v 0.82477 0.82477 h -2.31797 -2.317977 l 0.04988,0.86601 0.04988,0.86601 2.020685,0.0463 2.020686,0.0463 v 0.81461 0.81462 l -2.020686,0.0463 -2.020685,0.0463 -0.0472,1.6083 -0.0472,1.6083 h -0.901268 -0.901274 z m 10.227133,0 v -4.20633 h 3.225634 3.225634 l -0.05025,0.78353 -0.05025,0.78353 -2.268113,0.0459 -2.268114,0.0459 v 0.82012 0.82011 h 1.979445 1.979445 v 0.82476 0.82478 h -1.979444 -1.979445 v 0.90724 0.90725 h 2.309355 2.309348 v 0.82476 0.82477 h -3.216595 -3.216601 z m 16.330425,0 v -4.20633 h 0.90724 0.90724 v 1.64954 1.64954 h 1.73202 1.73201 v -1.64954 -1.64954 h 0.90725 0.90724 v 4.20633 4.20631 h -0.90724 -0.90725 v -1.74376 -1.74377 l -1.69078,0.053 -1.69076,0.053 -0.0351,1.56706 c -0.0193,0.86188 -0.0379,1.62273 -0.0412,1.69077 -0.003,0.068 -0.41438,0.12372 -0.91336,0.12372 h -0.90725 z m 10.88694,4.06621 c 0,-0.0771 0.76409,-1.95134 1.69797,-4.16508 l 1.69796,-4.02498 0.92342,-0.0489 0.92341,-0.0489 1.74989,4.1202 c 0.96244,2.26612 1.7499,4.16242 1.7499,4.21402 0,0.0516 -0.4272,0.0938 -0.94933,0.0938 h -0.94932 l -0.38378,-0.98973 -0.38377,-0.98972 h -1.73089 -1.7309 l -0.42704,0.98972 -0.42704,0.98973 h -0.88024 c -0.48413,0 -0.88024,-0.0631 -0.88024,-0.1401 z m 5.31801,-3.4184 c 0.0519,-0.0519 -0.13578,-0.6461 -0.4172,-1.32031 -0.28142,-0.67421 -0.56485,-1.16987 -0.62985,-1.10144 -0.14067,0.14806 -0.97189,2.18335 -0.97189,2.37971 0,0.15209 1.86994,0.19103 2.01894,0.042 z m 7.21291,3.51727 c -0.003,-0.0227 -0.008,-1.89697 -0.0118,-4.16508 l -0.006,-4.12385 2.36239,-0.045 c 2.62277,-0.0499 3.44436,0.17864 4.15655,1.15615 0.82729,1.13552 0.37151,3.27596 -0.83408,3.91699 l -0.52452,0.27888 0.97814,1.41893 c 1.1915,1.72844 1.19718,1.60414 -0.0733,1.60414 h -1.0514 l -0.85601,-1.30385 c -0.83429,-1.27078 -0.87455,-1.30532 -1.58785,-1.36205 l -0.73186,-0.0582 v 1.36206 1.36206 h -0.90724 c -0.49898,0 -0.90975,-0.0186 -0.91281,-0.0412 z m 4.66446,-4.7093 c 0.98541,-0.98542 0.27719,-1.90574 -1.52967,-1.9878 l -1.31473,-0.0597 v 1.27631 1.27631 l 1.24985,-0.0802 c 0.97802,-0.0628 1.32481,-0.15518 1.59455,-0.42491 z m 6.22805,0.56117 v -4.22328 h 2.38109 c 2.54484,0 3.0526,0.10552 3.76138,0.78168 0.79072,0.75433 0.74553,2.34508 -0.0831,2.92548 -0.19171,0.13428 -0.31593,0.26832 -0.27604,0.29786 0.0399,0.0296 0.28285,0.18549 0.53993,0.34654 0.60965,0.38193 0.99386,1.30216 0.8543,2.04613 -0.2966,1.58101 -1.02323,1.90171 -4.49706,1.98477 l -2.6805,0.0641 z m 4.85837,2.34839 c 0.32684,-0.14891 0.42015,-0.31248 0.42015,-0.73648 0,-0.73931 -0.3407,-0.88658 -2.05108,-0.88658 h -1.41295 v 0.90725 0.90725 h 1.31187 c 0.72152,0 1.50093,-0.0862 1.73201,-0.19144 z m -0.1417,-3.68652 c 0.4971,-0.75076 -0.0127,-1.1469 -1.54566,-1.20104 l -1.35652,-0.0479 v 0.83811 0.83811 l 1.34136,-0.0479 c 1.12917,-0.0403 1.37607,-0.10034 1.56082,-0.37936 z m 18.87171,1.32941 v -4.21456 h 2.39713 c 3.17953,0 3.90397,0.28335 4.46229,1.7453 0.50816,1.33061 -0.21388,3.17264 -1.39361,3.55529 -0.16098,0.0522 -0.015,0.37662 0.5125,1.13891 0.40568,0.58624 0.8681,1.27003 1.02759,1.51952 l 0.29001,0.45362 h -1.09179 -1.09179 l -0.86397,-1.31963 c -0.85392,-1.30429 -0.87205,-1.31962 -1.5595,-1.31962 h -0.69554 l -0.0482,1.27839 -0.0482,1.27839 -0.94848,0.0494 -0.94848,0.0495 z m 4.7846,-0.50395 c 1.01464,-0.91824 0.0949,-2.06107 -1.65865,-2.06107 h -1.11835 l -0.0553,1.0756 c -0.0304,0.59158 -0.0275,1.15747 0.006,1.25753 0.10406,0.30645 2.43453,0.0821 2.82585,-0.27206 z"
       id="path16" /></g></svg>
