<?xml version="1.0" encoding="UTF-8" standalone="no"?>
<!-- Created with Inkscape (http://www.inkscape.org/) -->

<svg
   width="159.18867mm"
   height="32.887779mm"
   viewBox="0 0 159.18867 32.887779"
   version="1.1"
   id="svg1"
   xml:space="preserve"
   xmlns="http://www.w3.org/2000/svg"
   xmlns:svg="http://www.w3.org/2000/svg"><defs
     id="defs1" /><g
     id="layer1"
     transform="translate(-21.749548,-79.608228)"><path
       style="fill:#8b8b8b;fill-opacity:1;stroke-width:0.700371"
       d="m 36.577281,112.36573 c -10.709458,-1.07629 -17.65702,-12.32066 -13.707263,-22.184713 4.004539,-10.000864 15.982726,-13.705184 24.652269,-7.62385 1.36613,0.95829 1.374415,1.16748 0.05673,1.43211 -6.23048,1.25126 -10.257753,8.64465 -7.907889,14.51753 l 0.281906,0.70457 h 7.11418 c 6.026637,0 7.11418,0.0403 7.11418,0.2635 0,0.670403 -1.194945,3.665003 -1.989852,4.986673 -2.536793,4.21787 -7.197755,7.32414 -11.722825,7.8126 -2.012516,0.21725 -2.521742,0.22924 -3.891436,0.0916 z m 7.887816,-6.12438 c 2.600142,-0.4658 5.748051,-2.54337 7.205299,-4.75538 0.822936,-1.24916 0.09003,-1.918493 -1.376573,-1.25715 -0.662558,0.29877 -0.757934,0.30044 -1.314141,0.023 -0.762844,-0.380563 -1.119081,-0.376603 -1.81027,0.0201 -0.526462,0.30214 -0.592178,0.30214 -1.225796,0 -0.834906,-0.398143 -1.112666,-0.399413 -1.775168,-0.008 -0.497067,0.29362 -0.570235,0.29165 -1.294482,-0.0349 -0.671235,-0.302683 -0.841362,-0.315313 -1.354804,-0.10056 -0.322948,0.13508 -0.753957,0.2456 -0.957793,0.2456 -0.203836,0 -0.634844,-0.11052 -0.957792,-0.2456 -0.513442,-0.214753 -0.683576,-0.202123 -1.354812,0.10056 -0.724247,0.32659 -0.797407,0.32857 -1.294475,0.0349 -0.660288,-0.390043 -0.940717,-0.389873 -1.760522,0.001 -0.614086,0.29284 -0.695637,0.29284 -1.309722,0 -1.542007,-0.735333 -2.254425,-0.18595 -1.426747,1.10024 2.457259,3.81848 7.188153,5.73965 12.007798,4.87623 z M 38.67777,99.072397 c 0.04622,-0.0764 -0.07979,-0.76439 -0.279952,-1.52878 -1.005313,-3.83906 0.257954,-8.37086 3.135596,-11.2485 0.920407,-0.92041 2.781944,-2.27296 3.142124,-2.28299 0.320875,-0.009 1.025882,-0.68797 0.836082,-0.80527 -0.536337,-0.33148 -3.269731,-0.52093 -4.619479,-0.32018 -7.28512,1.08353 -12.438233,9.34602 -9.786719,15.69199 l 0.264362,0.63271 h 3.611995 c 1.986603,0 3.649795,-0.0625 3.695991,-0.13898 z m 33.293048,13.095213 c 0,-0.1103 1.422559,-1.95377 3.161244,-4.0966 1.738678,-2.14283 3.133453,-3.92385 3.099499,-3.9578 -0.03397,-0.034 -0.550996,0.0997 -1.148973,0.29693 -10.892647,3.59351 -18.549733,-5.306543 -10.458753,-12.156513 4.226354,-3.57811 9.142875,-4.82399 19.84722,-5.02944 6.780955,-0.13015 6.424431,-0.2514 4.934765,1.67825 l -0.948715,1.22892 H 87.73187 c -7.748688,0 -14.179341,1.86709 -16.799373,4.87758 -3.610525,4.14859 -0.49587,9.079073 4.837105,7.657123 2.458947,-0.65563 4.596311,-2.16829 8.193865,-5.799003 l 2.63467,-2.65896 h 1.57012 c 0.863565,0 1.609523,0.0637 1.657687,0.1417 0.04819,0.0779 -1.322812,1.8895 -3.046621,4.02571 -3.445895,4.270303 -3.300786,4.033693 -2.722349,4.438843 1.01995,0.7144 1.63814,0.2933 4.133107,-2.815423 l 1.970564,-2.45531 h 1.359749 c 0.747861,0 1.470805,-0.0408 1.606537,-0.0907 0.991662,-0.36449 0.699839,0.32697 -1.016778,2.40922 -1.903207,2.308573 -2.032215,2.710193 -0.957258,2.979993 0.823978,0.20681 1.666468,-0.47492 3.650731,-2.954113 l 1.905612,-2.38093 1.662141,0.001 c 2.107791,0.002 2.112001,0.0258 0.380974,2.17806 -0.780311,0.970153 -1.392456,1.897433 -1.360316,2.060633 0.106442,0.54053 0.609217,0.70235 1.423882,0.45827 0.818685,-0.24528 0.981248,-0.42023 4.905921,-5.279893 l 2.19464,-2.71747 h 1.74313 c 1.18349,0 1.74312,0.0679 1.74312,0.21171 0,0.11644 -1.33485,1.87188 -2.96632,3.90097 -3.15585,3.924973 -3.29817,4.227343 -2.12789,4.521063 0.83368,0.20924 1.61878,-0.52817 4.90844,-4.610283 l 3.2424,-4.02346 h 1.8072 c 2.18433,0 2.17456,-0.1764 0.13117,2.36854 -0.92182,1.14809 -1.62569,2.16887 -1.56417,2.26842 0.0638,0.10328 1.18147,0.181 2.60257,0.181 2.8605,0 2.79804,-0.0662 1.51011,1.602053 l -0.98058,1.2702 -2.91086,0.0511 -2.91084,0.0511 v 1.53146 c 0,4.78471 -2.84998,8.51989 -6.71157,8.79618 -3.45831,0.24744 -3.851085,-2.02044 -0.9792,-5.65386 0.66278,-0.83852 1.20504,-1.55004 1.20504,-1.58117 0,-0.0311 -0.58294,-0.0237 -1.29542,0.0166 -0.85908,0.0485 -1.53005,-0.0186 -1.99204,-0.19927 -0.585159,-0.22887 -0.785585,-0.23353 -1.25255,-0.0292 -1.151228,0.50383 -2.466805,0.29659 -3.376804,-0.53194 -0.411902,-0.37502 -0.411902,-0.37502 -1.482454,0.10491 -2.126096,0.95313 -4.672075,1.16403 -6.119693,0.50692 -0.69647,-0.31614 -0.856491,-0.32846 -1.389796,-0.107 -1.253699,0.52057 -3.018606,0.43596 -3.939349,-0.18887 -0.574983,-0.3902 -0.742015,-0.43195 -0.926689,-0.23164 -0.123909,0.1344 -1.61757,1.97466 -3.319247,4.08948 l -3.093966,3.8451 H 73.72052 c -1.131506,0 -1.749702,-0.0708 -1.749702,-0.20053 z m 33.680512,-3.29783 c 0.81931,-0.79513 1.53976,-2.0472 1.87187,-3.25322 0.16721,-0.60717 0.15982,-0.68465 -0.0442,-0.46327 -0.54,0.58604 -4.0061,4.97993 -4.0061,5.07844 0,0.24605 1.46575,-0.67035 2.1784,-1.36195 z m 52.73076,3.31176 c -1.41087,-0.56845 -0.94683,-2.85414 1.11952,-5.51437 1.25123,-1.61085 1.23727,-1.52598 0.25103,-1.52598 -0.43709,0 -1.10529,-0.15835 -1.4849,-0.35188 -0.67795,-0.34564 -0.70663,-0.34564 -1.61628,0 -1.27149,0.48312 -3.86113,0.48172 -4.92782,-0.003 -0.74412,-0.33792 -0.78736,-0.33797 -1.76041,-0.002 -1.11542,0.38514 -3.53052,0.47636 -4.35118,0.16435 -0.34908,-0.13272 -0.56499,-0.13272 -0.6977,0 -0.30969,0.30968 -3.25879,0.24724 -3.38114,-0.0716 -0.0598,-0.15592 0.62448,-1.17721 1.67358,-2.49771 0.97614,-1.22866 1.7748,-2.27739 1.7748,-2.33051 0,-0.353883 -1.31426,-0.0359 -1.78476,0.43187 -6.49711,6.45894 -17.61584,6.15624 -19.60252,-0.533663 -1.23038,-4.14311 2.81545,-8.94188 9.34235,-11.08102 3.68855,-1.20889 6.9269,-1.58361 13.80199,-1.5971 5.9956,-0.0118 5.8035,-0.0854 4.37566,1.67634 l -0.91634,1.13058 -3.95166,0.10641 c -10.1949,0.27453 -16.76432,3.64033 -16.71826,8.5655 0.0438,4.679913 6.48903,5.594113 11.06178,1.569013 l 0.87699,-0.771963 -0.52144,-0.59388 c -1.12446,-1.28069 -1.21789,-2.58149 -0.26224,-3.65097 1.39542,-1.56161 3.83192,-0.42862 3.45051,1.6045 l -0.11984,0.63881 h 2.15164 c 3.46215,0 3.8702,1.0984 1.47141,3.960733 -0.39987,0.47713 -0.41925,0.57355 -0.1863,0.92653 0.70312,1.06541 1.88591,0.48005 3.79604,-1.87864 2.24198,-2.768463 4.81218,-3.751973 7.1041,-2.718463 0.70318,0.31709 0.7625,0.31864 0.92722,0.0243 0.24291,-0.43403 4.04901,-0.4773 4.04901,-0.046 0,0.14764 -0.6671,1.10581 -1.48245,2.12925 -1.46977,1.844893 -1.68928,2.324643 -1.26009,2.753833 0.74116,0.74116 1.95736,-0.003 3.78505,-2.31623 0.78922,-0.998853 2.21451,-2.795913 3.1673,-3.993453 l 1.73235,-2.17735 h 1.558 c 2.32711,0 2.48583,-0.42415 -1.92513,5.14477 -2.07303,2.617243 -2.09058,2.647643 -1.79164,3.103883 0.80122,1.22281 1.90834,0.47359 4.84017,-3.275493 1.30213,-1.6651 2.73615,-3.46523 3.18672,-4.0003 l 0.81922,-0.97286 h 1.56077 c 2.01255,0 2.01211,0.0752 -0.0151,2.64122 -0.86586,1.09595 -1.57428,2.03406 -1.57428,2.08469 0,0.0506 1.12574,0.0921 2.50164,0.0921 2.82505,0 2.89428,0.0436 2.00256,1.263193 -1.30866,1.78972 -1.092,1.70172 -4.18981,1.70172 h -2.76649 l -1.13308,1.04903 c -1.39161,1.28838 -2.73848,1.93067 -4.31378,2.05712 -1.09629,0.088 -1.19489,0.13219 -1.29217,0.57925 -1.03224,4.74357 -5.02008,7.84865 -8.35455,6.50516 z m 4.31152,-3.39126 c 0.81545,-0.90603 1.60974,-2.36576 1.83437,-3.37113 0.11063,-0.49516 -3.90775,4.30973 -4.1435,4.9545 -0.15556,0.42547 1.55969,-0.75069 2.30913,-1.58337 z m -6.72537,-6.36096 c 0.46837,-0.35354 1.74216,-1.92639 1.90611,-2.35361 0.33716,-0.878653 -2.85994,0.26276 -3.5085,1.25258 -0.84409,1.28824 0.30676,2.07902 1.60239,1.10103 z"
       id="path15" /></g></svg>
