<?xml version="1.0" encoding="UTF-8" standalone="no"?>
<!-- Created with Inkscape (http://www.inkscape.org/) -->

<svg
   width="114.56613mm"
   height="47.011665mm"
   viewBox="0 0 114.56613 47.011665"
   version="1.1"
   id="svg1"
   xml:space="preserve"
   inkscape:version="1.3.2 (091e20e, 2023-11-25, custom)"
   sodipodi:docname="logo sea fo site.svg"
   xmlns:inkscape="http://www.inkscape.org/namespaces/inkscape"
   xmlns:sodipodi="http://sodipodi.sourceforge.net/DTD/sodipodi-0.dtd"
   xmlns="http://www.w3.org/2000/svg"
   xmlns:svg="http://www.w3.org/2000/svg"><sodipodi:namedview
     id="namedview1"
     pagecolor="#ffffff"
     bordercolor="#999999"
     borderopacity="1"
     inkscape:showpageshadow="0"
     inkscape:pageopacity="0"
     inkscape:pagecheckerboard="0"
     inkscape:deskcolor="#d1d1d1"
     inkscape:document-units="mm"
     inkscape:zoom="1.1064744"
     inkscape:cx="600.55613"
     inkscape:cy="811.13487"
     inkscape:window-width="1920"
     inkscape:window-height="991"
     inkscape:window-x="-9"
     inkscape:window-y="-9"
     inkscape:window-maximized="1"
     inkscape:current-layer="layer1" /><defs
     id="defs1" /><g
     inkscape:label="Layer 1"
     inkscape:groupmode="layer"
     id="layer1"
     transform="translate(-75.366022,-427.99031)"><path
       style="fill:#8b8b8b;fill-opacity:1"
       d="m 75.367559,474.6051 c 0,-0.35155 6.5264,-0.39687 57.150001,-0.39687 50.6236,0 57.15,0.0453 57.15,0.39687 0,0.35155 -6.5264,0.39688 -57.15,0.39688 -50.623601,0 -57.150001,-0.0453 -57.150001,-0.39688 z m 77.522901,-4.66787 c -5.8089,-0.9596 -9.525,-6.01046 -9.525,-12.94639 0,-8.78056 4.2699,-13.60657 12.0386,-13.60657 5.4197,0 8.2924,1.77307 10.0199,6.18459 0.5512,1.40748 0.6915,1.26988 -1.9347,1.89713 -2.8596,0.683 -2.8641,0.68228 -3.3522,-0.53773 -1.6947,-4.23551 -8.359,-4.16169 -10.3166,0.11427 -1.8547,4.05133 -1.1358,10.89325 1.3764,13.09902 3.0153,2.64748 7.3509,1.42324 8.9813,-2.53606 0.3516,-0.85386 0.731,-1.53413 0.843,-1.51172 2.8144,0.56305 4.8687,1.50459 4.7051,2.15651 -1.3816,5.50471 -6.7141,8.69819 -12.8358,7.68695 z m -41.7405,-13.25765 0.069,-13.03073 2.5797,-0.0757 2.5796,-0.0757 v 13.10645 13.10646 h -2.6483 -2.6483 z m 6.551,-0.0562 v -13.1068 h 3.9563 3.9563 l 0.2276,0.8599 c 0.1252,0.47294 1.1126,4.28294 2.1942,8.46666 1.0816,4.18373 2.0362,7.60677 2.1213,7.60677 0.085,0 1.0778,-3.53059 2.2059,-7.84576 1.1281,-4.31516 2.1585,-8.12836 2.2898,-8.47376 0.2383,-0.62662 0.2474,-0.62784 4.1452,-0.55476 l 3.9065,0.0732 v 12.96459 12.96458 l -2.4474,0.0761 -2.4474,0.0761 -0.018,-9.73337 c -0.011,-5.74647 -0.112,-9.51661 -0.2475,-9.2042 -0.1263,0.29104 -1.2683,4.66659 -2.538,9.72344 l -2.3084,9.19427 h -2.4768 c -3.0111,0 -2.3827,1.22208 -5.1697,-10.05417 l -2.1907,-8.86354 -0.1323,9.39271 -0.1322,9.39271 -2.4474,0.0761 -2.4474,0.0761 z m 46.302,12.9784 c 0,-0.0695 0.7789,-2.12741 1.7308,-4.57301 0.9519,-2.44561 2.4939,-6.4111 3.4267,-8.81219 0.9328,-2.40109 2.4261,-6.24479 3.3184,-8.54154 l 1.6224,-4.17591 2.7768,0.0749 2.7767,0.0749 1.2779,3.175 c 0.7028,1.74625 3.0152,7.46991 5.1387,12.71924 2.1234,5.24933 3.8608,9.68844 3.8608,9.86468 0,0.23549 -0.7461,0.30053 -2.8142,0.24535 l -2.8142,-0.0751 -1.0833,-2.84427 -1.0833,-2.84427 h -5.1679 -5.1678 l -1.055,2.84427 -1.0549,2.84427 -2.8443,0.0751 c -1.5643,0.0413 -2.8443,0.0182 -2.8443,-0.0514 z m 15.9013,-11.59926 c -0.2602,-0.61847 -1.0439,-2.64585 -1.7416,-4.50529 -0.6977,-1.85945 -1.2991,-3.34773 -1.3364,-3.30729 -0.037,0.0404 -0.4293,1.08555 -0.8711,2.32247 -0.4417,1.23693 -1.1673,3.23123 -1.6123,4.43178 l -0.8093,2.18281 h 3.4219 3.422 z m -90.643001,11.1125 c -0.062,-0.1819 -0.2128,-0.74073 -0.3353,-1.24185 -0.208,-0.85043 -0.3915,-0.98037 -2.7553,-1.95105 l -2.5324,-1.03995 -1.02,0.6931 -1.02,0.6931 -1.5233,-1.50739 c -1.3929,-1.37832 -1.4932,-1.5538 -1.1714,-2.04933 1.096,-1.6879 1.1017,-1.46421 -0.1062,-4.17626 -1.1506,-2.58328 -1.4021,-2.83567 -2.8345,-2.84436 -0.5697,-0.003 -0.5953,-0.0988 -0.5953,-2.22395 v -2.22034 l 1.2113,-0.22706 c 1.2113,-0.22706 1.2113,-0.22706 2.2856,-2.81471 l 1.0742,-2.58765 -0.6846,-0.96225 -0.6847,-0.96225 1.4899,-1.54029 1.4899,-1.54029 1.112,0.65169 1.1121,0.65169 2.4779,-1.00405 c 2.4779,-1.00406 2.4779,-1.00406 2.705,-2.24223 l 0.227,-1.23818 h 2.2041 2.2042 l 0.1834,1.22305 c 0.1788,1.19235 0.224,1.24129 1.8021,1.94995 3.2702,1.46851 3.3922,1.48736 4.547001,0.70265 l 1.0276,-0.69827 1.5167,1.50091 1.5167,1.5009 -0.6673,1.20989 -0.6674,1.20988 0.8864,2.24594 c 0.9228,2.3381 0.9686,2.38153 2.9285,2.77909 0.7382,0.14974 0.7382,0.14974 0.6614,2.30321 l -0.077,2.15346 -1.1906,0.28624 c -2.052,0.4933 -3.7219,4.6688 -2.5544,6.38693 l 0.6999,1.0301 -1.5074,1.52329 c -1.3783,1.39285 -1.5537,1.49316 -2.0493,1.17139 -1.756701,-1.14068 -1.515301,-1.1401 -4.159501,-0.01 -2.4668,1.05433 -2.4668,1.05433 -2.6944,2.30014 l -0.2276,1.24582 h -2.0963 c -1.4406,0 -2.1316,-0.10345 -2.209,-0.33073 z m 1.7167,-8.26823 v -1.19063 h -1.852 c -1.1345,0 -1.8521,0.10926 -1.8521,0.28198 0,1.02519 1.4855,2.0677 2.9765,2.08892 0.6875,0.01 0.7276,-0.0553 0.7276,-1.18027 z m 2.9635,0.87889 c 0.9959,-0.29838 2.0145,-1.50125 1.6121,-1.90368 -0.091,-0.0912 -0.9794,-0.16584 -1.9738,-0.16584 h -1.808 v 1.19063 c 0,1.34908 0.2552,1.45248 2.1697,0.87889 z m -7.4614,-1.54035 c 0,-0.14552 -0.1261,-0.26458 -0.2802,-0.26458 -0.1541,0 -0.2066,0.11906 -0.1166,0.26458 0.09,0.14552 0.216,0.26458 0.2802,0.26458 0.064,0 0.1166,-0.11906 0.1166,-0.26458 z m 10.3188,0 c 0,-0.14552 -0.053,-0.26458 -0.1167,-0.26458 -0.064,0 -0.1903,0.11906 -0.2802,0.26458 -0.09,0.14552 -0.037,0.26458 0.1167,0.26458 0.1541,0 0.2802,-0.11906 0.2802,-0.26458 z m -10.9451,-1.65364 c -0.086,-0.47295 -0.2362,-1.7231 -0.3328,-2.77813 l -0.1756,-1.91823 h -1.2847 c -1.5959,0 -1.697,0.5829 -0.529,3.05168 1.1818,2.49818 2.671,3.55289 2.3221,1.64468 z m 12.8063,-0.38775 c 1.703501,-2.68609 1.761501,-4.30861 0.154,-4.30861 h -1.1598 l -0.1857,1.7342 c -0.1022,0.95382 -0.2912,2.10186 -0.4201,2.55122 -0.4927,1.71811 0.5274,1.73279 1.6116,0.0232 z m -8.5712,0.71847 h 0.8891 v -2.51354 -2.51354 h -2.5435 -2.5436 l 0.1735,1.25677 c 0.095,0.69123 0.3094,1.89503 0.4756,2.67513 l 0.302,1.41836 1.1789,-0.16159 c 0.6484,-0.0889 1.579,-0.16159 2.068,-0.16159 z m 6.1666,-0.7276 c 0.1514,-0.5457 0.352,-1.73633 0.4458,-2.64583 l 0.1707,-1.65365 h -2.5501 -2.5501 v 2.49972 2.49971 l 1.3891,0.0972 c 0.7639,0.0534 1.7108,0.1192 2.1042,0.14611 0.6162,0.0422 0.7532,-0.0883 0.9904,-0.94324 z m -10.7859,-7.21069 c 0.099,-1.09184 0.3045,-2.31223 0.4565,-2.71198 0.2474,-0.6507 0.2177,-0.72681 -0.2832,-0.72681 -0.6902,0 -1.089,0.48036 -2.0872,2.51354 -1.202,2.44859 -1.0994,3.09222 0.477,2.99106 l 1.2568,-0.0806 z m 5.5084,-0.52837 v -2.64584 l -1.5213,-0.004 c -0.8368,-0.002 -1.775,-0.0717 -2.085,-0.15488 -0.523,-0.14033 -0.5947,0.0177 -0.9928,2.18643 -0.6499,3.54133 -0.8273,3.26373 2.0856,3.26373 h 2.5135 z m 5.7273,0.85989 c -0.2722,-2.86726 -0.6254,-3.85234 -1.315,-3.66738 -0.3167,0.0849 -1.2604,0.15605 -2.0971,0.15804 l -1.5214,0.004 v 2.64584 2.64583 h 2.5515 2.5516 z m 3.2671,1.19063 c 0,-1.80657 -1.7002,-4.96094 -2.6668,-4.96094 -0.4089,0 -0.5186,0.11667 -0.4001,0.42544 0.09,0.234 0.3075,1.48415 0.4837,2.77813 l 0.3204,2.35268 h 1.1321 c 0.9982,0 1.132,-0.0705 1.1307,-0.59531 z m -8.9944,-6.54844 c 0,-0.92158 -0.077,-1.05814 -0.5953,-1.05686 -1.1007,0.003 -2.5712,0.54674 -2.8411,1.05104 -0.5028,0.9394 -0.317,1.06415 1.5844,1.06415 h 1.852 z m 4.6036,0.83687 c 0.4429,-0.71663 -1.5481,-1.8896 -3.2145,-1.89373 -0.5184,-0.001 -0.5953,0.13528 -0.5953,1.05686 v 1.05833 h 1.8365 c 1.01,0 1.898,-0.0996 1.9733,-0.22146 z m 65.462501,-7.21292 c -6.3251,-0.34541 -13.4587,-1.19057 -27.7983,-3.29342 -24.4751,-3.58921 -28.1867,-4.0378 -35.256301,-4.26109 -10.0227,-0.31657 -16.9427,1.07549 -21.3201,4.28881 l -1.3018,0.95557 v -2.66157 c 0,-3.10157 -0.1914,-2.88865 3.7042,-4.11907 7.6178,-2.40605 19.7925,-3.12953 29.236501,-1.73737 0.8731,0.12871 4.9212,0.72381 8.9958,1.32245 4.0746,0.59864 11.2779,1.68091 16.0073,2.40504 31.5607,4.83233 47.503,4.7856 55.0144,-0.16128 l 1.3418,-0.88368 v 2.33538 2.33539 l -1.8519,0.68643 c -6.727,2.49349 -15.4793,3.40508 -26.7716,2.78841 z"
       id="path21"
       inkscape:export-filename="path21.svg"
       inkscape:export-xdpi="571.5"
       inkscape:export-ydpi="571.5" /></g></svg>
