<?xml version="1.0" encoding="UTF-8" standalone="no"?>
<!-- Created with Inkscape (http://www.inkscape.org/) -->

<svg
   width="125.11158mm"
   height="25.043816mm"
   viewBox="0 0 125.11158 25.043816"
   version="1.1"
   id="svg1"
   xml:space="preserve"
   xmlns="http://www.w3.org/2000/svg"
   xmlns:svg="http://www.w3.org/2000/svg"><defs
     id="defs1" /><g
     id="layer1"
     transform="translate(-48.01785,-27.785361)"><path
       style="fill:#8b8b8b;fill-opacity:1"
       d="m 62.530314,50.169779 c 0,-3.19597 0.42926,-3.53603 1.80124,-1.42689 l 0.80553,1.23834 0.74714,-1.23744 c 0.53754,-0.89032 0.89557,-1.21915 1.27629,-1.1722 0.75818,0.0935 0.82127,5.02883 0.0661,5.17426 -0.39625,0.0763 -0.46302,-0.12347 -0.46302,-1.38544 0,-1.66634 -0.19634,-1.82367 -0.84759,-0.67919 -0.5685,0.99908 -0.83986,0.99432 -1.59189,-0.0279 l -0.60323,-0.81997 -0.13229,1.41299 c -0.10027,1.07101 -0.24435,1.43424 -0.59531,1.50083 -0.41614,0.0789 -0.46302,-0.18201 -0.46302,-2.5774 z m 6.34784,2.16341 c -0.003,-0.67385 1.868,-4.77731 2.24423,-4.92168 0.65393,-0.25094 2.78501,3.48979 2.78501,4.88857 0,0.72073 -0.7541,0.60806 -1.10648,-0.16532 -0.25148,-0.55196 -0.48442,-0.66146 -1.40706,-0.66146 -0.92264,0 -1.15558,0.1095 -1.40707,0.66146 -0.34446,0.756 -1.1054,0.8922 -1.10863,0.19843 z m 3.17716,-1.74645 c 0,-0.0511 -0.13621,-0.48353 -0.30268,-0.96107 -0.30268,-0.86825 -0.30268,-0.86825 -0.65208,-0.23792 -0.52168,0.94112 -0.44206,1.2918 0.2933,1.2918 0.3638,0 0.66146,-0.0418 0.66146,-0.0928 z m 3.02299,1.85663 c -0.0745,-0.19407 -0.1005,-1.35493 -0.0578,-2.57969 l 0.0776,-2.22684 1.64134,-0.0785 c 2.41413,-0.11539 3.61894,1.43276 2.21083,2.84086 -0.50822,0.50822 -0.50804,0.52034 0.0172,1.18807 0.29185,0.37104 0.45635,0.79483 0.36555,0.94176 -0.30186,0.48841 -0.90484,0.27652 -1.49863,-0.52662 -0.35771,-0.48383 -0.82567,-0.79375 -1.19854,-0.79375 -0.50328,0 -0.6117,0.14069 -0.6117,0.79375 0,0.82535 -0.67711,1.14101 -0.94576,0.44091 z m 2.75773,-2.52718 c 0.71125,-0.45074 0.22854,-1.216 -0.82199,-1.30313 -0.89074,-0.0739 -0.98998,-0.0186 -0.98998,0.55121 0,0.97494 0.88231,1.34107 1.81197,0.75192 z m 2.79852,2.52718 c -0.40648,-1.05927 0.0214,-4.80653 0.54888,-4.80653 0.55395,0 0.91406,3.05859 0.53699,4.56095 -0.1637,0.65223 -0.86865,0.81166 -1.08587,0.24558 z m 2.53326,-2.27359 c 0,-3.31044 0.39601,-3.52187 2.17424,-1.16083 l 1.13305,1.50441 0.13229,-1.43826 c 0.11201,-1.21777 0.21341,-1.43826 0.66146,-1.43826 0.49198,0 0.52916,0.17639 0.52916,2.50992 0,3.22254 -0.35136,3.39172 -2.16994,1.04481 l -1.26964,-1.63849 -0.13229,1.5531 c -0.10263,1.20488 -0.23611,1.57279 -0.59531,1.64096 -0.41615,0.079 -0.46302,-0.18196 -0.46302,-2.57736 z m 6.08541,-0.008 v -2.65742 h 2.00378 c 2.54495,0 2.92332,0.86285 0.44114,1.00601 -1.96012,0.11305 -2.06345,1.03823 -0.12981,1.1623 0.9049,0.0581 1.25677,0.19176 1.25677,0.47752 0,0.28576 -0.35187,0.41945 -1.25677,0.47752 -1.93531,0.12418 -1.83001,1.04932 0.13229,1.1623 2.29873,0.13235 1.89787,0.8531 -0.52917,0.95146 l -1.91823,0.0777 z m 7.43917,2.17122 c -0.80532,-0.66949 -0.34571,-1.38241 0.573931,-0.89023 0.72912,0.39021 1.81851,0.31102 1.9679,-0.14306 0.0553,-0.16813 -0.35208,-0.45107 -0.90532,-0.62876 -1.884611,-0.60531 -2.496221,-1.78015 -1.42936,-2.74565 0.92398,-0.83619 3.201605,-0.53789 3.201605,0.41932 0,0.45931 -0.108755,0.5113 -0.727615,0.34785 -1.20538,-0.31834 -1.49667,-0.28337 -1.59494,0.1915 -0.0654,0.3161 0.13198,0.50606 0.65132,0.62679 1.850345,0.43012 2.567965,1.83742 1.45196,2.84738 -0.64679,0.58533 -2.47247,0.57094 -3.189481,-0.0251 z m 4.848726,0.12185 c -0.0769,-0.20049 -0.10498,-1.3666 -0.0623,-2.59136 l 0.0776,-2.22684 1.69192,-0.0798 c 2.07518,-0.0978 2.60536,0.0537 2.14194,0.61207 -0.19825,0.23887 -0.78235,0.39374 -1.48501,0.39374 -0.98184,0 -1.15823,0.0806 -1.15823,0.52917 0,0.45203 0.17639,0.52916 1.21003,0.52916 1.69119,0 1.61412,0.88401 -0.0878,1.0074 -1.81441,0.13155 -1.60249,1.05397 0.26686,1.16159 1.02279,0.0589 1.38907,0.18462 1.38907,0.47685 0,0.55639 -3.77428,0.73448 -3.98399,0.18799 z m 5.17461,-2.28526 v -2.66523 h 1.67879 c 1.90377,0 2.55454,0.43812 2.55454,1.71979 0,0.41364 -0.19704,0.96982 -0.43788,1.23594 -0.40745,0.45023 -0.40745,0.51747 0,0.96771 0.24084,0.26612 0.43788,0.68283 0.43788,0.92604 0,0.69698 -0.76476,0.51723 -1.4958,-0.35157 -0.85692,-1.01838 -1.61466,-1.04838 -1.72777,-0.0684 -0.0505,0.43747 -0.26748,0.76019 -0.54674,0.81315 -0.41614,0.0789 -0.46302,-0.18205 -0.46302,-2.57743 z m 2.90762,-0.4129 c 0.53744,-0.64758 0.11873,-1.194 -0.91494,-1.194 -0.86177,0 -0.93435,0.0617 -0.93435,0.79375 0,0.9027 1.2142,1.16549 1.84929,0.40025 z m 3.08327,0.73717 c -1.10908,-2.65736 -1.15997,-2.9895 -0.45802,-2.9895 0.38108,0 0.68669,0.46109 1.23953,1.87018 l 0.73374,1.87019 0.71429,-1.80404 c 0.66376,-1.67641 1.29908,-2.3228 1.67893,-1.70818 0.0875,0.1416 -0.29434,1.30905 -0.84856,2.59434 -1.39412,3.23306 -1.77165,3.25367 -3.05991,0.16701 z m 5.02261,1.89664 c -0.59798,-1.55833 -0.0487,-5.10097 0.74374,-4.79688 0.63704,0.24446 0.49923,5.0224 -0.14843,5.14622 -0.23635,0.0452 -0.50424,-0.11201 -0.59531,-0.34934 z m 3.47243,0.11974 c -2.49154,-1.45118 -0.69585,-5.77848 2.1189,-5.10617 1.96339,0.46895 1.92989,1.49165 -0.0413,1.25998 -1.56315,-0.18372 -2.01148,0.16399 -2.01148,1.56003 0,1.18671 1.76499,2.02404 2.56987,1.21916 0.35027,-0.35027 0.86972,-0.0916 0.86972,0.43305 0,0.81701 -2.43534,1.2574 -3.50574,0.63395 z m 4.69141,-0.30121 c -0.0842,-0.33543 -0.11751,-1.50143 -0.0741,-2.59112 l 0.079,-1.98126 h 1.98438 c 2.48189,0 2.98352,0.73623 0.59531,0.87372 -1.94801,0.11216 -2.10897,1.11065 -0.17904,1.11065 1.6912,0 1.61413,0.88401 -0.0878,1.0074 -1.8144,0.13155 -1.60248,1.05397 0.26687,1.16159 2.29402,0.13207 1.89899,0.85301 -0.52126,0.9513 -1.80392,0.0733 -1.91884,0.0436 -2.06338,-0.53228 z m 5.49506,0.31417 c -0.34358,-0.1381 -0.59532,-0.46666 -0.59532,-0.77698 0,-0.55445 0.63621,-0.74208 0.92605,-0.27311 0.0899,0.14552 0.57321,0.26458 1.07394,0.26458 1.24579,0 1.19532,-0.66124 -0.0818,-1.07126 -1.87241,-0.60116 -2.36349,-1.49524 -1.44457,-2.63005 0.74646,-0.92185 3.75395,-0.61761 3.41825,0.34579 -0.10712,0.30741 -0.4714,0.33735 -1.76439,0.14501 -0.97029,-0.14433 -1.05174,0.71097 -0.0902,0.94747 1.80673,0.44437 2.5507,1.87059 1.51569,2.9056 -0.45347,0.45347 -1.99926,0.52818 -2.95766,0.14295 z m 7.00024,0.10727 c -0.50779,-0.50779 -0.19972,-5.12611 0.34194,-5.12611 0.48478,0 0.52917,0.17639 0.52917,2.10284 v 2.10284 l 1.38906,0.08 c 1.02279,0.0589 1.38907,0.18462 1.38907,0.47685 0,0.42303 -3.26454,0.74831 -3.64924,0.36361 z m 4.40705,-0.22955 c -0.0916,-0.23882 -0.0397,-0.56108 0.11531,-0.71615 0.40312,-0.40312 1.16692,-0.0347 1.06162,0.5121 -0.11729,0.60904 -0.96511,0.75603 -1.17693,0.20405 z m 2.40214,0.0544 c -0.41006,-1.06859 0.0135,-4.8187 0.54421,-4.8187 0.47666,0 0.53681,0.20206 0.60619,2.03647 l 0.077,2.03647 1.2459,0.0802 c 0.89543,0.0576 1.24589,0.19184 1.24589,0.47708 0,0.55529 -3.51019,0.73319 -3.71921,0.18849 z m 4.49727,0.0507 c -0.23326,-0.37742 0.53893,-1.1496 0.91634,-0.91634 0.50423,0.31162 0.3384,1.20631 -0.22358,1.20631 -0.28245,0 -0.59419,-0.13048 -0.69276,-0.28997 z m 2.71439,-0.39078 c -2.12293,-2.12292 -0.10085,-5.394 2.83354,-4.58378 1.56345,0.43169 1.35423,1.38882 -0.25097,1.1481 -1.42252,-0.21332 -2.23856,0.32277 -2.23856,1.4706 0,1.30791 1.40904,1.98483 2.69688,1.2956 0.82217,-0.44001 1.18295,0.27562 0.44729,0.88721 -0.87397,0.72657 -2.65506,0.61539 -3.48818,-0.21773 z m 4.93078,0.26609 c -0.0875,-0.22806 -0.0234,-0.55038 0.14249,-0.71626 0.37238,-0.37238 1.25458,0.38854 0.97497,0.84095 -0.26408,0.42729 -0.93434,0.3525 -1.11746,-0.12469 z m -44.07994,-9.38273 c -8.48818,-2.13171 -7.4396,-14.30945 1.29249,-15.01038 6.99337,-0.56136 11.07781,7.4588 6.47078,12.70592 -1.66639,1.89791 -5.20249,2.94757 -7.76327,2.30446 z m 4.02266,-3.92489 c 4.19252,-3.02604 0.40301,-9.66635 -4.05715,-7.1093 -3.79248,2.17426 -1.81095,8.31691 2.48599,7.70648 0.50933,-0.0724 1.21635,-0.34109 1.57116,-0.59718 z m 11.74145,3.93085 c -0.78166,-0.31493 -0.85896,-0.48544 -3.12684,-6.89674 -2.37842,-6.72379 -2.42968,-7.35615 -0.64691,-7.98178 1.33998,-0.47024 1.93394,0.34114 3.26445,4.4594 0.69986,2.16627 1.3547,4.02684 1.4552,4.1346 0.10049,0.10776 0.7732,-1.60349 1.49492,-3.80277 1.44885,-4.41509 1.97108,-5.1646 3.39947,-4.87893 1.23172,0.24635 1.38065,0.50046 2.81405,4.8012 0.74817,2.2448 1.40569,4.08145 1.46116,4.08145 0.0555,0 0.6522,-1.75617 1.32607,-3.9026 1.33232,-4.24382 1.75299,-4.92283 3.0274,-4.8866 2.23374,0.0635 2.20392,0.87556 -0.29042,7.90884 -2.21986,6.25931 -2.7644,7.23036 -4.0546,7.23036 -1.32575,0 -1.91035,-0.88423 -3.23698,-4.89606 -0.69576,-2.10406 -1.34338,-3.73843 -1.43914,-3.63194 -0.0958,0.1065 -0.44186,1.02707 -0.7691,2.04571 -1.96059,6.10289 -2.65835,7.02989 -4.67873,6.21586 z m -77.606356,-0.24558 c -2.3566,-0.71944 -3.51146,-1.73015 -3.39149,-2.96819 0.15375,-1.58677 1.16734,-1.84604 3.18062,-0.81358 2.33039,1.19507 4.70878,1.10362 4.70878,-0.18105 0,-0.70089 -0.41673,-0.95433 -2.64583,-1.60906 -4.49975,-1.32167 -6.11931,-3.96142 -4.26813,-6.95668 1.6455,-2.66248 7.75831,-2.92557 9.62957,-0.41446 1.28374,1.7227 -0.43409,3.08465 -2.67486,2.1207 -1.5809,-0.68009 -3.26886,-0.74865 -3.76332,-0.15287 -0.53515,0.64482 10e-4,1.23208 1.63198,1.78712 3.26331,1.11063 3.73392,1.31454 4.47729,1.94005 2.24875,1.8922 1.32899,5.83989 -1.65059,7.08453 -1.03157,0.43091 -4.04931,0.52517 -5.23402,0.16349 z m 10.96818,-0.40201 c -0.64943,-0.64943 -0.64943,-0.64943 -0.64943,-6.7589 0,-7.97437 -0.44383,-7.40834 5.8088,-7.40834 4.92824,0 5.56828,0.19297 5.56828,1.67879 0,1.26346 -0.67206,1.49621 -4.32031,1.49621 h -3.35261 v 1.16136 1.16136 l 2.87329,0.0983 c 3.23737,0.11081 3.7413,0.33943 3.7413,1.69738 0,1.39964 -0.69276,1.7024 -3.89533,1.7024 h -2.71926 v 1.19062 1.19063 h 3.24842 c 3.88324,0 4.5028,0.25574 4.37283,1.80499 -0.1229,1.46486 -0.68816,1.62614 -5.71504,1.63069 -4.22731,0.004 -4.32419,-0.009 -4.96094,-0.64553 z m 12.48845,0.16558 c -0.71536,-0.79046 -0.559,-1.32597 2.25398,-7.71945 3.12274,-7.09754 3.86651,-7.90663 5.84074,-6.35371 0.67549,0.53135 6.01948,12.11724 6.01948,13.05038 0,2.38253 -3.13502,1.78391 -3.97421,-0.75886 l -0.30016,-0.90951 h -3.03159 -3.0316 l -0.53176,1.25677 c -0.81302,1.9215 -2.23514,2.55013 -3.24488,1.43438 z m 7.74208,-7.50977 c -0.92729,-2.35255 -0.93153,-2.35422 -1.68111,-0.66394 -0.90166,2.0332 -0.89796,2.04298 0.77333,2.04298 h 1.45134 z m 12.3001,7.43668 c -0.87031,-0.96169 -0.76443,-13.03729 0.1206,-13.75394 1.46789,-1.18862 7.782926,-0.59313 9.476196,0.89358 4.11407,3.6122 1.01326,9.14885 -5.139885,9.1775 l -1.38906,0.006 v 1.67878 c 0,2.412 -1.694371,3.51527 -3.067851,1.99761 z m 6.916346,-7.76541 c 1.54007,-1.54007 0.48457,-3.05473 -2.128705,-3.05473 h -1.71979 v 1.85208 1.85208 h 1.59953 c 1.345485,0 1.702675,-0.10314 2.248965,-0.64943 z m 45.89318,7.79318 c -0.86707,-0.86706 -0.81447,-13.26391 0.0589,-13.87562 0.62847,-0.4402 9.26986,-0.62316 9.88954,-0.20939 0.97297,0.64968 1.08005,1.75769 0.25007,2.58767 -0.61763,0.61763 -0.80548,0.64943 -3.83646,0.64943 h -3.18702 v 1.03492 1.03493 l 2.93222,0.0896 c 3.22262,0.0984 3.68236,0.32876 3.68236,1.84491 0,1.23167 -0.80387,1.55194 -3.89533,1.55194 h -2.71925 v 1.19062 1.19063 h 3.30729 c 3.63829,0 4.36562,0.28652 4.36562,1.71979 0,1.53785 -0.60179,1.71979 -5.68854,1.71979 -4.27743,0 -4.67052,-0.0403 -5.15937,-0.52917 z m 13.49375,0 c -0.88342,-0.88341 -0.81067,-12.87246 0.0832,-13.71221 0.70769,-0.66483 6.66343,-0.85898 8.41014,-0.27416 3.76747,1.26139 4.66023,6.57475 1.45769,8.67559 l -0.70903,0.46511 1.19984,1.45743 c 1.33255,1.61864 1.55207,2.72288 0.69541,3.49814 -1.06598,0.9647 -2.08405,0.49184 -4.0817,-1.89583 -1.71143,-2.04556 -1.89085,-2.18282 -2.8534,-2.18282 h -1.02714 v 1.7198 c 0,1.99076 -0.52491,2.77812 -1.85209,2.77812 -0.44097,0 -1.02893,-0.23518 -1.32291,-0.52917 z m 7.55265,-8.05776 c 1.54019,-1.54019 0.46802,-2.79015 -2.39328,-2.79015 h -1.98437 v 1.71979 1.71979 h 1.86411 c 1.6264,0 1.94692,-0.0828 2.51354,-0.64943 z"
       id="path14" /></g></svg>
