<?xml version="1.0" encoding="UTF-8" standalone="no"?>
<!-- Created with Inkscape (http://www.inkscape.org/) -->

<svg
   width="151.01231mm"
   height="16.400291mm"
   viewBox="0 0 151.01231 16.400291"
   version="1.1"
   id="svg1"
   xml:space="preserve"
   xmlns="http://www.w3.org/2000/svg"
   xmlns:svg="http://www.w3.org/2000/svg"><defs
     id="defs1" /><g
     id="layer1"
     transform="translate(-29.493838,-168.09695)"><path
       style="fill:#8b8b8b;fill-opacity:1;stroke-width:1.55708"
       d="m 29.76849,183.99735 c -0.151052,-0.15104 -0.274652,-3.77375 -0.274652,-8.05043 v -7.77579 l 12.738721,0.1199 c 12.738721,0.11989 12.738721,0.11989 13.801265,1.11861 1.3287,1.24895 1.481571,3.9578 0.295218,5.2312 -0.748449,0.80338 -0.748449,0.84695 0,1.77124 2.053791,2.53632 0.32926,6.93822 -2.977265,7.59953 -1.741659,0.34832 -23.233694,0.33537 -23.583287,-0.014 z m 21.895147,-4.75771 c 0.177501,-1.53946 -0.28911,-1.60794 -10.016446,-1.47008 l -8.239561,0.11679 -0.12969,1.34687 -0.129689,1.34689 9.193207,-0.11102 9.193209,-0.11086 z m -0.128973,-6.29703 v -1.23593 l -9.166513,-0.11087 -9.166512,-0.11086 v 1.45769 1.45768 l 9.166512,-0.11087 9.166513,-0.11086 z m 8.533899,10.98073 c -0.391061,-0.24812 -0.498841,-1.51288 -0.411977,-4.83443 l 0.117637,-4.49839 11.535386,-0.20599 11.53539,-0.20599 v -1.23593 -1.23593 l -11.638384,-0.10947 -11.638381,-0.10946 v -1.64151 -1.64149 l 12.050358,0.002 c 11.217597,0.001 12.141337,0.057 13.366897,0.80428 3.73184,2.27546 3.31478,7.10615 -0.73155,8.47332 l -1.24779,0.42159 1.87632,1.40588 c 1.39007,1.04154 1.87632,1.68496 1.87632,2.48284 0,2.68899 -2.09546,2.70525 -5.75346,0.0447 -4.91948,-3.57813 -5.43815,-3.74662 -11.533209,-3.74662 h -5.372127 v 2.59547 c 0,3.29396 -1.739295,4.6899 -4.031431,3.23554 z m 35.035426,-0.11149 c -5.55891,-1.60539 -6.74446,-10.54151 -1.89011,-14.24669 l 1.51222,-1.15424 9.714611,-0.11304 c 9.08273,-0.10573 9.80062,-0.0599 11.03693,0.7048 4.20295,2.59967 4.30421,11.57789 0.16167,14.33707 -1.52446,1.01539 -17.391111,1.38019 -20.535321,0.47215 z m 14.887191,-3.19318 c 4.08568,-0.45366 5.97459,-4.17202 3.74002,-7.36232 -2.02365,-2.88915 -17.085261,-2.36225 -18.699621,0.65417 -2.88427,5.38933 3.01452,8.03445 14.959601,6.70815 z m 16.52348,3.11805 c -2.34232,-0.93733 -3.01238,-1.51639 -3.91693,-3.38495 -1.85052,-3.82262 -0.98101,-8.5673 1.98489,-10.83116 2.16129,-1.6497 19.98328,-1.97162 22.33704,-0.4035 3.95787,2.63684 4.30263,10.46854 0.61271,13.91904 -1.28716,1.20364 -18.34012,1.77207 -21.01771,0.70057 z m 18.14946,-4.01745 c 2.08831,-1.96187 1.4896,-6.22706 -1.05237,-7.4969 -2.01975,-1.00899 -12.35686,-1.0456 -14.8387,-0.0526 -3.47078,1.38873 -3.83979,6.60648 -0.55815,7.89236 3.25974,1.27731 14.98477,1.03288 16.44922,-0.3429 z m 8.92678,3.91148 c -0.88448,-0.6195 -0.91562,-0.87709 -0.91562,-7.57114 0,-7.683 0.10837,-8.01396 2.54795,-7.77979 l 1.36584,0.1311 0.12098,2.98685 0.12099,2.98684 h 4.28744 c 6.68968,0 9.67607,-0.88872 14.42015,-4.29124 2.18118,-1.56439 3.89487,-1.87568 4.73735,-0.86056 0.78116,0.94123 -0.4322,2.46396 -3.54429,4.44801 l -2.65265,1.69113 3.09948,2.90515 c 3.17299,2.97404 3.41274,3.40336 2.6727,4.78612 -0.681,1.27247 -2.13398,0.93628 -4.75424,-1.10001 -4.3219,-3.35868 -4.66642,-3.45883 -11.89997,-3.45883 h -6.40207 v 2.48207 c 0,2.28527 -0.0838,2.51393 -1.05676,2.88386 -1.29828,0.49359 -1.06325,0.51981 -2.14738,-0.23956 z"
       id="path17" /></g></svg>
