<?xml version="1.0" encoding="UTF-8" standalone="no"?>
<!-- Created with Inkscape (http://www.inkscape.org/) -->

<svg
   width="192.97173mm"
   height="78.423027mm"
   viewBox="0 0 192.97173 78.423027"
   version="1.1"
   id="svg1"
   xml:space="preserve"
   xmlns="http://www.w3.org/2000/svg"
   xmlns:svg="http://www.w3.org/2000/svg"><defs
     id="defs1" /><g
     id="layer1"
     transform="translate(-25.502493,-328.76986)"><path
       style="fill:#8b8b8b;fill-opacity:1;stroke-width:0.403473"
       d="m 149.57194,328.1532 c -3.00643,-2.38909 -8.08532,-7.26328 -11.3826,-10.92383 l -1.11636,-1.23935 -0.75181,-0.0581 c -6.23616,-0.48148 -9.54869,-0.87864 -13.93572,-1.67084 -4.03742,-0.72907 -8.18803,-1.72376 -5.76057,-1.38051 5.19864,0.73508 17.04118,1.80483 18.7009,1.68925 l 0.50367,-0.0351 -0.75239,-0.95428 c -2.61422,-3.31569 -2.98694,-4.70854 -1.52755,-5.70853 1.16582,-0.79883 5.92952,-1.14483 14.59167,-1.05982 l 4.03163,0.0396 0.19948,-0.53531 c 0.69646,-1.86902 1.51345,-5.10871 2.09143,-8.29334 0.49871,-2.74784 0.59966,-2.97931 0.52733,-1.20917 -0.14393,3.52274 -0.42581,6.66101 -0.79566,8.85853 -0.10851,0.64479 -0.18843,1.17998 -0.17759,1.1893 0.0109,0.009 1.89321,0.0719 4.18305,0.13903 6.85275,0.20097 13.12218,0.48964 19.9093,0.91672 8.9548,0.56349 9.465,0.52667 -8.16654,0.58934 -8.80707,0.0313 -16.09188,0.0946 -16.18848,0.14057 -0.10353,0.0493 -0.24891,0.37536 -0.35412,0.79423 -1.37736,5.48329 -2.93037,6.48358 -10.29337,6.62996 l -3.2437,0.0645 0.83192,1.1209 c 1.83531,2.47279 6.12947,7.53267 9.53538,11.23568 0.423,0.4599 0.20604,0.34819 -0.6593,-0.33946 z m -8.07782,-13.78941 c 3.79766,-0.33749 6.09634,-1.17259 7.74828,-2.81494 0.91508,-0.90977 2.08093,-2.53937 1.9269,-2.6934 -0.26305,-0.26305 -12.03756,0.92467 -12.95673,1.30698 -0.87356,0.36334 -0.86423,1.42885 0.0284,3.24771 l 0.57465,1.17091 0.72541,-0.0541 c 0.39897,-0.0297 1.27784,-0.10317 1.95305,-0.16318 z m 0.38254,-13.49863 c -0.81318,-1.0872 -1.49198,-1.96309 -1.50844,-1.94645 -0.0165,0.0166 -0.10814,0.7028 -0.20375,1.52479 -0.25146,2.16198 -0.22712,2.08167 -0.63091,2.08167 h -0.34231 l 0.31859,-2.66881 c 0.17524,-1.46784 0.35191,-2.66881 0.39262,-2.66881 0.0407,0 0.73975,0.89035 1.55341,1.97855 l 1.4794,1.97854 0.23025,-1.84511 c 0.12664,-1.0148 0.23472,-1.8571 0.24019,-1.87178 0.0525,-0.14087 0.65083,0.006 0.65259,0.16013 0.004,0.39421 -0.57536,5.1014 -0.63758,5.1757 -0.0361,0.043 -0.73088,-0.81124 -1.54406,-1.89842 z m 23.48398,-0.002 c -0.81234,-1.08607 -1.49312,-1.95854 -1.51283,-1.93882 -0.0269,0.0269 -0.46947,3.39056 -0.46947,3.56806 0,0.018 -0.16905,0.0328 -0.37567,0.0328 -0.33378,0 -0.36988,-0.0268 -0.32382,-0.2402 0.0285,-0.1321 0.18102,-1.33307 0.33888,-2.6688 0.15786,-1.33574 0.31683,-2.42861 0.35325,-2.42861 0.0364,0 0.71227,0.86468 1.50189,1.92154 0.78962,1.05684 1.46221,1.92154 1.49464,1.92154 0.0324,0 0.15376,-0.80465 0.26962,-1.78811 l 0.21066,-1.7881 0.34694,-0.0335 c 0.27663,-0.0267 0.34661,0.006 0.3453,0.16013 -0.003,0.34241 -0.61175,5.16604 -0.65788,5.21216 -0.0245,0.0245 -0.70916,-0.84409 -1.52151,-1.93015 z m -44.04587,0.0481 -0.45545,-1.82746 -0.6514,1.71919 c -0.65141,1.71921 -0.65141,1.71921 -0.99835,1.72071 -0.19082,6.4e-4 -0.347,-0.0345 -0.34706,-0.0786 -4.1e-4,-0.31675 2.07976,-5.46322 2.14059,-5.29578 0.0396,0.10909 0.28281,1.02691 0.54039,2.0396 0.25758,1.01268 0.49235,1.83811 0.5217,1.83429 0.0294,-0.004 0.49975,-0.92245 1.04531,-2.04137 0.54557,-1.11894 1.01554,-2.01082 1.04439,-1.98197 0.0289,0.0289 0.19355,1.12772 0.36599,2.44193 0.17244,1.31422 0.34115,2.5456 0.37492,2.73642 0.0598,0.33773 0.0513,0.34695 -0.31709,0.34695 -0.20816,0 -0.37847,-0.0464 -0.37847,-0.10308 0,-0.13541 -0.30316,-2.40588 -0.38534,-2.88599 -0.0612,-0.35765 -0.10233,-0.29715 -0.96083,1.41447 -0.49328,0.98346 -0.93894,1.7881 -0.99036,1.7881 -0.0514,0 -0.29845,-0.82235 -0.54894,-1.82746 z m 47.71631,1.48015 c -0.62582,-0.42174 -0.80999,-0.8647 -0.45595,-1.09668 0.21044,-0.13788 0.30196,-0.15428 0.33347,-0.0597 0.32291,0.96875 1.73146,0.89747 1.72726,-0.0874 -0.002,-0.47948 -0.0285,-0.51661 -0.74563,-1.04421 -1.21263,-0.8922 -1.37059,-1.67269 -0.50079,-2.47444 0.7736,-0.71308 2.74588,0.0298 2.01624,0.75948 l -0.22621,0.2262 -0.22536,-0.2865 c -0.29918,-0.38033 -0.96713,-0.40734 -1.21796,-0.0492 -0.34869,0.49785 -0.15623,0.8301 0.88209,1.52276 0.55555,0.37061 0.76665,0.74458 0.76612,1.35719 -10e-4,1.19011 -1.36005,1.90193 -2.35328,1.23259 z m 14.26767,0.004 c -0.82536,-0.48526 -0.92033,-0.95099 -0.6476,-3.17567 0.2302,-1.87774 0.21142,-1.81932 0.58515,-1.81932 0.38106,0 0.38539,0.0468 0.1581,1.70803 -0.33051,2.41558 -0.0631,3.09016 1.11439,2.81156 0.72097,-0.17057 0.85625,-0.49067 1.12059,-2.65143 l 0.22201,-1.81479 0.3461,-0.0335 c 0.41986,-0.0406 0.41211,-0.16603 0.12741,2.06175 -0.32105,2.51228 -0.66136,3.05311 -1.96519,3.12318 -0.52118,0.028 -0.72493,-0.0123 -1.06096,-0.20985 z m -57.49723,0.0715 c 0,-0.18712 2.93422,-5.37701 3.00049,-5.30711 0.042,0.0443 0.41877,1.20938 0.83737,2.58916 0.41861,1.37977 0.78278,2.5716 0.80927,2.6485 0.0353,0.10236 -0.0582,0.13097 -0.3487,0.10675 -0.38744,-0.0323 -0.40161,-0.0489 -0.59551,-0.70027 l -0.19862,-0.6672 h -0.999 -0.99899 l -0.35283,0.6672 c -0.32755,0.61937 -0.38153,0.66958 -0.75316,0.70033 -0.22017,0.0182 -0.40032,10e-4 -0.40032,-0.0374 z m 3.30679,-1.99738 c -10e-4,-0.0147 -0.11327,-0.40606 -0.24861,-0.86974 l -0.24605,-0.84306 -0.44529,0.81134 c -0.5525,1.00669 -0.57354,0.92815 0.2486,0.92815 0.38163,0 0.69274,-0.012 0.69135,-0.0266 z m 2.78627,1.76818 c 0.005,-0.16518 0.13661,-1.30915 0.29357,-2.54213 l 0.28539,-2.2418 0.65895,-0.0316 c 2.02315,-0.0969 2.53376,2.25033 0.62939,2.89324 -0.0547,0.0185 0.14798,0.44321 0.4504,0.94387 0.76293,1.26309 0.76346,1.2652 0.31228,1.2652 -0.36171,0 -0.3935,-0.0345 -0.98585,-1.07166 -0.71443,-1.25082 -0.68091,-1.25183 -0.83732,0.0251 l -0.12166,0.99318 -0.34666,0.0335 c -0.31839,0.0307 -0.346,0.009 -0.33849,-0.26689 z m 2.02731,-2.76214 c 0.51629,-0.46724 0.29621,-1.26131 -0.385,-1.3891 -0.47577,-0.0893 -0.44062,-0.14541 -0.53295,0.8514 l -0.0781,0.84358 0.40094,-0.0651 c 0.22051,-0.0358 0.48833,-0.14416 0.59515,-0.24082 z m 2.55486,2.99774 c 0,-0.15696 0.54831,-4.63185 0.59216,-4.83272 0.04,-0.18364 0.12735,-0.24018 0.37065,-0.24018 0.39172,0 0.38913,-0.19651 0.0363,2.74887 l -0.28457,2.37523 h -0.35725 c -0.19648,0 -0.35724,-0.0231 -0.35724,-0.0512 z m 9.33725,-0.29574 c 0.0327,-0.19082 0.15486,-1.1636 0.27144,-2.16174 0.11657,-0.99813 0.24032,-1.99493 0.275,-2.2151 l 0.063,-0.40032 h 1.27874 1.27874 l -0.0338,0.29357 c -0.0337,0.29241 -0.0374,0.29368 -0.96193,0.32432 l -0.92815,0.0307 -0.0649,0.50301 c -0.0356,0.27665 -0.0819,0.58707 -0.10269,0.68981 -0.0336,0.16587 0.0608,0.18682 0.84179,0.18682 0.98848,0 1.01102,0.009 0.94084,0.37615 -0.0489,0.25608 -0.0784,0.26437 -0.93829,0.26437 -1.01289,0 -0.95208,-0.0623 -1.06818,1.09421 l -0.0724,0.72057 h 0.91984 c 0.95352,0 1.02161,0.0376 0.85503,0.47166 -0.0541,0.14093 -0.27559,0.16886 -1.33924,0.16886 h -1.27444 z m 14.27078,-2.02829 c 0.16152,-1.30639 0.29611,-2.45932 0.29909,-2.56206 0.004,-0.14221 0.0969,-0.18681 0.38842,-0.18681 0.38267,0 0.38296,3.5e-4 0.31974,0.40032 -0.0348,0.22017 -0.15916,1.21697 -0.27637,2.2151 -0.31455,2.67885 -0.26863,2.50868 -0.67693,2.50868 h -0.34762 z m 13.01371,2.08167 c 0.003,-0.16146 0.11366,-1.15826 0.2456,-2.21512 l 0.2399,-1.92154 -0.6286,-0.032 c -0.51312,-0.0261 -0.61708,-0.0621 -0.56586,-0.19555 0.0345,-0.0899 0.0628,-0.23165 0.0628,-0.31492 0,-0.12376 0.2838,-0.1514 1.555,-0.1514 h 1.55499 l -0.0338,0.29358 c -0.0319,0.27688 -0.0678,0.29535 -0.63232,0.32512 l -0.59854,0.0315 -0.23641,2.05011 c -0.28999,2.51467 -0.2654,2.42375 -0.65537,2.42375 -0.27174,0 -0.31231,-0.0387 -0.30738,-0.29357 z m 3.13626,-0.0534 c 0.0307,-0.19082 0.15405,-1.18762 0.27412,-2.21511 0.31969,-2.73581 0.27592,-2.56205 0.64535,-2.56205 0.39962,0 0.40005,0.0246 0.0485,2.77555 -0.1463,1.14492 -0.26619,2.14172 -0.26643,2.21511 -2.8e-4,0.0816 -0.14755,0.13344 -0.37891,0.13344 -0.36728,0 -0.37683,-0.0102 -0.32266,-0.34694 z m 3.04968,0.20739 c 0,-0.18545 0.40782,-3.55459 0.48384,-3.9971 l 0.0596,-0.34694 H 179.201 c -0.62686,0 -0.62686,0 -0.57986,-0.32026 l 0.047,-0.32025 h 1.53579 1.5358 v 0.32025 c 0,0.31892 -0.003,0.32026 -0.61736,0.32026 h -0.61736 l -0.25982,2.24179 -0.25982,2.2418 h -0.35047 c -0.21741,0 -0.35048,-0.053 -0.35048,-0.13955 z m 9.24862,-1.80867 c 0.34134,-2.75631 0.37051,-2.53537 -0.3348,-2.53537 -0.60226,0 -0.67733,-0.0678 -0.52234,-0.47165 0.069,-0.1797 3.13955,-0.26663 3.13631,-0.0888 -0.008,0.46103 -0.13344,0.56045 -0.70488,0.56045 -0.31608,0 -0.57469,0.0388 -0.57469,0.0862 0,0.13151 -0.41752,3.54182 -0.48936,3.99709 -0.0579,0.36676 -0.092,0.40032 -0.40734,0.40032 h -0.34418 z m 2.81309,1.76141 c -6.4e-4,-0.10275 0.12676,-1.25567 0.28327,-2.56206 l 0.28457,-2.37523 h 1.26464 1.26464 v 0.32025 0.32026 h -0.96077 c -0.86558,0 -0.96078,0.0197 -0.96078,0.1986 0,0.10924 -0.0305,0.42149 -0.0679,0.69389 l -0.0679,0.49529 h 0.92899 0.929 l -0.0338,0.29356 c -0.0336,0.29227 -0.0379,0.29371 -0.95634,0.32425 l -0.92256,0.0307 -0.0678,0.50309 c -0.0373,0.2767 -0.0947,0.68323 -0.12766,0.90341 l -0.0599,0.40032 h 0.91678 0.91678 v 0.32025 0.32026 h -1.28103 c -1.14836,0 -1.28116,-0.0193 -1.28233,-0.18681 z m -31.86426,-8.14617 c -2.74348,-0.36838 -4.24003,-2.45581 -3.51383,-4.90118 0.46718,-1.57317 1.45413,-2.35052 5.06174,-3.98678 1.0862,-0.49265 2.34721,-1.0814 2.80224,-1.30832 l 0.82733,-0.41259 -0.003,-0.96405 c -0.006,-2.50184 -1.63482,-3.12252 -5.85181,-2.23004 -0.68468,0.14491 -1.39601,0.29034 -1.58074,0.3232 l -0.33586,0.0597 0.38493,-1.23618 0.38493,-1.23618 0.96508,-0.24077 c 1.29288,-0.32254 5.18027,-0.36319 6.14466,-0.0643 1.12579,0.34898 1.95203,1.09101 2.35222,2.11253 0.11397,0.29092 0.15908,1.54339 0.20375,5.65787 0.0728,6.70472 -0.0115,6.45851 2.21094,6.45851 1.22847,0 1.53965,-0.13445 1.86893,-0.80752 0.2845,-0.58155 0.32902,-9.48838 0.05,-10.00953 -0.23829,-0.44509 -0.90029,-0.76006 -1.60419,-0.76323 l -0.52071,-0.003 0.0661,-0.40032 c 0.19207,-1.1635 0.18168,-1.15194 1.27059,-1.41368 0.54219,-0.13032 1.46617,-0.4024 2.05331,-0.60461 0.58714,-0.20222 1.15919,-0.39687 1.27123,-0.43255 0.19672,-0.0627 0.20111,-0.007 0.12811,1.6296 l -0.0756,1.69449 0.54333,-0.71771 c 2.44252,-3.22649 7.212,-3.4007 8.8854,-0.32455 0.5713,1.0502 0.61334,1.49029 0.61524,6.4407 0.002,5.48322 0.0209,5.55646 1.47389,5.72854 0.69643,0.0825 0.69243,0.0752 0.46408,0.84457 l -0.18779,0.63268 -3.48981,0.0282 c -3.94427,0.0318 -3.57991,0.12774 -3.34564,-0.88092 0.1234,-0.53132 0.12482,-0.53267 0.63456,-0.60559 0.74368,-0.10637 1.25377,-0.40951 1.50955,-0.89708 0.33973,-0.64761 0.39491,-7.82927 0.0684,-8.90421 -0.87931,-2.89493 -4.85506,-2.85644 -6.21993,0.0602 -0.5075,1.08449 -0.61246,1.9831 -0.61664,5.27875 -0.005,3.91747 0.17384,4.27478 2.22522,4.44676 0.86238,0.0723 0.86049,0.0692 0.5805,0.95746 l -0.17963,0.56983 h -6.06539 -6.06538 v -0.98509 -0.9851 l -0.34695,0.42465 c -1.28764,1.57601 -2.99449,2.24133 -5.04405,1.96612 z m 2.68298,-2.28699 c 0.74996,-0.22272 1.65326,-0.9042 2.08057,-1.56966 l 0.36056,-0.5615 0.0345,-2.16611 0.0346,-2.16611 -0.51496,0.20427 c -4.30848,1.70901 -5.75221,3.04701 -5.25437,4.86957 0.35377,1.29511 1.67709,1.85932 3.25905,1.38954 z m -26.14077,2.17728 c -3.89626,-0.43061 -6.20365,-3.71464 -6.03135,-8.58418 0.1442,-4.07551 2.16043,-6.8786 5.56701,-7.73962 1.63353,-0.41288 4.02059,-0.23382 5.53307,0.41505 l 0.50609,0.21712 0.0633,-0.25232 c 0.0348,-0.13878 0.0471,-1.08564 0.0273,-2.10415 -0.0505,-2.59849 -0.19326,-2.80752 -2.00476,-2.9361 -1.08323,-0.0769 -1.01267,0.0247 -0.70549,-1.01568 l 0.12735,-0.4313 1.38055,-0.35121 c 0.75929,-0.19317 1.99879,-0.5724 2.75443,-0.84273 0.75565,-0.27034 1.40416,-0.49159 1.44116,-0.49167 0.037,-9e-5 0.0318,0.44427 -0.0116,0.98746 -0.14621,1.8316 -0.22259,17.34422 -0.0913,18.55066 0.21753,1.99958 0.66061,2.5566 2.15832,2.71336 1.92367,0.20135 1.98866,0.003 2.02625,-6.17093 0.0347,-5.70583 0.0583,-5.62101 -1.6098,-5.79536 -0.72153,-0.0754 -0.7245,-0.0809 -0.5031,-0.93483 l 0.13596,-0.52438 1.75683,-0.40085 c 0.96626,-0.22047 1.96704,-0.47689 2.22395,-0.56983 0.25691,-0.0929 0.4851,-0.16898 0.50707,-0.16898 0.022,0 0.0404,0.85268 0.0409,1.89485 l 6.4e-4,1.89485 0.31582,-0.55065 c 1.0002,-1.74392 2.69199,-2.87635 4.66261,-3.12101 1.08433,-0.13462 1.05458,-0.22953 0.4735,1.51106 l -0.50748,1.52009 -0.47162,0.0273 c -3.4186,0.19823 -4.10868,1.4484 -4.0296,7.30011 0.0463,3.41887 0.2068,3.7886 1.72847,3.97953 0.2723,0.0342 0.70733,0.0885 0.96671,0.12073 l 0.47161,0.0586 -0.2413,0.71535 -0.24129,0.71535 -6.3152,0.0275 -6.31519,0.0275 v -0.63972 -0.63973 l -0.56044,0.42622 c -1.18793,0.90341 -3.30854,1.37474 -5.22985,1.16241 z m 3.77906,-2.47463 c 0.37402,-0.13576 0.95553,-0.4297 1.29225,-0.65321 l 0.61222,-0.40636 -6.4e-4,-3.53913 c -10e-4,-5.80189 -0.47357,-6.90737 -3.17796,-7.43943 -3.3678,-0.66257 -5.48944,1.5034 -5.49349,5.60832 -0.005,4.80762 3.1029,7.76009 6.76779,6.42981 z m -20.80829,2.26027 c -1.78909,-0.56678 -2.91554,-2.36906 -2.60663,-4.1705 0.36683,-2.1392 1.63519,-3.21538 6.13194,-5.20287 0.80801,-0.35713 1.75678,-0.79453 2.10836,-0.97201 l 0.63923,-0.32268 -0.002,-0.71905 c -0.009,-2.67545 -1.69549,-3.23872 -6.45032,-2.15496 -0.76017,0.17326 -1.41381,0.31502 -1.45254,0.31502 -0.0387,0 0.12686,-0.54892 0.36798,-1.21983 l 0.43839,-1.21983 0.74727,-0.21767 c 3.15281,-0.91842 6.87532,-0.66366 8.14088,0.55712 0.92813,0.89529 0.92137,0.84606 0.98445,7.17095 0.0464,4.65667 0.0808,5.58954 0.21339,5.78955 0.17061,0.25743 0.82037,0.56131 1.20523,0.56367 0.70412,0.004 0.72371,0.0459 0.4313,0.91562 l -0.26594,0.79096 h -2.1254 -2.1254 v -1.08583 -1.08582 l -0.33076,0.49936 c -1.12119,1.69269 -3.80858,2.47853 -6.04889,1.7688 z m 4.32953,-2.44202 c 1.46904,-0.78305 1.83419,-1.63609 1.83558,-4.28823 l 0.001,-1.99001 -1.25434,0.56068 c -3.60225,1.61017 -4.50694,2.40948 -4.50928,3.98405 -0.003,1.941 1.93385,2.79595 3.927,1.73351 z m 67.11123,2.51686 c -0.86439,-0.21 -1.50016,-0.5744 -2.04802,-1.17385 -0.88866,-0.97234 -0.88324,-0.92913 -0.88324,-7.03999 v -5.30155 h -1.18276 -1.18275 l 0.0582,-0.29357 c 0.032,-0.16146 0.0902,-0.48572 0.12929,-0.72058 0.10348,-0.62172 0.20894,-0.76796 0.60765,-0.84276 1.13897,-0.21367 1.9983,-1.4383 2.16739,-3.0887 l 0.0711,-0.69381 0.90445,-0.32949 c 0.49745,-0.18121 0.94761,-0.32948 1.00035,-0.32948 0.0535,0 0.0959,0.94398 0.0959,2.13505 v 2.13505 h 2.00231 c 1.10127,0 2.16695,-0.0472 2.36817,-0.10493 0.20122,-0.0577 0.37733,-0.0935 0.39134,-0.0794 0.0262,0.0262 -0.20787,1.10072 -0.3948,1.81234 l -0.10516,0.40032 h -2.13093 -2.13093 v 4.88799 c 0,6.5232 -0.0729,6.37437 3.12252,6.37437 0.92476,0 1.68053,0.024 1.67949,0.0534 -0.0156,0.43976 -0.3455,1.97906 -0.43623,2.03513 -0.44351,0.2741 -3.19771,0.38452 -4.10333,0.16451 z m -104.548907,-0.0772 c -6.30279,-0.73088 -10.525274,-5.73872 -10.520682,-12.47746 0.0085,-12.42248 15.29759,-17.66693 22.386669,-7.67903 3.15718,4.4482 2.98695,10.70212 -0.416599,15.30502 l -0.68705,0.92914 1.472391,1.41052 c 0.809815,0.77577 1.712583,1.63599 2.006148,1.91159 l 0.53376,0.50108 -2.050341,0.003 -2.050347,0.003 -0.976858,-1.00977 -0.976857,-1.00976 -0.548998,0.32431 c -2.604502,1.53855 -5.280649,2.1246 -8.171236,1.78941 z m 4.094892,-3.18611 c 0.408511,-0.13182 1.146811,-0.42635 1.640667,-0.65452 l 0.897919,-0.41484 -1.000153,-1.07651 c -0.550084,-0.59208 -1.160262,-1.26509 -1.355951,-1.49556 l -0.355799,-0.41905 h 1.922596 1.922596 l 0.40812,0.52886 c 0.483333,0.62632 0.416059,0.63289 1.043419,-0.10186 3.664946,-4.29225 2.072384,-12.06485 -2.975579,-14.52251 -6.565858,-3.19667 -13.790684,1.39887 -13.768616,8.75789 0.01469,4.89453 3.151816,8.75664 7.835593,9.64636 0.734238,0.13947 3.05539,-0.0128 3.785188,-0.24826 z m 15.473125,3.14682 c -1.30745,-0.28445 -2.34894,-1.06797 -2.84004,-2.13657 -0.24227,-0.52717 -0.24596,-0.59634 -0.29867,-5.60449 -0.0645,-6.13085 -0.0441,-6.05712 -1.68135,-6.07886 -0.51604,-0.007 -0.51479,-0.003 -0.27914,-0.85061 l 0.17455,-0.62785 0.65278,-0.12528 c 0.35902,-0.0689 1.35056,-0.31407 2.20341,-0.54482 0.85286,-0.23074 1.59745,-0.41954 1.65466,-0.41956 0.0667,-3e-5 0.0916,2.18851 0.0695,6.10232 -0.0385,6.80307 -0.0482,6.69921 0.68245,7.34069 1.31873,1.15786 4.33244,0.6391 5.43358,-0.9353 0.36659,-0.52414 0.45501,-1.77569 0.4726,-6.68968 0.0105,-2.92646 -0.0848,-3.09217 -1.8556,-3.2261 -0.90423,-0.0684 -0.89419,-0.0536 -0.63755,-0.93642 0.15372,-0.5288 0.19039,-0.57022 0.56045,-0.63299 0.21778,-0.0369 1.39053,-0.31636 2.60612,-0.62094 1.21559,-0.30458 2.2276,-0.53154 2.24892,-0.50435 0.0213,0.0272 -0.002,0.74599 -0.0505,1.59734 -0.15347,2.66067 -0.0607,12.05962 0.12251,12.41796 0.19412,0.37957 0.61412,0.59942 1.30052,0.68071 l 0.53587,0.0635 -0.0669,0.54466 c -0.0368,0.29955 -0.0922,0.67675 -0.12308,0.83821 l -0.0562,0.29357 h -2.28669 -2.28669 v -0.96311 -0.96312 l -0.70135,0.57849 c -1.63897,1.35191 -3.55883,1.83675 -5.55415,1.40264 z"
       id="path19" /><path
       style="fill:#8b8b8b;fill-opacity:1;stroke-width:0.251866"
       d="m 60.554347,406.73059 c -4.965034,-1.87395 -10.224927,-3.6621 -12.394921,-4.21374 l -0.633089,-0.16091 -0.446182,-0.99102 c -2.698512,-5.99379 -5.141887,-13.46534 -6.15363,-18.81707 -0.268489,-1.42021 -0.27793,-1.27256 -0.06372,0.99397 0.600473,6.353 1.627203,12.46917 2.772686,16.5166 0.367823,1.29965 0.368605,1.30429 0.209023,1.25389 -0.06415,-0.0202 -0.746355,-0.17067 -1.516053,-0.33423 -3.444287,-0.732 -3.919202,-0.8683 -6.169393,-1.77084 -1.511394,-0.60621 -1.835698,-0.75962 -2.470173,-1.16853 l -0.442931,-0.28546 -0.202247,-0.85546 c -1.681327,-7.11133 -1.846704,-18.81575 -0.442827,-31.33944 0.125076,-1.11593 0.213352,-2.04306 0.196128,-2.06027 -0.01715,-0.0172 -0.0313,0.005 -0.0313,0.0501 0,0.0447 -0.255873,1.40671 -0.568587,3.02654 -1.602196,8.29877 -2.8486,17.42865 -3.4626,25.36303 -0.0919,1.18773 -0.167087,2.29976 -0.167087,2.47121 0,0.42454 -0.02712,0.43235 -0.466048,0.1343 -1.560336,-1.05961 -2.600263,-2.34162 -2.598901,-3.20396 0.0023,-1.12808 0.720009,-7.53251 1.202685,-10.72398 3.039008,-20.09367 8.172827,-37.50884 14.340563,-48.64677 0.663312,-1.19783 1.859094,-3.19869 1.911659,-3.19869 0.02138,0 -0.146439,0.56227 -0.373091,1.24949 -4.097874,12.4251 -5.944149,30.51204 -4.783806,46.86416 0.181796,2.56216 0.758392,8.30999 0.816195,8.13657 0.01559,-0.047 -0.0058,-0.85485 -0.04683,-1.79527 -0.581081,-13.19471 0.26179,-27.43796 2.08406,-35.21813 0.247082,-1.05483 0.345082,-1.09838 0.277351,-0.12325 -0.05697,0.82029 0.06931,5.45334 0.201042,7.37559 1.010509,14.74741 4.868384,26.81735 12.641359,39.55048 1.491214,2.44282 2.647761,4.2154 5.790611,8.87501 1.277573,1.89415 2.32286,3.46101 2.32286,3.48191 0,0.0641 -0.0613,0.0441 -1.332785,-0.43582 z M 38.67412,385.39669 c -0.01837,-0.0458 -0.03361,-0.008 -0.03361,0.0833 0,0.0916 0.01513,0.12911 0.03361,0.0833 0.01837,-0.0458 0.01837,-0.12078 0,-0.16659 z m 1.999181,-4.26493 c -0.01837,-0.0458 -0.03361,-0.008 -0.03361,0.0833 0,0.0916 0.01513,0.12911 0.03361,0.0833 0.01837,-0.0458 0.01837,-0.12078 0,-0.1666 z m 93.016919,18.15943 c -3.14299,-1.11916 -2.55595,-5.74261 0.76073,-5.99148 0.86609,-0.065 1.72913,0.19404 2.3328,0.70014 0.25592,0.21453 0.2609,0.19653 -0.20375,0.73564 l -0.24313,0.28212 -0.34951,-0.26453 c -1.24051,-0.93891 -2.79042,-0.41709 -3.17076,1.0675 -0.50516,1.97186 1.58227,3.35339 3.20996,2.12449 l 0.3445,-0.26011 0.34736,0.35174 0.34736,0.35173 -0.31662,0.27871 c -0.76763,0.67568 -2.13217,0.95407 -3.05894,0.62405 z m 55.02999,0.0139 c -0.43727,-0.11777 -1.05179,-0.42905 -1.33318,-0.67528 l -0.21534,-0.18844 0.31282,-0.37843 0.31282,-0.37845 0.31182,0.22889 c 1.06227,0.77978 2.59195,0.67284 2.59195,-0.18121 0,-0.43676 -0.26786,-0.62063 -1.30725,-0.89728 -1.51094,-0.40215 -1.97287,-0.80974 -1.98147,-1.74839 -0.0148,-1.62101 2.05558,-2.35465 3.75064,-1.32897 0.45881,0.27761 0.46033,0.28579 0.13736,0.73683 l -0.26968,0.37659 -0.30774,-0.19517 c -1.02623,-0.6508 -2.22096,-0.48514 -2.22096,0.30798 0,0.39004 0.25716,0.56957 1.17927,0.8233 1.58328,0.43568 2.08606,0.88248 2.08606,1.85388 0,1.30164 -1.43798,2.07753 -3.04712,1.64415 z m -94.468538,-0.009 c -0.0748,-0.0748 -0.0529,-5.88604 0.0222,-5.8898 0.0366,-0.002 0.29905,-0.005 0.5831,-0.008 l 0.51646,-0.005 0.89274,1.37667 0.89275,1.37667 0.66024,-1.0189 c 0.36313,-0.56037 0.77106,-1.18024 0.90651,-1.37745 l 0.24628,-0.35855 0.53312,0.002 0.533108,0.002 0.0173,2.97212 0.0173,2.97214 h -0.532798 -0.53285 l -0.0176,-2.07593 -0.0176,-2.07593 -0.89296,1.3429 c -0.49112,0.7386 -0.91095,1.34186 -0.93295,1.34063 -0.022,0 -0.44484,-0.60848 -0.93963,-1.34944 l -0.89963,-1.34721 -0.0176,2.0825 -0.0176,2.08248 h -0.48774 c -0.26825,0 -0.50773,-0.0199 -0.53216,-0.0444 z m 6.819428,0.0179 c 0,-0.0176 0.16746,-0.41618 0.37215,-0.88566 0.20468,-0.46947 0.60664,-1.39339 0.89326,-2.05313 0.28661,-0.65971 0.69966,-1.60433 0.9179,-2.09912 l 0.39677,-0.89964 0.49735,-0.0191 c 0.48689,-0.0189 0.49917,-0.0154 0.58392,0.16658 0.0476,0.10223 0.33513,0.75562 0.63891,1.452 0.30377,0.69639 0.84202,1.92589 1.19611,2.73221 0.35409,0.80635 0.6599,1.50357 0.67958,1.54938 0.0271,0.063 -0.10497,0.0833 -0.54119,0.0833 h -0.57697 l -0.0891,-0.21658 c -0.049,-0.11911 -0.18546,-0.44958 -0.30325,-0.73436 l -0.21416,-0.51779 -1.37377,0.0179 -1.37376,0.0181 -0.30727,0.69971 -0.30728,0.69971 -0.5446,0.0194 c -0.29954,0.0106 -0.54461,0.005 -0.54461,-0.0126 z m 4.00967,-2.48896 c -0.033,-0.0641 -0.24683,-0.55894 -0.47517,-1.09954 -0.22834,-0.54063 -0.43479,-0.9823 -0.45878,-0.98152 -0.0435,0.002 -0.94522,2.05298 -0.94394,2.1477 2.5e-4,0.0275 0.43656,0.05 0.9693,0.05 0.90093,0 0.96442,-0.008 0.90859,-0.11661 z m 3.18729,-0.46648 -9e-5,-2.98211 1.71606,0.0333 c 1.56335,0.0304 1.74304,0.0458 2.01932,0.17364 1.45225,0.67195 1.47799,2.65331 0.0438,3.37039 l -0.31933,0.15969 0.76915,1.07614 c 0.42303,0.59188 0.76915,1.09299 0.76915,1.1136 0,0.0206 -0.27739,0.037 -0.61641,0.0363 h -0.61642 l -0.72226,-1.03179 -0.72226,-1.03182 h -0.62719 -0.62718 v 1.03292 1.03291 h -0.53312 -0.53312 z m 3.09731,-0.14943 c 0.77823,-0.25685 0.85584,-1.3972 0.11668,-1.71453 -0.17372,-0.0746 -0.53405,-0.11598 -1.19805,-0.13767 l -0.94961,-0.031 -5e-5,0.99131 -6e-5,0.99135 0.90916,-0.0146 c 0.50004,-0.008 1.00491,-0.0462 1.12193,-0.0848 z m 3.04958,0.15908 0.0173,-2.9725 h 0.4998 0.49979 l 0.0173,2.9725 0.0173,2.97247 h -0.53449 -0.53448 z m 2.59894,0 0.0173,-2.9734 0.49624,0.002 c 0.34776,0.002 0.51724,0.03 0.56643,0.0959 0.0386,0.0517 0.72992,0.944 1.53626,1.98284 l 1.46607,1.88884 0.0177,-1.97153 0.0177,-1.97152 0.50466,-0.0219 c 0.27757,-0.0121 0.51702,-0.009 0.53213,0.006 0.0151,0.0154 0.0275,1.35723 0.0275,2.98211 v 2.95436 l -0.44981,-0.003 -0.44982,-0.003 -1.59934,-2.06839 -1.59935,-2.06837 -0.0176,2.072 -0.0176,2.07202 h -0.53286 -0.53285 z m 6.67846,2.8901 c -0.0176,-0.0458 -0.0241,-1.38112 -0.0145,-2.96738 l 0.0174,-2.88405 2.1991,-2.1e-4 2.19911,-1.8e-4 0.0196,0.46858 0.0196,0.46859 h -1.6689 -1.6689 v 0.73172 0.73175 l 1.4494,0.0179 1.44942,0.0179 0.0196,0.48313 0.0196,0.48313 h -1.46898 -1.46899 v 0.76635 0.76638 h 1.66599 1.66598 v 0.49977 0.4998 h -2.20119 c -1.69948,0 -2.20847,-0.0189 -2.23315,-0.0833 z m 13.98794,-0.13328 c 0.15569,-0.3642 1.72314,-3.95348 2.34382,-5.3671 l 0.18402,-0.41911 0.49824,0.0194 0.49825,0.0194 0.29615,0.66638 c 0.59984,1.34978 2.28619,5.23344 2.28619,5.26512 0,0.0181 -0.25034,0.0327 -0.55632,0.0327 h -0.55631 l -0.30422,-0.71638 -0.30422,-0.71636 h -1.38314 -1.38314 l -0.30244,0.71636 -0.30243,0.71638 h -0.55352 -0.55352 z m 3.97421,-2.21181 c 0,-0.0287 -0.93797,-2.18546 -0.96594,-2.22107 -0.011,-0.0141 -0.79326,1.77408 -0.94806,2.16714 -0.0253,0.0643 0.18881,0.0833 0.9406,0.0833 0.53537,0 0.9734,-0.0133 0.9734,-0.0294 z m 3.13205,-0.52597 c 0,-1.62489 0.0124,-2.96682 0.0276,-2.98211 0.11102,-0.11181 3.1602,0.0493 3.44763,0.1821 1.15053,0.53186 1.5039,2.11959 0.68473,3.07661 -0.44688,0.52209 -0.96437,0.70638 -2.09252,0.74522 l -0.96785,0.0333 -0.0185,0.94961 -0.0185,0.94961 h -0.53128 -0.53129 z m 2.6271,0.0249 c 0.73418,-0.17029 1.09313,-0.92022 0.73434,-1.53426 -0.21906,-0.37493 -0.52792,-0.48432 -1.46991,-0.52061 l -0.8253,-0.0318 v 1.07524 1.07521 l 0.64973,-0.002 c 0.35736,0 0.76736,-0.0289 0.91114,-0.0622 z m 2.50413,2.9067 c 0,-0.0154 0.1816,-0.44394 0.40355,-0.9523 0.22195,-0.50839 0.69142,-1.58406 1.04325,-2.39041 0.35184,-0.80632 0.751,-1.72095 0.88703,-2.03248 l 0.24731,-0.56644 h 0.51453 0.51452 l 0.66785,1.5327 c 0.36732,0.843 0.93661,2.14745 1.2651,2.89882 0.32849,0.75137 0.61378,1.4048 0.63397,1.45213 0.0287,0.0673 -0.0892,0.0818 -0.5414,0.0666 l -0.57811,-0.0194 -0.30341,-0.71769 -0.3034,-0.71772 -1.37042,0.0179 -1.37041,0.0181 -0.30728,0.69971 -0.30728,0.69971 -0.5477,0.0194 c -0.30123,0.0106 -0.5477,0.007 -0.5477,-0.009 z m 3.76795,-3.05949 c -0.67206,-1.58947 -0.68973,-1.6247 -0.7435,-1.48273 -0.0278,0.0733 -0.23981,0.56811 -0.47122,1.09957 -0.23141,0.53144 -0.42075,0.98875 -0.42075,1.01625 -1e-5,0.0275 0.43295,0.05 0.96213,0.05 h 0.96215 z m 3.42903,0.10569 -9e-5,-2.98783 1.71605,0.0333 c 1.8589,0.0361 1.95349,0.0533 2.40859,0.43696 0.64365,0.5427 0.62416,1.60439 -0.0397,2.16175 l -0.26263,0.22048 0.33687,0.17597 c 0.91831,0.47973 1.05282,1.70186 0.26377,2.39641 -0.52062,0.45826 -0.69595,0.49259 -2.6735,0.52347 l -1.74928,0.0273 z m 3.39221,1.87166 c 0.47196,-0.18885 0.611,-0.81277 0.25535,-1.14591 -0.25564,-0.23948 -0.49066,-0.28166 -1.56934,-0.28166 h -1.04523 v 0.76635 0.76637 h 1.04822 c 0.79926,0 1.11064,-0.0249 1.311,-0.10515 z m -0.48858,-2.43529 c 0.749,-0.18862 0.8558,-1.07254 0.16307,-1.34972 -0.20182,-0.0808 -0.49422,-0.10825 -1.15209,-0.10835 l -0.88162,-1.2e-4 0.0207,0.76647 0.0207,0.7665 h 0.76613 c 0.42137,0 0.89978,-0.0337 1.06312,-0.0748 z m 3.24325,0.56756 0.0173,-2.9725 h 0.49979 0.4998 l 0.0173,2.9725 0.0173,2.97246 h -0.53449 -0.53449 z m 2.59894,0 0.0173,-2.9725 0.48314,0.003 c 0.26573,0.002 0.51384,0.005 0.55137,0.007 0.0456,0.002 0.0622,0.82123 0.05,2.46919 l -0.0183,2.46569 1.54937,-3e-5 1.54936,-3e-5 v 0.49978 0.4998 h -2.09982 -2.09983 z m 5.29552,2.9306 c -0.0648,-0.0648 -0.0596,-5.80673 0.005,-5.84685 0.0288,-0.0179 0.27616,-0.0396 0.54978,-0.0485 l 0.49749,-0.0161 v 2.95997 2.96 l -0.50279,0.0191 c -0.27654,0.0106 -0.52394,-0.002 -0.54978,-0.0278 z m 4.08466,-2.42196 v -2.46382 l -0.94961,-0.0184 -0.94961,-0.0187 -0.0196,-0.48312 c -0.0123,-0.3033 0.006,-0.48346 0.05,-0.48401 0.0382,0 1.12663,-0.002 2.4186,-0.002 h 2.34904 l 0.0195,0.50177 0.0195,0.50174 h -0.93576 -0.93575 v 2.46566 2.46566 h -0.53312 -0.53312 z m 4.08097,-0.50864 0.0173,-2.9725 h 0.49979 0.4998 l 0.0173,2.9725 0.0173,2.97246 h -0.53449 -0.53448 z m 2.58297,0.009 v -2.96365 l 2.1715,-0.0184 c 2.45078,-0.0209 2.31018,-0.0532 2.28017,0.52573 l -0.0202,0.3888 -1.68265,0.0179 -1.68264,0.0178 v 0.73064 0.73061 l 1.48272,0.0179 1.48273,0.0179 0.0196,0.48313 0.0196,0.48313 h -1.50231 -1.50231 v 0.76635 0.76638 h 1.69931 1.6993 v 0.49977 0.49981 h -2.23242 -2.23242 z M 70.483615,366.8537 v -19.0261 l 3.710805,0.0172 3.710805,0.0172 1.574309,6.33074 c 0.865873,3.48191 2.487168,10.00051 3.602868,14.48579 l 2.02856,8.15504 0.27581,-1.1579 c 0.27044,-1.13536 0.90959,-3.84074 2.19431,-9.28792 0.35442,-1.50272 0.89258,-3.78178 1.19592,-5.06459 0.30333,-1.28281 0.81335,-3.44192 1.13337,-4.79804 0.32003,-1.35611 0.84491,-3.5752 1.16641,-4.93131 0.32149,-1.35611 0.65003,-2.75804 0.7301,-3.11539 l 0.14556,-0.64974 h 3.79298 3.79297 v 19.02555 19.02555 h -2.89864 -2.89864 l -0.0168,-12.71146 -0.0168,-12.71147 -0.18698,0.89963 c -0.18541,0.89209 -0.99196,4.6993 -2.08233,9.82931 -0.31161,1.46607 -0.80511,3.79012 -1.09666,5.16455 -0.29155,1.37444 -0.79767,3.75847 -1.12471,5.29784 -0.32704,1.53937 -0.66134,3.12122 -0.7429,3.51523 l -0.14827,0.71637 h -3.15412 -3.15411 l -0.0641,-0.2499 c -0.0352,-0.13744 -0.27589,-1.19451 -0.534721,-2.34903 -0.832572,-3.71367 -1.729405,-7.70597 -2.238009,-9.9626 -0.272598,-1.2095 -0.645816,-2.87382 -0.829368,-3.69849 -0.183552,-0.82466 -0.620328,-2.77386 -0.970607,-4.33156 -0.350286,-1.55769 -0.733425,-3.26699 -0.851431,-3.79844 l -0.214552,-0.96627 -0.01681,12.67814 -0.01681,12.67815 h -2.898638 -2.898644 z m 32.280775,18.90949 c 0.0409,-0.13136 0.51672,-2.22239 1.07292,-4.71474 0.46821,-2.09806 1.46444,-6.54708 2.15622,-9.62939 0.54877,-2.4451 1.40354,-6.25627 2.37641,-10.59567 0.30814,-1.37443 0.83267,-3.71347 1.16562,-5.19787 1.02207,-4.55676 1.73137,-7.73941 1.73137,-7.7688 0,-0.0154 1.42086,-0.028 3.15746,-0.028 h 3.15746 l 0.0798,0.31654 c 0.0439,0.17409 0.37838,1.65099 0.74334,3.28199 0.87991,3.93233 2.11174,9.42792 3.51771,15.69358 0.32898,1.46606 0.88364,3.94006 1.23259,5.49775 0.34894,1.5577 0.95126,4.24159 1.33849,5.96422 0.38723,1.72263 0.89949,4.0167 1.13836,5.09792 0.23886,1.08123 0.45007,2.01834 0.46934,2.08248 0.033,0.10982 -0.13408,0.11662 -2.86378,0.11662 -2.70352,0 -2.90108,-0.008 -2.93249,-0.11662 -0.0514,-0.178 -0.95944,-4.39082 -1.17422,-5.44777 -0.10426,-0.51312 -0.21028,-1.01542 -0.23559,-1.11621 l -0.046,-0.18326 h -4.40998 -4.40998 l -0.38453,1.7826 c -0.21149,0.98044 -0.53924,2.5248 -0.72832,3.43194 l -0.3438,1.64932 h -2.92233 c -2.75257,0 -2.92022,-0.007 -2.88605,-0.11662 z m 14.49732,-14.36079 c -0.20878,-0.9621 -0.53187,-2.46899 -0.71798,-3.34863 -0.7152,-3.3805 -1.41502,-6.65907 -1.73984,-8.15104 -0.18605,-0.85456 -0.33827,-1.57177 -0.33827,-1.5938 0,-0.25501 -0.42893,1.70554 -2.06634,9.44497 -0.25201,1.19118 -0.60989,2.86201 -0.79527,3.71296 -0.1854,0.85096 -0.33708,1.57816 -0.33708,1.61601 0,0.0464 1.03958,0.0688 3.18719,0.0688 h 3.1872 z m 12.26441,-4.54813 v -19.02556 l 4.9813,10e-4 c 3.92165,0.001 5.13014,0.0214 5.68101,0.0958 4.13698,0.55892 7.40908,4.01702 7.7981,8.24137 0.14729,1.59935 0.0511,12.34791 -0.11742,13.12421 -0.4101,1.88896 -1.23271,3.37429 -2.62502,4.73984 l -0.65901,0.64633 1.8048,5.50811 c 0.99265,3.02947 1.82087,5.54996 1.8405,5.60111 0.0302,0.0788 -0.4446,0.093 -3.10068,0.093 h -3.13636 l -0.13164,-0.44981 c -0.0724,-0.2474 -0.40575,-1.39443 -0.74078,-2.54896 -0.60405,-2.08164 -1.41918,-4.88263 -1.67264,-5.74765 l -0.13181,-0.44981 h -1.99636 -1.99636 v 4.59811 4.59812 h -2.89881 -2.89882 z m 9.98206,3.92611 c 1.10891,-0.22793 2.02578,-1.00086 2.49416,-2.10261 0.20476,-0.48164 0.27845,-11.89796 0.0812,-12.57654 -0.34951,-1.20226 -1.35859,-2.15319 -2.5481,-2.40124 -0.21069,-0.0439 -1.13139,-0.0737 -2.28241,-0.0737 h -1.92926 v 8.6298 8.62981 h 1.8354 c 1.41427,0 1.95324,-0.0242 2.34903,-0.10557 z m 21.52082,15.02695 c -3.91317,-0.57289 -7.06133,-3.65419 -7.75578,-7.59105 -0.19059,-1.08045 -0.19108,-21.57249 -5e-4,-22.6574 1.35686,-7.72586 11.22118,-10.41122 16.19248,-4.40808 1.71067,2.06572 2.1097,3.36397 2.15885,7.02368 l 0.032,2.38236 h -2.89992 -2.89992 l -0.0267,-2.04917 c -0.0343,-2.63016 -0.14099,-3.00009 -1.1292,-3.91499 -1.83246,-1.69654 -4.8516,-0.89673 -5.58561,1.47969 -0.21021,0.68058 -0.21021,20.94985 0,21.63043 0.73659,2.38477 3.75271,3.17116 5.60452,1.46125 0.96975,-0.89545 1.07643,-1.27307 1.11032,-3.93058 l 0.0265,-2.08319 2.87644,0.0173 2.87643,0.0173 0.0203,1.89923 c 0.0227,2.12275 -0.0421,3.00248 -0.28957,3.93184 -1.21539,4.56402 -5.63588,7.47564 -10.31065,6.79126 z m 11.94602,0.0527 c 0,-0.0117 0.15141,-0.67918 0.33648,-1.48343 0.18506,-0.80425 0.52906,-2.33192 0.76443,-3.39481 0.23537,-1.0629 0.71466,-3.20702 1.06509,-4.76472 0.75471,-3.35482 1.69295,-7.53647 2.46707,-10.9955 0.3076,-1.37444 0.82856,-3.69849 1.1577,-5.16455 1.14328,-5.09241 1.87113,-8.34004 2.27013,-10.12919 0.22069,-0.9896 0.41705,-1.86674 0.43637,-1.94921 l 0.0351,-0.14993 h 3.15369 3.1537 l 0.21618,0.94961 c 0.27163,1.1931 1.8346,8.16214 2.90316,12.9447 0.20473,0.91629 0.60843,2.71556 0.89712,3.99836 0.28869,1.28282 0.79995,3.56188 1.13614,5.0646 0.3362,1.50272 0.89114,3.97671 1.23321,5.49775 0.52319,2.32638 1.56527,6.98297 2.02459,9.04699 l 0.1225,0.55047 -2.90335,-0.0173 -2.90336,-0.0173 -0.14326,-0.6664 c -0.31758,-1.47733 -0.89747,-4.19082 -1.10013,-5.14789 l -0.2152,-1.01625 h -4.41195 -4.41195 l -0.34467,1.58269 c -0.18957,0.87047 -0.51745,2.40734 -0.72863,3.41527 l -0.38395,1.83258 -2.91311,0.0173 c -1.60221,0.01 -2.91311,0.008 -2.91311,-0.004 z m 14.86058,-12.7621 c 0,-0.0295 -0.16568,-0.83172 -0.36817,-1.7826 -0.50486,-2.37074 -1.4726,-6.89875 -2.09993,-9.82557 -0.28675,-1.33778 -0.55752,-2.62067 -0.60172,-2.85087 -0.0442,-0.23019 -0.0885,-0.41012 -0.0985,-0.39983 -0.01,0.0103 -0.17141,0.7384 -0.35873,1.61804 -0.34974,1.64234 -1.10689,5.1808 -1.93929,9.06296 -0.51981,2.42435 -0.86438,4.08875 -0.86438,4.17536 0,0.031 1.42442,0.0562 3.16537,0.0562 1.74096,0 3.16537,-0.0242 3.16537,-0.0537 z m 12.19502,-6.24668 V 347.8227 l 5.28117,0.0249 c 4.55289,0.0214 5.35469,0.0399 5.81429,0.13358 3.61623,0.73727 6.46203,3.61723 7.21241,7.29897 0.18235,0.89468 0.18024,13.08433 -0.002,13.93143 -0.8068,3.74189 -3.48651,6.44505 -7.24459,7.30798 -0.40472,0.0929 -0.94995,0.12028 -2.89754,0.14536 l -2.39902,0.0309 0.0176,4.59198 0.0176,4.59199 h -2.89973 -2.89971 z m 9.79599,3.96612 c 1.37753,-0.21481 2.59198,-1.44217 2.80051,-2.83029 0.16007,-1.06547 0.0526,-11.5368 -0.12346,-12.02839 -0.28811,-0.80449 -0.81556,-1.44109 -1.56706,-1.89132 -0.64489,-0.38636 -1.04247,-0.44105 -3.20563,-0.44105 h -1.90273 v 8.6298 8.6298 l 1.78261,-5e-4 c 0.98043,-2.6e-4 1.97752,-0.0309 2.21576,-0.0681 z m -159.042726,10.1478 c -1.784363,-3.75493 -3.437181,-8.16874 -4.622735,-12.34495 -0.714792,-2.51785 -0.70228,-2.36441 -0.220509,-2.70681 3.05858,-2.17379 7.005345,-2.27667 10.087518,-0.26296 4.678729,3.0568 5.356611,9.6746 1.396633,13.63458 -1.565969,1.56596 -3.927814,2.59643 -5.951069,2.59643 h -0.254383 z"
       id="path20" /></g></svg>
