<?xml version="1.0" encoding="UTF-8" standalone="no"?>
<!-- Created with Inkscape (http://www.inkscape.org/) -->

<svg
   width="119.60916mm"
   height="60.301891mm"
   viewBox="0 0 119.60916 60.301891"
   version="1.1"
   id="svg1"
   xml:space="preserve"
   xmlns="http://www.w3.org/2000/svg"
   xmlns:svg="http://www.w3.org/2000/svg"><defs
     id="defs1" /><g
     id="layer1"
     transform="translate(-75.36603,-268.46795)"><path
       style="fill:#8b8b8b;fill-opacity:1;stroke-width:0.403473"
       d="m 149.57194,328.1532 c -3.00643,-2.38909 -8.08532,-7.26328 -11.3826,-10.92383 l -1.11636,-1.23935 -0.75181,-0.0581 c -6.23616,-0.48148 -9.54869,-0.87864 -13.93572,-1.67084 -4.03742,-0.72907 -8.18803,-1.72376 -5.76057,-1.38051 5.19864,0.73508 17.04118,1.80483 18.7009,1.68925 l 0.50367,-0.0351 -0.75239,-0.95428 c -2.61422,-3.31569 -2.98694,-4.70854 -1.52755,-5.70853 1.16582,-0.79883 5.92952,-1.14483 14.59167,-1.05982 l 4.03163,0.0396 0.19948,-0.53531 c 0.69646,-1.86902 1.51345,-5.10871 2.09143,-8.29334 0.49871,-2.74784 0.59966,-2.97931 0.52733,-1.20917 -0.14393,3.52274 -0.42581,6.66101 -0.79566,8.85853 -0.10851,0.64479 -0.18843,1.17998 -0.17759,1.1893 0.0109,0.009 1.89321,0.0719 4.18305,0.13903 6.85275,0.20097 13.12218,0.48964 19.9093,0.91672 8.9548,0.56349 9.465,0.52667 -8.16654,0.58934 -8.80707,0.0313 -16.09188,0.0946 -16.18848,0.14057 -0.10353,0.0493 -0.24891,0.37536 -0.35412,0.79423 -1.37736,5.48329 -2.93037,6.48358 -10.29337,6.62996 l -3.2437,0.0645 0.83192,1.1209 c 1.83531,2.47279 6.12947,7.53267 9.53538,11.23568 0.423,0.4599 0.20604,0.34819 -0.6593,-0.33946 z m -8.07782,-13.78941 c 3.79766,-0.33749 6.09634,-1.17259 7.74828,-2.81494 0.91508,-0.90977 2.08093,-2.53937 1.9269,-2.6934 -0.26305,-0.26305 -12.03756,0.92467 -12.95673,1.30698 -0.87356,0.36334 -0.86423,1.42885 0.0284,3.24771 l 0.57465,1.17091 0.72541,-0.0541 c 0.39897,-0.0297 1.27784,-0.10317 1.95305,-0.16318 z m 0.38254,-13.49863 c -0.81318,-1.0872 -1.49198,-1.96309 -1.50844,-1.94645 -0.0165,0.0166 -0.10814,0.7028 -0.20375,1.52479 -0.25146,2.16198 -0.22712,2.08167 -0.63091,2.08167 h -0.34231 l 0.31859,-2.66881 c 0.17524,-1.46784 0.35191,-2.66881 0.39262,-2.66881 0.0407,0 0.73975,0.89035 1.55341,1.97855 l 1.4794,1.97854 0.23025,-1.84511 c 0.12664,-1.0148 0.23472,-1.8571 0.24019,-1.87178 0.0525,-0.14087 0.65083,0.006 0.65259,0.16013 0.004,0.39421 -0.57536,5.1014 -0.63758,5.1757 -0.0361,0.043 -0.73088,-0.81124 -1.54406,-1.89842 z m 23.48398,-0.002 c -0.81234,-1.08607 -1.49312,-1.95854 -1.51283,-1.93882 -0.0269,0.0269 -0.46947,3.39056 -0.46947,3.56806 0,0.018 -0.16905,0.0328 -0.37567,0.0328 -0.33378,0 -0.36988,-0.0268 -0.32382,-0.2402 0.0285,-0.1321 0.18102,-1.33307 0.33888,-2.6688 0.15786,-1.33574 0.31683,-2.42861 0.35325,-2.42861 0.0364,0 0.71227,0.86468 1.50189,1.92154 0.78962,1.05684 1.46221,1.92154 1.49464,1.92154 0.0324,0 0.15376,-0.80465 0.26962,-1.78811 l 0.21066,-1.7881 0.34694,-0.0335 c 0.27663,-0.0267 0.34661,0.006 0.3453,0.16013 -0.003,0.34241 -0.61175,5.16604 -0.65788,5.21216 -0.0245,0.0245 -0.70916,-0.84409 -1.52151,-1.93015 z m -44.04587,0.0481 -0.45545,-1.82746 -0.6514,1.71919 c -0.65141,1.71921 -0.65141,1.71921 -0.99835,1.72071 -0.19082,6.4e-4 -0.347,-0.0345 -0.34706,-0.0786 -4.1e-4,-0.31675 2.07976,-5.46322 2.14059,-5.29578 0.0396,0.10909 0.28281,1.02691 0.54039,2.0396 0.25758,1.01268 0.49235,1.83811 0.5217,1.83429 0.0294,-0.004 0.49975,-0.92245 1.04531,-2.04137 0.54557,-1.11894 1.01554,-2.01082 1.04439,-1.98197 0.0289,0.0289 0.19355,1.12772 0.36599,2.44193 0.17244,1.31422 0.34115,2.5456 0.37492,2.73642 0.0598,0.33773 0.0513,0.34695 -0.31709,0.34695 -0.20816,0 -0.37847,-0.0464 -0.37847,-0.10308 0,-0.13541 -0.30316,-2.40588 -0.38534,-2.88599 -0.0612,-0.35765 -0.10233,-0.29715 -0.96083,1.41447 -0.49328,0.98346 -0.93894,1.7881 -0.99036,1.7881 -0.0514,0 -0.29845,-0.82235 -0.54894,-1.82746 z m 47.71631,1.48015 c -0.62582,-0.42174 -0.80999,-0.8647 -0.45595,-1.09668 0.21044,-0.13788 0.30196,-0.15428 0.33347,-0.0597 0.32291,0.96875 1.73146,0.89747 1.72726,-0.0874 -0.002,-0.47948 -0.0285,-0.51661 -0.74563,-1.04421 -1.21263,-0.8922 -1.37059,-1.67269 -0.50079,-2.47444 0.7736,-0.71308 2.74588,0.0298 2.01624,0.75948 l -0.22621,0.2262 -0.22536,-0.2865 c -0.29918,-0.38033 -0.96713,-0.40734 -1.21796,-0.0492 -0.34869,0.49785 -0.15623,0.8301 0.88209,1.52276 0.55555,0.37061 0.76665,0.74458 0.76612,1.35719 -10e-4,1.19011 -1.36005,1.90193 -2.35328,1.23259 z m 14.26767,0.004 c -0.82536,-0.48526 -0.92033,-0.95099 -0.6476,-3.17567 0.2302,-1.87774 0.21142,-1.81932 0.58515,-1.81932 0.38106,0 0.38539,0.0468 0.1581,1.70803 -0.33051,2.41558 -0.0631,3.09016 1.11439,2.81156 0.72097,-0.17057 0.85625,-0.49067 1.12059,-2.65143 l 0.22201,-1.81479 0.3461,-0.0335 c 0.41986,-0.0406 0.41211,-0.16603 0.12741,2.06175 -0.32105,2.51228 -0.66136,3.05311 -1.96519,3.12318 -0.52118,0.028 -0.72493,-0.0123 -1.06096,-0.20985 z m -57.49723,0.0715 c 0,-0.18712 2.93422,-5.37701 3.00049,-5.30711 0.042,0.0443 0.41877,1.20938 0.83737,2.58916 0.41861,1.37977 0.78278,2.5716 0.80927,2.6485 0.0353,0.10236 -0.0582,0.13097 -0.3487,0.10675 -0.38744,-0.0323 -0.40161,-0.0489 -0.59551,-0.70027 l -0.19862,-0.6672 h -0.999 -0.99899 l -0.35283,0.6672 c -0.32755,0.61937 -0.38153,0.66958 -0.75316,0.70033 -0.22017,0.0182 -0.40032,10e-4 -0.40032,-0.0374 z m 3.30679,-1.99738 c -10e-4,-0.0147 -0.11327,-0.40606 -0.24861,-0.86974 l -0.24605,-0.84306 -0.44529,0.81134 c -0.5525,1.00669 -0.57354,0.92815 0.2486,0.92815 0.38163,0 0.69274,-0.012 0.69135,-0.0266 z m 2.78627,1.76818 c 0.005,-0.16518 0.13661,-1.30915 0.29357,-2.54213 l 0.28539,-2.2418 0.65895,-0.0316 c 2.02315,-0.0969 2.53376,2.25033 0.62939,2.89324 -0.0547,0.0185 0.14798,0.44321 0.4504,0.94387 0.76293,1.26309 0.76346,1.2652 0.31228,1.2652 -0.36171,0 -0.3935,-0.0345 -0.98585,-1.07166 -0.71443,-1.25082 -0.68091,-1.25183 -0.83732,0.0251 l -0.12166,0.99318 -0.34666,0.0335 c -0.31839,0.0307 -0.346,0.009 -0.33849,-0.26689 z m 2.02731,-2.76214 c 0.51629,-0.46724 0.29621,-1.26131 -0.385,-1.3891 -0.47577,-0.0893 -0.44062,-0.14541 -0.53295,0.8514 l -0.0781,0.84358 0.40094,-0.0651 c 0.22051,-0.0358 0.48833,-0.14416 0.59515,-0.24082 z m 2.55486,2.99774 c 0,-0.15696 0.54831,-4.63185 0.59216,-4.83272 0.04,-0.18364 0.12735,-0.24018 0.37065,-0.24018 0.39172,0 0.38913,-0.19651 0.0363,2.74887 l -0.28457,2.37523 h -0.35725 c -0.19648,0 -0.35724,-0.0231 -0.35724,-0.0512 z m 9.33725,-0.29574 c 0.0327,-0.19082 0.15486,-1.1636 0.27144,-2.16174 0.11657,-0.99813 0.24032,-1.99493 0.275,-2.2151 l 0.063,-0.40032 h 1.27874 1.27874 l -0.0338,0.29357 c -0.0337,0.29241 -0.0374,0.29368 -0.96193,0.32432 l -0.92815,0.0307 -0.0649,0.50301 c -0.0356,0.27665 -0.0819,0.58707 -0.10269,0.68981 -0.0336,0.16587 0.0608,0.18682 0.84179,0.18682 0.98848,0 1.01102,0.009 0.94084,0.37615 -0.0489,0.25608 -0.0784,0.26437 -0.93829,0.26437 -1.01289,0 -0.95208,-0.0623 -1.06818,1.09421 l -0.0724,0.72057 h 0.91984 c 0.95352,0 1.02161,0.0376 0.85503,0.47166 -0.0541,0.14093 -0.27559,0.16886 -1.33924,0.16886 h -1.27444 z m 14.27078,-2.02829 c 0.16152,-1.30639 0.29611,-2.45932 0.29909,-2.56206 0.004,-0.14221 0.0969,-0.18681 0.38842,-0.18681 0.38267,0 0.38296,3.5e-4 0.31974,0.40032 -0.0348,0.22017 -0.15916,1.21697 -0.27637,2.2151 -0.31455,2.67885 -0.26863,2.50868 -0.67693,2.50868 h -0.34762 z m 13.01371,2.08167 c 0.003,-0.16146 0.11366,-1.15826 0.2456,-2.21512 l 0.2399,-1.92154 -0.6286,-0.032 c -0.51312,-0.0261 -0.61708,-0.0621 -0.56586,-0.19555 0.0345,-0.0899 0.0628,-0.23165 0.0628,-0.31492 0,-0.12376 0.2838,-0.1514 1.555,-0.1514 h 1.55499 l -0.0338,0.29358 c -0.0319,0.27688 -0.0678,0.29535 -0.63232,0.32512 l -0.59854,0.0315 -0.23641,2.05011 c -0.28999,2.51467 -0.2654,2.42375 -0.65537,2.42375 -0.27174,0 -0.31231,-0.0387 -0.30738,-0.29357 z m 3.13626,-0.0534 c 0.0307,-0.19082 0.15405,-1.18762 0.27412,-2.21511 0.31969,-2.73581 0.27592,-2.56205 0.64535,-2.56205 0.39962,0 0.40005,0.0246 0.0485,2.77555 -0.1463,1.14492 -0.26619,2.14172 -0.26643,2.21511 -2.8e-4,0.0816 -0.14755,0.13344 -0.37891,0.13344 -0.36728,0 -0.37683,-0.0102 -0.32266,-0.34694 z m 3.04968,0.20739 c 0,-0.18545 0.40782,-3.55459 0.48384,-3.9971 l 0.0596,-0.34694 H 179.201 c -0.62686,0 -0.62686,0 -0.57986,-0.32026 l 0.047,-0.32025 h 1.53579 1.5358 v 0.32025 c 0,0.31892 -0.003,0.32026 -0.61736,0.32026 h -0.61736 l -0.25982,2.24179 -0.25982,2.2418 h -0.35047 c -0.21741,0 -0.35048,-0.053 -0.35048,-0.13955 z m 9.24862,-1.80867 c 0.34134,-2.75631 0.37051,-2.53537 -0.3348,-2.53537 -0.60226,0 -0.67733,-0.0678 -0.52234,-0.47165 0.069,-0.1797 3.13955,-0.26663 3.13631,-0.0888 -0.008,0.46103 -0.13344,0.56045 -0.70488,0.56045 -0.31608,0 -0.57469,0.0388 -0.57469,0.0862 0,0.13151 -0.41752,3.54182 -0.48936,3.99709 -0.0579,0.36676 -0.092,0.40032 -0.40734,0.40032 h -0.34418 z m 2.81309,1.76141 c -6.4e-4,-0.10275 0.12676,-1.25567 0.28327,-2.56206 l 0.28457,-2.37523 h 1.26464 1.26464 v 0.32025 0.32026 h -0.96077 c -0.86558,0 -0.96078,0.0197 -0.96078,0.1986 0,0.10924 -0.0305,0.42149 -0.0679,0.69389 l -0.0679,0.49529 h 0.92899 0.929 l -0.0338,0.29356 c -0.0336,0.29227 -0.0379,0.29371 -0.95634,0.32425 l -0.92256,0.0307 -0.0678,0.50309 c -0.0373,0.2767 -0.0947,0.68323 -0.12766,0.90341 l -0.0599,0.40032 h 0.91678 0.91678 v 0.32025 0.32026 h -1.28103 c -1.14836,0 -1.28116,-0.0193 -1.28233,-0.18681 z m -31.86426,-8.14617 c -2.74348,-0.36838 -4.24003,-2.45581 -3.51383,-4.90118 0.46718,-1.57317 1.45413,-2.35052 5.06174,-3.98678 1.0862,-0.49265 2.34721,-1.0814 2.80224,-1.30832 l 0.82733,-0.41259 -0.003,-0.96405 c -0.006,-2.50184 -1.63482,-3.12252 -5.85181,-2.23004 -0.68468,0.14491 -1.39601,0.29034 -1.58074,0.3232 l -0.33586,0.0597 0.38493,-1.23618 0.38493,-1.23618 0.96508,-0.24077 c 1.29288,-0.32254 5.18027,-0.36319 6.14466,-0.0643 1.12579,0.34898 1.95203,1.09101 2.35222,2.11253 0.11397,0.29092 0.15908,1.54339 0.20375,5.65787 0.0728,6.70472 -0.0115,6.45851 2.21094,6.45851 1.22847,0 1.53965,-0.13445 1.86893,-0.80752 0.2845,-0.58155 0.32902,-9.48838 0.05,-10.00953 -0.23829,-0.44509 -0.90029,-0.76006 -1.60419,-0.76323 l -0.52071,-0.003 0.0661,-0.40032 c 0.19207,-1.1635 0.18168,-1.15194 1.27059,-1.41368 0.54219,-0.13032 1.46617,-0.4024 2.05331,-0.60461 0.58714,-0.20222 1.15919,-0.39687 1.27123,-0.43255 0.19672,-0.0627 0.20111,-0.007 0.12811,1.6296 l -0.0756,1.69449 0.54333,-0.71771 c 2.44252,-3.22649 7.212,-3.4007 8.8854,-0.32455 0.5713,1.0502 0.61334,1.49029 0.61524,6.4407 0.002,5.48322 0.0209,5.55646 1.47389,5.72854 0.69643,0.0825 0.69243,0.0752 0.46408,0.84457 l -0.18779,0.63268 -3.48981,0.0282 c -3.94427,0.0318 -3.57991,0.12774 -3.34564,-0.88092 0.1234,-0.53132 0.12482,-0.53267 0.63456,-0.60559 0.74368,-0.10637 1.25377,-0.40951 1.50955,-0.89708 0.33973,-0.64761 0.39491,-7.82927 0.0684,-8.90421 -0.87931,-2.89493 -4.85506,-2.85644 -6.21993,0.0602 -0.5075,1.08449 -0.61246,1.9831 -0.61664,5.27875 -0.005,3.91747 0.17384,4.27478 2.22522,4.44676 0.86238,0.0723 0.86049,0.0692 0.5805,0.95746 l -0.17963,0.56983 h -6.06539 -6.06538 v -0.98509 -0.9851 l -0.34695,0.42465 c -1.28764,1.57601 -2.99449,2.24133 -5.04405,1.96612 z m 2.68298,-2.28699 c 0.74996,-0.22272 1.65326,-0.9042 2.08057,-1.56966 l 0.36056,-0.5615 0.0345,-2.16611 0.0346,-2.16611 -0.51496,0.20427 c -4.30848,1.70901 -5.75221,3.04701 -5.25437,4.86957 0.35377,1.29511 1.67709,1.85932 3.25905,1.38954 z m -26.14077,2.17728 c -3.89626,-0.43061 -6.20365,-3.71464 -6.03135,-8.58418 0.1442,-4.07551 2.16043,-6.8786 5.56701,-7.73962 1.63353,-0.41288 4.02059,-0.23382 5.53307,0.41505 l 0.50609,0.21712 0.0633,-0.25232 c 0.0348,-0.13878 0.0471,-1.08564 0.0273,-2.10415 -0.0505,-2.59849 -0.19326,-2.80752 -2.00476,-2.9361 -1.08323,-0.0769 -1.01267,0.0247 -0.70549,-1.01568 l 0.12735,-0.4313 1.38055,-0.35121 c 0.75929,-0.19317 1.99879,-0.5724 2.75443,-0.84273 0.75565,-0.27034 1.40416,-0.49159 1.44116,-0.49167 0.037,-9e-5 0.0318,0.44427 -0.0116,0.98746 -0.14621,1.8316 -0.22259,17.34422 -0.0913,18.55066 0.21753,1.99958 0.66061,2.5566 2.15832,2.71336 1.92367,0.20135 1.98866,0.003 2.02625,-6.17093 0.0347,-5.70583 0.0583,-5.62101 -1.6098,-5.79536 -0.72153,-0.0754 -0.7245,-0.0809 -0.5031,-0.93483 l 0.13596,-0.52438 1.75683,-0.40085 c 0.96626,-0.22047 1.96704,-0.47689 2.22395,-0.56983 0.25691,-0.0929 0.4851,-0.16898 0.50707,-0.16898 0.022,0 0.0404,0.85268 0.0409,1.89485 l 6.4e-4,1.89485 0.31582,-0.55065 c 1.0002,-1.74392 2.69199,-2.87635 4.66261,-3.12101 1.08433,-0.13462 1.05458,-0.22953 0.4735,1.51106 l -0.50748,1.52009 -0.47162,0.0273 c -3.4186,0.19823 -4.10868,1.4484 -4.0296,7.30011 0.0463,3.41887 0.2068,3.7886 1.72847,3.97953 0.2723,0.0342 0.70733,0.0885 0.96671,0.12073 l 0.47161,0.0586 -0.2413,0.71535 -0.24129,0.71535 -6.3152,0.0275 -6.31519,0.0275 v -0.63972 -0.63973 l -0.56044,0.42622 c -1.18793,0.90341 -3.30854,1.37474 -5.22985,1.16241 z m 3.77906,-2.47463 c 0.37402,-0.13576 0.95553,-0.4297 1.29225,-0.65321 l 0.61222,-0.40636 -6.4e-4,-3.53913 c -10e-4,-5.80189 -0.47357,-6.90737 -3.17796,-7.43943 -3.3678,-0.66257 -5.48944,1.5034 -5.49349,5.60832 -0.005,4.80762 3.1029,7.76009 6.76779,6.42981 z m -20.80829,2.26027 c -1.78909,-0.56678 -2.91554,-2.36906 -2.60663,-4.1705 0.36683,-2.1392 1.63519,-3.21538 6.13194,-5.20287 0.80801,-0.35713 1.75678,-0.79453 2.10836,-0.97201 l 0.63923,-0.32268 -0.002,-0.71905 c -0.009,-2.67545 -1.69549,-3.23872 -6.45032,-2.15496 -0.76017,0.17326 -1.41381,0.31502 -1.45254,0.31502 -0.0387,0 0.12686,-0.54892 0.36798,-1.21983 l 0.43839,-1.21983 0.74727,-0.21767 c 3.15281,-0.91842 6.87532,-0.66366 8.14088,0.55712 0.92813,0.89529 0.92137,0.84606 0.98445,7.17095 0.0464,4.65667 0.0808,5.58954 0.21339,5.78955 0.17061,0.25743 0.82037,0.56131 1.20523,0.56367 0.70412,0.004 0.72371,0.0459 0.4313,0.91562 l -0.26594,0.79096 h -2.1254 -2.1254 v -1.08583 -1.08582 l -0.33076,0.49936 c -1.12119,1.69269 -3.80858,2.47853 -6.04889,1.7688 z m 4.32953,-2.44202 c 1.46904,-0.78305 1.83419,-1.63609 1.83558,-4.28823 l 0.001,-1.99001 -1.25434,0.56068 c -3.60225,1.61017 -4.50694,2.40948 -4.50928,3.98405 -0.003,1.941 1.93385,2.79595 3.927,1.73351 z m 67.11123,2.51686 c -0.86439,-0.21 -1.50016,-0.5744 -2.04802,-1.17385 -0.88866,-0.97234 -0.88324,-0.92913 -0.88324,-7.03999 v -5.30155 h -1.18276 -1.18275 l 0.0582,-0.29357 c 0.032,-0.16146 0.0902,-0.48572 0.12929,-0.72058 0.10348,-0.62172 0.20894,-0.76796 0.60765,-0.84276 1.13897,-0.21367 1.9983,-1.4383 2.16739,-3.0887 l 0.0711,-0.69381 0.90445,-0.32949 c 0.49745,-0.18121 0.94761,-0.32948 1.00035,-0.32948 0.0535,0 0.0959,0.94398 0.0959,2.13505 v 2.13505 h 2.00231 c 1.10127,0 2.16695,-0.0472 2.36817,-0.10493 0.20122,-0.0577 0.37733,-0.0935 0.39134,-0.0794 0.0262,0.0262 -0.20787,1.10072 -0.3948,1.81234 l -0.10516,0.40032 h -2.13093 -2.13093 v 4.88799 c 0,6.5232 -0.0729,6.37437 3.12252,6.37437 0.92476,0 1.68053,0.024 1.67949,0.0534 -0.0156,0.43976 -0.3455,1.97906 -0.43623,2.03513 -0.44351,0.2741 -3.19771,0.38452 -4.10333,0.16451 z m -104.548907,-0.0772 c -6.30279,-0.73088 -10.525274,-5.73872 -10.520682,-12.47746 0.0085,-12.42248 15.29759,-17.66693 22.386669,-7.67903 3.15718,4.4482 2.98695,10.70212 -0.416599,15.30502 l -0.68705,0.92914 1.472391,1.41052 c 0.809815,0.77577 1.712583,1.63599 2.006148,1.91159 l 0.53376,0.50108 -2.050341,0.003 -2.050347,0.003 -0.976858,-1.00977 -0.976857,-1.00976 -0.548998,0.32431 c -2.604502,1.53855 -5.280649,2.1246 -8.171236,1.78941 z m 4.094892,-3.18611 c 0.408511,-0.13182 1.146811,-0.42635 1.640667,-0.65452 l 0.897919,-0.41484 -1.000153,-1.07651 c -0.550084,-0.59208 -1.160262,-1.26509 -1.355951,-1.49556 l -0.355799,-0.41905 h 1.922596 1.922596 l 0.40812,0.52886 c 0.483333,0.62632 0.416059,0.63289 1.043419,-0.10186 3.664946,-4.29225 2.072384,-12.06485 -2.975579,-14.52251 -6.565858,-3.19667 -13.790684,1.39887 -13.768616,8.75789 0.01469,4.89453 3.151816,8.75664 7.835593,9.64636 0.734238,0.13947 3.05539,-0.0128 3.785188,-0.24826 z m 15.473125,3.14682 c -1.30745,-0.28445 -2.34894,-1.06797 -2.84004,-2.13657 -0.24227,-0.52717 -0.24596,-0.59634 -0.29867,-5.60449 -0.0645,-6.13085 -0.0441,-6.05712 -1.68135,-6.07886 -0.51604,-0.007 -0.51479,-0.003 -0.27914,-0.85061 l 0.17455,-0.62785 0.65278,-0.12528 c 0.35902,-0.0689 1.35056,-0.31407 2.20341,-0.54482 0.85286,-0.23074 1.59745,-0.41954 1.65466,-0.41956 0.0667,-3e-5 0.0916,2.18851 0.0695,6.10232 -0.0385,6.80307 -0.0482,6.69921 0.68245,7.34069 1.31873,1.15786 4.33244,0.6391 5.43358,-0.9353 0.36659,-0.52414 0.45501,-1.77569 0.4726,-6.68968 0.0105,-2.92646 -0.0848,-3.09217 -1.8556,-3.2261 -0.90423,-0.0684 -0.89419,-0.0536 -0.63755,-0.93642 0.15372,-0.5288 0.19039,-0.57022 0.56045,-0.63299 0.21778,-0.0369 1.39053,-0.31636 2.60612,-0.62094 1.21559,-0.30458 2.2276,-0.53154 2.24892,-0.50435 0.0213,0.0272 -0.002,0.74599 -0.0505,1.59734 -0.15347,2.66067 -0.0607,12.05962 0.12251,12.41796 0.19412,0.37957 0.61412,0.59942 1.30052,0.68071 l 0.53587,0.0635 -0.0669,0.54466 c -0.0368,0.29955 -0.0922,0.67675 -0.12308,0.83821 l -0.0562,0.29357 h -2.28669 -2.28669 v -0.96311 -0.96312 l -0.70135,0.57849 c -1.63897,1.35191 -3.55883,1.83675 -5.55415,1.40264 z"
       id="path19" /></g></svg>
